<svg width="48" height="74" viewBox="0 0 48 74" fill="none" xmlns="http://www.w3.org/2000/svg">
  <path
    d="M0.0512176 66.5503C-0.197155 67.6266 0.473998 68.7004 1.55028 68.9488L19.0893 72.9963C20.1656 73.2446 21.2395 72.5735 21.4878 71.4972C21.7362 70.4209 21.065 69.3471 19.9888 69.0987L4.3985 65.5009L7.99625 49.9107C8.24463 48.8344 7.57347 47.7605 6.49719 47.5122C5.42091 47.2638 4.34706 47.935 4.09869 49.0112L0.0512176 66.5503ZM44 0C44 28.5394 28.6295 47.998 0.940002 65.304L3.06 68.696C31.3705 51.002 48 30.4606 48 0H44Z"
    fill="url(#paint0_linear_2184_1423)"/>
  <defs>
    <linearGradient id="paint0_linear_2184_1423" x1="88.4828" y1="34.0492" x2="64.0186" y2="104.051"
                    gradientUnits="userSpaceOnUse">
      <stop stop-color="#6910E0"/>
      <stop offset="1" stop-color="#B47CFF"/>
    </linearGradient>
  </defs>
</svg>
