<svg width="32" height="48" viewBox="0 0 32 48" fill="none" xmlns="http://www.w3.org/2000/svg">
  <path d="M0.0647103 40.4153C-0.21399 41.4841 0.426537 42.5765 1.49537 42.8552L18.913 47.3969C19.9818 47.6756 21.0742 47.0351 21.3529 45.9662C21.6316 44.8974 20.9911 43.805 19.9222 43.5263L4.43992 39.4893L8.47698 24.0069C8.75568 22.9381 8.11515 21.8457 7.04632 21.567C5.97749 21.2883 4.8851 21.9289 4.6064 22.9977L0.0647103 40.4153ZM28 0.919922C28 17.5082 18.5249 28.912 0.988372 39.1946L3.01163 42.6452C21.1115 32.0323 32 19.5555 32 0.919922H28Z" fill="url(#paint0_linear_2217_2840)"/>
  <defs>
    <linearGradient id="paint0_linear_2217_2840" x1="57.0345" y1="21.2478" x2="43.151" y2="63.5924" gradientUnits="userSpaceOnUse">
      <stop stop-color="#6910E0"/>
      <stop offset="1" stop-color="#B47CFF"/>
    </linearGradient>
  </defs>
</svg>
