<svg  viewBox="0 0 41 28" fill="none" xmlns="http://www.w3.org/2000/svg">
  <path
    d="M29.2076 0.709412C25.9277 0.709412 23.3638 3.17975 21.0429 6.31784C17.8534 2.25684 15.1861 0.709412 11.994 0.709412C5.48625 0.709412 0.5 9.17871 0.5 18.143C0.5 23.7525 3.21382 27.2905 7.7594 27.2905C11.031 27.2905 13.384 25.7481 17.5669 18.4363C17.5669 18.4363 19.3106 15.3571 20.5101 13.236C20.9304 13.9146 21.3731 14.6459 21.8382 15.4299L23.7997 18.7296C27.6207 25.1236 29.7496 27.2905 33.6072 27.2905C38.0356 27.2905 40.5 23.7041 40.5 17.978C40.5 8.59209 35.4013 0.709412 29.2076 0.709412ZM14.3772 16.4564C10.9858 21.7727 9.81256 22.9642 7.92438 22.9642C5.98121 22.9642 4.82631 21.2583 4.82631 18.2163C4.82631 11.7085 8.07104 5.05405 11.9391 5.05405C14.0337 5.05405 15.7841 6.26376 18.4653 10.1022C15.9194 14.0072 14.3772 16.4564 14.3772 16.4564ZM27.1767 15.7872L24.8315 11.8758C24.1968 10.8436 23.5869 9.89352 23.0017 9.02552C25.1154 5.76308 26.859 4.13747 28.9326 4.13747C33.2406 4.13747 36.687 10.4803 36.687 18.2713C36.687 21.2411 35.7143 22.9642 33.6989 22.9642C31.7672 22.9642 30.8444 21.6885 27.1767 15.7872Z"
    fill="currentColor"/>
</svg>
