<svg viewBox="0 0 22 34" fill="none" xmlns="http://www.w3.org/2000/svg">
  <path
    d="M10.7893 6.01855C11.6927 5.88693 12.2816 6.47138 12.5362 7.27193C13.3511 9.83664 12.9884 12.6784 15.7616 14.1665C17.3601 15.024 19.6791 14.8963 21.1734 15.635C22.0168 16.0525 22.2292 17.0652 21.7465 17.853C21.4417 18.351 21.0259 18.4305 20.5098 18.5818C17.9882 19.3224 15.2819 19.0729 13.8456 21.7457C12.9835 23.3498 13.1083 25.6512 12.3749 27.1521C11.7232 28.4861 9.9458 28.1727 9.48475 26.7248C8.66979 24.1601 9.03254 21.3184 6.25932 19.8303C4.65398 18.9688 2.35067 19.0936 0.848548 18.3608C-0.48645 17.7096 -0.172853 15.9336 1.27618 15.4729C3.83902 14.6596 6.69187 15.0122 8.17629 12.2501C9.02959 10.6618 8.92735 8.47915 9.61549 6.91046C9.82489 6.43405 10.2692 6.09321 10.7893 6.01659V6.01855Z"
    fill="url(#paint0_linear_2184_1208)"/>
  <defs>
    <linearGradient id="paint0_linear_2184_1208" x1="22.0006" y1="28" x2="22.0006" y2="6"
                    gradientUnits="userSpaceOnUse">
      <stop stop-color="#6910E0"/>
      <stop offset="1" stop-color="#B47CFF"/>
    </linearGradient>
  </defs>
</svg>
