<svg viewBox="0 0 32 32" fill="none" xmlns="http://www.w3.org/2000/svg">
  <path
    d="M18.5 3H8.5C7.83696 3 7.20107 3.26339 6.73223 3.73223C6.26339 4.20107 6 4.83696 6 5.5V25.5C6 26.163 6.26339 26.7989 6.73223 27.2678C7.20107 27.7366 7.83696 28 8.5 28H23.5C24.163 28 24.7989 27.7366 25.2678 27.2678C25.7366 26.7989 26 26.163 26 25.5V10.5M18.5 3L26 10.5M18.5 3L18.5 10.5H26M21 16.75H11M21 21.75H11M13.5 11.75H11"
    stroke="currentColor" stroke-width="2" stroke-linecap="round" stroke-linejoin="round"/>
</svg>
