<svg viewBox="0 0 98 96" fill="none" xmlns="http://www.w3.org/2000/svg">
  <mask id="path-1-outside-1_1_230" maskUnits="userSpaceOnUse" x="-0.194824" y="-1" width="98" height="97"
        fill="currentColor">
    <rect fill="white" x="-0.194824" y="-1" width="98" height="97"/>
    <path
      d="M49.322 5.07941e-07C30.3161 -0.00276975 13.1389 11.3262 5.6582 28.798L5.06616 28.9943L5.2957 29.6829C-4.55375 53.9753 7.15434 81.6527 31.4467 91.5022C37.1204 93.8027 43.1855 94.9836 49.3079 94.9802C75.5359 94.9842 96.8012 73.7252 96.8052 47.4972C96.8091 21.2692 75.5502 0.00376014 49.322 5.07941e-07ZM86.5726 71.4338L84.134 68.9968V63.3201C84.1368 63.0752 84.0826 62.833 83.9757 62.6125L77.802 50.2825V44.3241C77.802 43.795 77.5378 43.3007 77.0976 43.007L72.3486 39.841C71.9764 39.5925 71.5163 39.5132 71.0822 39.6226L65.2662 41.0758L55.4975 36.884L54.1535 27.4683L57.8783 23.7451H65.8741L68.5652 27.7896C68.8082 28.1533 69.1911 28.4005 69.6226 28.4719L79.1206 30.0549C79.3751 30.0976 79.6359 30.0769 79.8805 29.9948L88.6282 27.0789C95.9652 41.1587 95.1804 58.0931 86.5726 71.4338ZM80.0435 15.5989L77.4696 17.3149L70.2938 15.8791L65.6382 14.3294C65.3533 14.2326 65.0466 14.2203 64.7549 14.2945L58.8693 15.7651L56.289 14.9056L58.2013 11.081H63.555C63.8005 11.0812 64.0427 11.0244 64.2626 10.9148L69.7398 8.17621C73.5117 10.1451 76.9816 12.6446 80.0435 15.5989ZM31.9693 6.70085L35.7685 9.23366C35.9553 9.35793 36.1662 9.44103 36.3875 9.47744L44.0587 10.7565L43.3099 12.9965L39.3129 14.3309C38.9549 14.4501 38.6512 14.693 38.4565 15.0164L33.9101 22.5926L26.6077 26.9744L15.8432 28.5115C15.063 28.6217 14.4829 29.2891 14.4819 30.0771V34.8261C14.4819 35.246 14.6489 35.6484 14.9457 35.9453L17.6479 38.6474V41.3671L11.0626 36.9758L8.67383 29.8095C13.2186 19.425 21.5486 11.1618 31.9693 6.70085ZM27.4625 58.6028L20.3073 57.1702L17.6479 51.8655V48.1455L23.5461 42.2472L25.7291 46.6147C25.9972 47.1513 26.5459 47.4903 27.1459 47.4901H37.3309L41.6193 54.6374C41.9054 55.1137 42.4203 55.4049 42.9759 55.4051H47.3767L46.2686 60.9567L40.2753 66.95C39.9779 67.2466 39.8105 67.6491 39.8099 68.0692V72.0267L34.1111 76.3008C33.7126 76.5998 33.4779 77.0689 33.4779 77.5672V83.285L31.5086 82.6328L28.7289 75.6802V60.1541C28.7291 59.4018 28.1996 58.7532 27.4625 58.6028ZM22.704 82.9377C7.77844 71.7401 1.46641 52.3927 6.91669 34.5475L8.23217 38.4923C8.34298 38.8261 8.56183 39.1136 8.85429 39.3091L16.7456 44.5695L14.9457 46.3709C14.6489 46.6677 14.4819 47.0702 14.4819 47.4901V52.2391C14.4817 52.4847 14.5385 52.7269 14.6481 52.9467L17.8141 59.2787C18.0333 59.716 18.4423 60.0275 18.9222 60.1225L25.5708 61.4506V75.9842C25.5706 76.1852 25.6088 76.3847 25.6832 76.5715L28.8492 84.4865C29.0225 84.9188 29.3775 85.2531 29.8196 85.3999L34.5686 86.9829C34.7273 87.0367 34.8935 87.0644 35.0609 87.0652C35.9351 87.0652 36.6439 86.3564 36.6439 85.4822V78.3587L42.3427 74.0846C42.7412 73.7856 42.9759 73.3164 42.9759 72.8182V68.7245L48.8441 62.8563C49.0648 62.6353 49.2151 62.3537 49.2763 62.0474L50.8593 54.1324C51.0306 53.275 50.4746 52.4412 49.6172 52.2698C49.5153 52.2494 49.4118 52.2391 49.3079 52.2391H43.8719L39.5835 45.0919C39.2974 44.6156 38.7826 44.3243 38.2269 44.3241H28.1242L25.4046 38.8675C25.1768 38.412 24.7439 38.0938 24.2411 38.0127C23.7385 37.9258 23.2254 38.0916 22.8686 38.4559L20.8139 40.5027V37.9921C20.8139 37.5722 20.6469 37.1697 20.3501 36.8729L17.6479 34.1707V31.4495L27.3707 30.0612C27.5794 30.031 27.7803 29.9593 27.9611 29.8507L35.8762 25.1017C36.0982 24.9683 36.2842 24.7823 36.4175 24.5603L40.8658 17.1471L45.0592 15.7477C45.5327 15.5924 45.9043 15.221 46.0596 14.7473L47.6426 9.99825C47.9169 9.16816 47.4663 8.27278 46.6362 7.99852C46.5597 7.97319 46.4811 7.9538 46.4016 7.94035L37.2391 6.41275L35.6292 5.33947C45.5909 2.09708 56.3802 2.49838 66.0735 6.47132L63.1814 7.91502H57.223C56.62 7.91165 56.0678 8.25121 55.7983 8.79042L52.6322 15.1224C52.2422 15.9048 52.5602 16.8554 53.3426 17.2454C53.4093 17.2787 53.4782 17.3072 53.5488 17.3307L58.2978 18.9137C58.5828 19.0105 58.8895 19.0228 59.1811 18.9486L65.0667 17.4779L69.3788 18.9137C69.4406 18.9359 69.5041 18.9529 69.5688 18.9644L77.4838 20.5474C77.8954 20.6313 78.3236 20.547 78.6727 20.3131L82.2756 17.9101C84.0487 19.8851 85.6422 22.0142 87.0372 24.2722L79.2489 26.8683L70.8162 25.4626L68.0301 21.2835C67.7381 20.8456 67.2473 20.5816 66.721 20.579H57.223C56.8031 20.579 56.4006 20.7461 56.1038 21.0429L51.3548 25.7919C51.0022 26.1443 50.8361 26.6423 50.9068 27.1358L52.4898 38.2169C52.5695 38.7648 52.9297 39.2312 53.4396 39.4469L64.5206 44.1959C64.838 44.3334 65.1922 44.3617 65.5274 44.2766L71.1803 42.863L74.636 45.171V50.6561C74.6332 50.9011 74.6874 51.1433 74.7943 51.3637L80.968 63.6937V69.6522C80.968 70.0721 81.135 70.4745 81.4318 70.7713L84.7435 74.0846C70.0566 93.661 42.2804 97.6248 22.704 82.9377Z"/>
  </mask>
  <path
    d="M49.322 5.07941e-07C30.3161 -0.00276975 13.1389 11.3262 5.6582 28.798L5.06616 28.9943L5.2957 29.6829C-4.55375 53.9753 7.15434 81.6527 31.4467 91.5022C37.1204 93.8027 43.1855 94.9836 49.3079 94.9802C75.5359 94.9842 96.8012 73.7252 96.8052 47.4972C96.8091 21.2692 75.5502 0.00376014 49.322 5.07941e-07ZM86.5726 71.4338L84.134 68.9968V63.3201C84.1368 63.0752 84.0826 62.833 83.9757 62.6125L77.802 50.2825V44.3241C77.802 43.795 77.5378 43.3007 77.0976 43.007L72.3486 39.841C71.9764 39.5925 71.5163 39.5132 71.0822 39.6226L65.2662 41.0758L55.4975 36.884L54.1535 27.4683L57.8783 23.7451H65.8741L68.5652 27.7896C68.8082 28.1533 69.1911 28.4005 69.6226 28.4719L79.1206 30.0549C79.3751 30.0976 79.6359 30.0769 79.8805 29.9948L88.6282 27.0789C95.9652 41.1587 95.1804 58.0931 86.5726 71.4338ZM80.0435 15.5989L77.4696 17.3149L70.2938 15.8791L65.6382 14.3294C65.3533 14.2326 65.0466 14.2203 64.7549 14.2945L58.8693 15.7651L56.289 14.9056L58.2013 11.081H63.555C63.8005 11.0812 64.0427 11.0244 64.2626 10.9148L69.7398 8.17621C73.5117 10.1451 76.9816 12.6446 80.0435 15.5989ZM31.9693 6.70085L35.7685 9.23366C35.9553 9.35793 36.1662 9.44103 36.3875 9.47744L44.0587 10.7565L43.3099 12.9965L39.3129 14.3309C38.9549 14.4501 38.6512 14.693 38.4565 15.0164L33.9101 22.5926L26.6077 26.9744L15.8432 28.5115C15.063 28.6217 14.4829 29.2891 14.4819 30.0771V34.8261C14.4819 35.246 14.6489 35.6484 14.9457 35.9453L17.6479 38.6474V41.3671L11.0626 36.9758L8.67383 29.8095C13.2186 19.425 21.5486 11.1618 31.9693 6.70085ZM27.4625 58.6028L20.3073 57.1702L17.6479 51.8655V48.1455L23.5461 42.2472L25.7291 46.6147C25.9972 47.1513 26.5459 47.4903 27.1459 47.4901H37.3309L41.6193 54.6374C41.9054 55.1137 42.4203 55.4049 42.9759 55.4051H47.3767L46.2686 60.9567L40.2753 66.95C39.9779 67.2466 39.8105 67.6491 39.8099 68.0692V72.0267L34.1111 76.3008C33.7126 76.5998 33.4779 77.0689 33.4779 77.5672V83.285L31.5086 82.6328L28.7289 75.6802V60.1541C28.7291 59.4018 28.1996 58.7532 27.4625 58.6028ZM22.704 82.9377C7.77844 71.7401 1.46641 52.3927 6.91669 34.5475L8.23217 38.4923C8.34298 38.8261 8.56183 39.1136 8.85429 39.3091L16.7456 44.5695L14.9457 46.3709C14.6489 46.6677 14.4819 47.0702 14.4819 47.4901V52.2391C14.4817 52.4847 14.5385 52.7269 14.6481 52.9467L17.8141 59.2787C18.0333 59.716 18.4423 60.0275 18.9222 60.1225L25.5708 61.4506V75.9842C25.5706 76.1852 25.6088 76.3847 25.6832 76.5715L28.8492 84.4865C29.0225 84.9188 29.3775 85.2531 29.8196 85.3999L34.5686 86.9829C34.7273 87.0367 34.8935 87.0644 35.0609 87.0652C35.9351 87.0652 36.6439 86.3564 36.6439 85.4822V78.3587L42.3427 74.0846C42.7412 73.7856 42.9759 73.3164 42.9759 72.8182V68.7245L48.8441 62.8563C49.0648 62.6353 49.2151 62.3537 49.2763 62.0474L50.8593 54.1324C51.0306 53.275 50.4746 52.4412 49.6172 52.2698C49.5153 52.2494 49.4118 52.2391 49.3079 52.2391H43.8719L39.5835 45.0919C39.2974 44.6156 38.7826 44.3243 38.2269 44.3241H28.1242L25.4046 38.8675C25.1768 38.412 24.7439 38.0938 24.2411 38.0127C23.7385 37.9258 23.2254 38.0916 22.8686 38.4559L20.8139 40.5027V37.9921C20.8139 37.5722 20.6469 37.1697 20.3501 36.8729L17.6479 34.1707V31.4495L27.3707 30.0612C27.5794 30.031 27.7803 29.9593 27.9611 29.8507L35.8762 25.1017C36.0982 24.9683 36.2842 24.7823 36.4175 24.5603L40.8658 17.1471L45.0592 15.7477C45.5327 15.5924 45.9043 15.221 46.0596 14.7473L47.6426 9.99825C47.9169 9.16816 47.4663 8.27278 46.6362 7.99852C46.5597 7.97319 46.4811 7.9538 46.4016 7.94035L37.2391 6.41275L35.6292 5.33947C45.5909 2.09708 56.3802 2.49838 66.0735 6.47132L63.1814 7.91502H57.223C56.62 7.91165 56.0678 8.25121 55.7983 8.79042L52.6322 15.1224C52.2422 15.9048 52.5602 16.8554 53.3426 17.2454C53.4093 17.2787 53.4782 17.3072 53.5488 17.3307L58.2978 18.9137C58.5828 19.0105 58.8895 19.0228 59.1811 18.9486L65.0667 17.4779L69.3788 18.9137C69.4406 18.9359 69.5041 18.9529 69.5688 18.9644L77.4838 20.5474C77.8954 20.6313 78.3236 20.547 78.6727 20.3131L82.2756 17.9101C84.0487 19.8851 85.6422 22.0142 87.0372 24.2722L79.2489 26.8683L70.8162 25.4626L68.0301 21.2835C67.7381 20.8456 67.2473 20.5816 66.721 20.579H57.223C56.8031 20.579 56.4006 20.7461 56.1038 21.0429L51.3548 25.7919C51.0022 26.1443 50.8361 26.6423 50.9068 27.1358L52.4898 38.2169C52.5695 38.7648 52.9297 39.2312 53.4396 39.4469L64.5206 44.1959C64.838 44.3334 65.1922 44.3617 65.5274 44.2766L71.1803 42.863L74.636 45.171V50.6561C74.6332 50.9011 74.6874 51.1433 74.7943 51.3637L80.968 63.6937V69.6522C80.968 70.0721 81.135 70.4745 81.4318 70.7713L84.7435 74.0846C70.0566 93.661 42.2804 97.6248 22.704 82.9377Z"
    fill="currentColor"/>
  <path
    d="M49.322 5.07941e-07C30.3161 -0.00276975 13.1389 11.3262 5.6582 28.798L5.06616 28.9943L5.2957 29.6829C-4.55375 53.9753 7.15434 81.6527 31.4467 91.5022C37.1204 93.8027 43.1855 94.9836 49.3079 94.9802C75.5359 94.9842 96.8012 73.7252 96.8052 47.4972C96.8091 21.2692 75.5502 0.00376014 49.322 5.07941e-07ZM86.5726 71.4338L84.134 68.9968V63.3201C84.1368 63.0752 84.0826 62.833 83.9757 62.6125L77.802 50.2825V44.3241C77.802 43.795 77.5378 43.3007 77.0976 43.007L72.3486 39.841C71.9764 39.5925 71.5163 39.5132 71.0822 39.6226L65.2662 41.0758L55.4975 36.884L54.1535 27.4683L57.8783 23.7451H65.8741L68.5652 27.7896C68.8082 28.1533 69.1911 28.4005 69.6226 28.4719L79.1206 30.0549C79.3751 30.0976 79.6359 30.0769 79.8805 29.9948L88.6282 27.0789C95.9652 41.1587 95.1804 58.0931 86.5726 71.4338ZM80.0435 15.5989L77.4696 17.3149L70.2938 15.8791L65.6382 14.3294C65.3533 14.2326 65.0466 14.2203 64.7549 14.2945L58.8693 15.7651L56.289 14.9056L58.2013 11.081H63.555C63.8005 11.0812 64.0427 11.0244 64.2626 10.9148L69.7398 8.17621C73.5117 10.1451 76.9816 12.6446 80.0435 15.5989ZM31.9693 6.70085L35.7685 9.23366C35.9553 9.35793 36.1662 9.44103 36.3875 9.47744L44.0587 10.7565L43.3099 12.9965L39.3129 14.3309C38.9549 14.4501 38.6512 14.693 38.4565 15.0164L33.9101 22.5926L26.6077 26.9744L15.8432 28.5115C15.063 28.6217 14.4829 29.2891 14.4819 30.0771V34.8261C14.4819 35.246 14.6489 35.6484 14.9457 35.9453L17.6479 38.6474V41.3671L11.0626 36.9758L8.67383 29.8095C13.2186 19.425 21.5486 11.1618 31.9693 6.70085ZM27.4625 58.6028L20.3073 57.1702L17.6479 51.8655V48.1455L23.5461 42.2472L25.7291 46.6147C25.9972 47.1513 26.5459 47.4903 27.1459 47.4901H37.3309L41.6193 54.6374C41.9054 55.1137 42.4203 55.4049 42.9759 55.4051H47.3767L46.2686 60.9567L40.2753 66.95C39.9779 67.2466 39.8105 67.6491 39.8099 68.0692V72.0267L34.1111 76.3008C33.7126 76.5998 33.4779 77.0689 33.4779 77.5672V83.285L31.5086 82.6328L28.7289 75.6802V60.1541C28.7291 59.4018 28.1996 58.7532 27.4625 58.6028ZM22.704 82.9377C7.77844 71.7401 1.46641 52.3927 6.91669 34.5475L8.23217 38.4923C8.34298 38.8261 8.56183 39.1136 8.85429 39.3091L16.7456 44.5695L14.9457 46.3709C14.6489 46.6677 14.4819 47.0702 14.4819 47.4901V52.2391C14.4817 52.4847 14.5385 52.7269 14.6481 52.9467L17.8141 59.2787C18.0333 59.716 18.4423 60.0275 18.9222 60.1225L25.5708 61.4506V75.9842C25.5706 76.1852 25.6088 76.3847 25.6832 76.5715L28.8492 84.4865C29.0225 84.9188 29.3775 85.2531 29.8196 85.3999L34.5686 86.9829C34.7273 87.0367 34.8935 87.0644 35.0609 87.0652C35.9351 87.0652 36.6439 86.3564 36.6439 85.4822V78.3587L42.3427 74.0846C42.7412 73.7856 42.9759 73.3164 42.9759 72.8182V68.7245L48.8441 62.8563C49.0648 62.6353 49.2151 62.3537 49.2763 62.0474L50.8593 54.1324C51.0306 53.275 50.4746 52.4412 49.6172 52.2698C49.5153 52.2494 49.4118 52.2391 49.3079 52.2391H43.8719L39.5835 45.0919C39.2974 44.6156 38.7826 44.3243 38.2269 44.3241H28.1242L25.4046 38.8675C25.1768 38.412 24.7439 38.0938 24.2411 38.0127C23.7385 37.9258 23.2254 38.0916 22.8686 38.4559L20.8139 40.5027V37.9921C20.8139 37.5722 20.6469 37.1697 20.3501 36.8729L17.6479 34.1707V31.4495L27.3707 30.0612C27.5794 30.031 27.7803 29.9593 27.9611 29.8507L35.8762 25.1017C36.0982 24.9683 36.2842 24.7823 36.4175 24.5603L40.8658 17.1471L45.0592 15.7477C45.5327 15.5924 45.9043 15.221 46.0596 14.7473L47.6426 9.99825C47.9169 9.16816 47.4663 8.27278 46.6362 7.99852C46.5597 7.97319 46.4811 7.9538 46.4016 7.94035L37.2391 6.41275L35.6292 5.33947C45.5909 2.09708 56.3802 2.49838 66.0735 6.47132L63.1814 7.91502H57.223C56.62 7.91165 56.0678 8.25121 55.7983 8.79042L52.6322 15.1224C52.2422 15.9048 52.5602 16.8554 53.3426 17.2454C53.4093 17.2787 53.4782 17.3072 53.5488 17.3307L58.2978 18.9137C58.5828 19.0105 58.8895 19.0228 59.1811 18.9486L65.0667 17.4779L69.3788 18.9137C69.4406 18.9359 69.5041 18.9529 69.5688 18.9644L77.4838 20.5474C77.8954 20.6313 78.3236 20.547 78.6727 20.3131L82.2756 17.9101C84.0487 19.8851 85.6422 22.0142 87.0372 24.2722L79.2489 26.8683L70.8162 25.4626L68.0301 21.2835C67.7381 20.8456 67.2473 20.5816 66.721 20.579H57.223C56.8031 20.579 56.4006 20.7461 56.1038 21.0429L51.3548 25.7919C51.0022 26.1443 50.8361 26.6423 50.9068 27.1358L52.4898 38.2169C52.5695 38.7648 52.9297 39.2312 53.4396 39.4469L64.5206 44.1959C64.838 44.3334 65.1922 44.3617 65.5274 44.2766L71.1803 42.863L74.636 45.171V50.6561C74.6332 50.9011 74.6874 51.1433 74.7943 51.3637L80.968 63.6937V69.6522C80.968 70.0721 81.135 70.4745 81.4318 70.7713L84.7435 74.0846C70.0566 93.661 42.2804 97.6248 22.704 82.9377Z"
    stroke="currentColor" stroke-width="2" mask="url(#path-1-outside-1_1_230)"/>
</svg>
