<svg viewBox="0 0 104 46" fill="none" xmlns="http://www.w3.org/2000/svg">
  <g clip-path="url(#clip0_301_56619)">
    <path
      d="M14.5535 7.83013V0.781818H19.6632V19.8313H14.5535V12.4782H5.10972V19.8313H0V0.781818H5.10972V7.83013H14.5535Z"
      fill="currentColor"/>
    <path
      d="M38.2675 0.781818H43.9189L35.3001 12.1099V19.8313H30.1904V12.1734L21.5347 0.781818H27.1862L32.7268 8.07143L38.2675 0.781818Z"
      fill="currentColor"/>
    <path
      d="M56.1787 0.781818C57.7137 0.781818 59.0435 1.05274 60.168 1.5946C61.2925 2.13645 62.1544 2.90266 62.7536 3.89323C63.3529 4.88381 63.6524 6.03525 63.6524 7.34754C63.6524 8.65984 63.3529 9.81128 62.7536 10.8019C62.1544 11.7924 61.2925 12.5586 60.168 13.1005C59.0435 13.6423 57.7137 13.9133 56.1787 13.9133H50.9213V19.8313H45.8115V0.781818H56.1787ZM55.8832 9.69698C56.7041 9.69698 57.3443 9.48956 57.8039 9.0747C58.2637 8.65984 58.4935 8.08413 58.4935 7.34754C58.4935 6.61096 58.2637 6.03524 57.8039 5.62039C57.3443 5.20553 56.7041 4.99811 55.8832 4.99811H50.9213V9.69698H55.8832Z"
      fill="currentColor"/>
    <path
      d="M71.2374 12.2242L70.7203 15.5642H82.4172V19.8313H65.2412L66.6448 10.3066L65.2412 0.781818H82.2941V5.04891H70.7203L71.2374 8.38892H81.58V12.2242H71.2374Z"
      fill="currentColor"/>
    <path
      d="M98.0778 19.8313L93.1282 12.9735H90.4563V19.8313H85.3467V0.781818H96.3171C97.7126 0.781818 98.9397 1.03581 99.9986 1.5438C101.066 2.05179 101.891 2.77143 102.474 3.70274C103.064 4.62558 103.36 5.69236 103.36 6.90305C103.36 7.85977 103.171 8.7318 102.794 9.51919C102.416 10.2981 101.874 10.9585 101.168 11.5003C100.471 12.0422 99.6457 12.4358 98.6934 12.6814L104 19.8313H98.0778ZM90.4563 4.69331V9.1128H95.6153C96.4197 9.1128 97.0518 8.91806 97.5114 8.52862C97.9712 8.13916 98.201 7.5973 98.201 6.90305C98.201 6.20881 97.9712 5.66696 97.5114 5.2775C97.06 4.88804 96.428 4.69331 95.6153 4.69331H90.4563Z"
      fill="currentColor"/>
    <path
      d="M5.28772 38.1338C5.40466 38.9381 5.8808 39.573 6.71615 40.0387C7.55149 40.4959 8.65414 40.7245 10.0241 40.7245C11.3105 40.7245 12.3129 40.5552 13.0313 40.2165C13.7581 39.8779 14.1215 39.3953 14.1215 38.7687C14.1215 38.4301 14.0296 38.1507 13.8458 37.9305C13.662 37.7019 13.3487 37.5157 12.906 37.3718C12.4716 37.2278 11.866 37.1177 11.0892 37.0416L7.60579 36.7114C5.04129 36.4743 3.16594 35.8902 1.97976 34.9589C0.80193 34.0191 0.213009 32.7152 0.213009 31.0473C0.213009 29.752 0.588915 28.6471 1.34072 27.7328C2.09253 26.8099 3.15341 26.1114 4.52338 25.6372C5.90168 25.1548 7.51807 24.9135 9.37252 24.9135C11.1601 24.9135 12.7599 25.1758 14.1715 25.7008C15.5833 26.2257 16.6984 26.9623 17.5171 27.9105C18.3441 28.8588 18.7993 29.9552 18.8829 31.1998H13.5951C13.5033 30.514 13.0773 29.9763 12.3171 29.5869C11.5653 29.189 10.5504 28.99 9.27229 28.99C8.0861 28.99 7.1547 29.1508 6.47807 29.4726C5.8098 29.7943 5.47566 30.2515 5.47566 30.8442C5.47566 31.3098 5.68449 31.6739 6.10216 31.9364C6.51983 32.1903 7.25076 32.3724 8.29494 32.4824L12.0415 32.8507C13.8207 33.02 15.245 33.3121 16.3142 33.7269C17.3835 34.1419 18.1603 34.7091 18.6449 35.4288C19.1293 36.1484 19.3715 37.0585 19.3715 38.1592C19.3715 39.4799 18.979 40.644 18.1938 41.6516C17.4085 42.6506 16.3017 43.4253 14.8732 43.9756C13.4449 44.5259 11.795 44.8011 9.92385 44.8011C7.99422 44.8011 6.28594 44.5259 4.79904 43.9756C3.31213 43.4169 2.151 42.6336 1.31566 41.6262C0.480316 40.6187 0.0417671 39.4545 0 38.1338H5.28772Z"
      fill="currentColor"/>
    <path
      d="M32.5099 25.3325C34.0719 25.3325 35.4252 25.6035 36.5696 26.1453C37.714 26.6871 38.5911 27.4534 39.2009 28.4439C39.8108 29.4345 40.1156 30.5859 40.1156 31.8982C40.1156 33.2105 39.8108 34.362 39.2009 35.3525C38.5911 36.3431 37.714 37.1093 36.5696 37.6512C35.4252 38.193 34.0719 38.464 32.5099 38.464H27.1595V44.382H21.9595V25.3325H32.5099ZM32.2092 34.2477C33.0444 34.2477 33.6961 34.0403 34.1639 33.6254C34.6317 33.2105 34.8656 32.6348 34.8656 31.8982C34.8656 31.1616 34.6317 30.5859 34.1639 30.1711C33.6961 29.7562 33.0444 29.5488 32.2092 29.5488H27.1595V34.2477H32.2092Z"
      fill="currentColor"/>
    <path
      d="M62.4325 44.382H56.8942L55.3279 40.7118H45.6171L44.0508 44.382H38.5L47.0581 25.3325H53.887L62.4325 44.382ZM50.4662 29.3456L47.4215 36.4828H53.5236L50.4662 29.3456Z"
      fill="currentColor"/>
    <path
      d="M83.9619 36.4066C83.7782 38.0745 83.2102 39.5435 82.2578 40.8134C81.3055 42.0749 80.0483 43.057 78.4863 43.7597C76.9242 44.454 75.1575 44.8011 73.1861 44.8011C71.0225 44.8011 69.1138 44.3862 67.4598 43.5565C65.8059 42.7269 64.5236 41.5626 63.613 40.0641C62.7108 38.5571 62.2598 36.8215 62.2598 34.8573C62.2598 32.893 62.7108 31.1616 63.613 29.6631C64.5236 28.1561 65.8059 26.9877 67.4598 26.158C69.1138 25.3283 71.0225 24.9135 73.1861 24.9135C75.1575 24.9135 76.9242 25.2648 78.4863 25.9675C80.0483 26.6618 81.3055 27.6438 82.2578 28.9138C83.2102 30.1753 83.7782 31.64 83.9619 33.3079H78.7369C78.4863 32.1056 77.8807 31.1659 76.92 30.4886C75.9594 29.8113 74.7105 29.4726 73.1735 29.4726C72.0124 29.4726 71.0058 29.6927 70.1538 30.133C69.31 30.5647 68.6585 31.187 68.1991 31.9998C67.748 32.8041 67.5225 33.7566 67.5225 34.8573C67.5225 35.9579 67.748 36.9146 68.1991 37.7274C68.6585 38.5316 69.31 39.154 70.1538 39.5942C71.0058 40.0261 72.0124 40.2419 73.1735 40.2419C74.7272 40.2419 75.9802 39.916 76.9325 39.264C77.8932 38.6037 78.4947 37.6512 78.7369 36.4066H83.9619Z"
      fill="currentColor"/>
    <path
      d="M91.9107 36.7749L91.3844 40.1149H103.288V44.382H85.8086L87.237 34.8573L85.8086 25.3325H103.163V29.5996H91.3844L91.9107 32.9396H102.436V36.7749H91.9107Z"
      fill="currentColor"/>
  </g>
  <defs>
    <clipPath id="clip0_301_56619">
      <rect width="104" height="44.4364" fill="white" transform="translate(0 0.781818)"/>
    </clipPath>
  </defs>
</svg>
