<svg viewBox="0 0 25 24" fill="none" xmlns="http://www.w3.org/2000/svg">
  <path fill-rule="evenodd" clip-rule="evenodd"
        d="M22.0629 5.43882C22.308 6.06915 22.4791 6.79658 22.5257 7.85467C22.5725 8.9167 22.5764 9.25516 22.5764 11.9587C22.5764 14.6624 22.5646 15.0008 22.518 16.0629C22.4714 17.121 22.3001 17.8446 22.0552 18.4787C21.5377 19.8168 20.4797 20.8749 19.1413 21.3923C18.5111 21.6375 17.7838 21.8086 16.7257 21.8552C15.6636 21.902 15.3252 21.9136 12.6216 21.9136C9.91788 21.9136 9.57931 21.902 8.51741 21.8552C7.45921 21.8086 6.73578 21.6375 6.10167 21.3923C5.44028 21.1434 4.83735 20.7505 4.33938 20.2447C3.83359 19.7467 3.4408 19.1477 3.18796 18.4787C2.94283 17.8484 2.77159 17.121 2.72497 16.0629C2.67825 15.0008 2.66663 14.6624 2.66663 11.9587C2.66663 9.25516 2.67825 8.9167 2.72889 7.85071C2.7755 6.79262 2.94663 6.06915 3.19176 5.43502C3.4408 4.7737 3.83359 4.17072 4.33938 3.67277C4.83735 3.16309 5.43637 2.77407 6.10558 2.52122C6.73578 2.27626 7.46313 2.105 8.52122 2.05835C9.58333 2.0117 9.92168 2 12.6254 2C15.329 2 15.6674 2.0117 16.7334 2.0623C17.7915 2.10895 18.5152 2.28006 19.1491 2.52517C19.8104 2.77407 20.4134 3.16704 20.9113 3.67277C21.421 4.17072 21.81 4.76976 22.0629 5.43882ZM20.3902 17.8326C20.5263 17.4825 20.6898 16.9572 20.7326 15.9848C20.7792 14.9344 20.7909 14.6232 20.7909 11.9662C20.7909 9.30917 20.7792 8.99418 20.7326 7.94385C20.6898 6.97512 20.5263 6.44615 20.3902 6.09604C20.2307 5.66416 19.9778 5.27515 19.6471 4.95224C19.3282 4.62158 18.9352 4.36871 18.5035 4.20932C18.1534 4.07316 17.6282 3.90981 16.6557 3.86695C15.6091 3.8203 15.2941 3.80859 12.6332 3.80859C9.9763 3.80859 9.6612 3.8203 8.61083 3.86695C7.64227 3.90981 7.11311 4.07316 6.76303 4.20932C6.33112 4.36871 5.94213 4.62158 5.61942 4.95224C5.28476 5.27135 5.03192 5.66416 4.87231 6.09604C4.73616 6.44615 4.57285 6.97131 4.53015 7.94385C4.48332 8.99027 4.4718 9.30917 4.4718 11.9662C4.4718 14.6232 4.48332 14.9383 4.53015 15.9887C4.57285 16.9572 4.73616 17.4864 4.87231 17.8365C5.03192 18.2683 5.28476 18.6573 5.6154 18.9802C5.93442 19.3108 6.32732 19.5637 6.75911 19.7233C7.1092 19.8594 7.63434 20.0227 8.60691 20.0654C9.65338 20.1123 9.97239 20.1238 12.6294 20.1238C15.2864 20.1238 15.6014 20.1123 16.6517 20.0654C17.6205 20.0227 18.1494 19.8594 18.4996 19.7233C19.3671 19.3886 20.0556 18.7001 20.3902 17.8326Z"
        fill="currentColor"/>
  <path fill-rule="evenodd" clip-rule="evenodd"
        d="M22.0629 5.43882C22.308 6.06915 22.4791 6.79658 22.5257 7.85467C22.5725 8.9167 22.5764 9.25516 22.5764 11.9587C22.5764 14.6624 22.5646 15.0008 22.518 16.0629C22.4714 17.121 22.3001 17.8446 22.0552 18.4787C21.5377 19.8168 20.4797 20.8749 19.1413 21.3923C18.5111 21.6375 17.7838 21.8086 16.7257 21.8552C15.6636 21.902 15.3252 21.9136 12.6216 21.9136C9.91788 21.9136 9.57931 21.902 8.51741 21.8552C7.45921 21.8086 6.73578 21.6375 6.10167 21.3923C5.44028 21.1434 4.83735 20.7505 4.33938 20.2447C3.83359 19.7467 3.4408 19.1477 3.18796 18.4787C2.94283 17.8484 2.77159 17.121 2.72497 16.0629C2.67825 15.0008 2.66663 14.6624 2.66663 11.9587C2.66663 9.25516 2.67825 8.9167 2.72889 7.85071C2.7755 6.79262 2.94663 6.06915 3.19176 5.43502C3.4408 4.7737 3.83359 4.17072 4.33938 3.67277C4.83735 3.16309 5.43637 2.77407 6.10558 2.52122C6.73578 2.27626 7.46313 2.105 8.52122 2.05835C9.58333 2.0117 9.92168 2 12.6254 2C15.329 2 15.6674 2.0117 16.7334 2.0623C17.7915 2.10895 18.5152 2.28006 19.1491 2.52517C19.8104 2.77407 20.4134 3.16704 20.9113 3.67277C21.421 4.17072 21.81 4.76976 22.0629 5.43882ZM20.3902 17.8326C20.5263 17.4825 20.6898 16.9572 20.7326 15.9848C20.7792 14.9344 20.7909 14.6232 20.7909 11.9662C20.7909 9.30917 20.7792 8.99418 20.7326 7.94385C20.6898 6.97512 20.5263 6.44615 20.3902 6.09604C20.2307 5.66416 19.9778 5.27515 19.6471 4.95224C19.3282 4.62158 18.9352 4.36871 18.5035 4.20932C18.1534 4.07316 17.6282 3.90981 16.6557 3.86695C15.6091 3.8203 15.2941 3.80859 12.6332 3.80859C9.9763 3.80859 9.6612 3.8203 8.61083 3.86695C7.64227 3.90981 7.11311 4.07316 6.76303 4.20932C6.33112 4.36871 5.94213 4.62158 5.61942 4.95224C5.28476 5.27135 5.03192 5.66416 4.87231 6.09604C4.73616 6.44615 4.57285 6.97131 4.53015 7.94385C4.48332 8.99027 4.4718 9.30917 4.4718 11.9662C4.4718 14.6232 4.48332 14.9383 4.53015 15.9887C4.57285 16.9572 4.73616 17.4864 4.87231 17.8365C5.03192 18.2683 5.28476 18.6573 5.6154 18.9802C5.93442 19.3108 6.32732 19.5637 6.75911 19.7233C7.1092 19.8594 7.63434 20.0227 8.60691 20.0654C9.65338 20.1123 9.97239 20.1238 12.6294 20.1238C15.2864 20.1238 15.6014 20.1123 16.6517 20.0654C17.6205 20.0227 18.1494 19.8594 18.4996 19.7233C19.3671 19.3886 20.0556 18.7001 20.3902 17.8326Z"
        fill="currentColor" fill-opacity="0.2"/>
  <path fill-rule="evenodd" clip-rule="evenodd"
        d="M7.5094 11.9588C7.5094 9.13446 9.80084 6.84326 12.6249 6.84326C15.4493 6.84326 17.7405 9.13446 17.7405 11.9588C17.7405 14.7832 15.4493 17.0744 12.6249 17.0744C9.80084 17.0744 7.5094 14.7832 7.5094 11.9588ZM9.30676 11.9589C9.30676 13.7912 10.7928 15.2772 12.625 15.2772C14.4574 15.2772 15.9433 13.7912 15.9433 11.9589C15.9433 10.1266 14.4574 8.64062 12.625 8.64062C10.7928 8.64062 9.30676 10.1266 9.30676 11.9589Z"
        fill="currentColor"/>
  <path fill-rule="evenodd" clip-rule="evenodd"
        d="M7.5094 11.9588C7.5094 9.13446 9.80084 6.84326 12.6249 6.84326C15.4493 6.84326 17.7405 9.13446 17.7405 11.9588C17.7405 14.7832 15.4493 17.0744 12.6249 17.0744C9.80084 17.0744 7.5094 14.7832 7.5094 11.9588ZM9.30676 11.9589C9.30676 13.7912 10.7928 15.2772 12.625 15.2772C14.4574 15.2772 15.9433 13.7912 15.9433 11.9589C15.9433 10.1266 14.4574 8.64062 12.625 8.64062C10.7928 8.64062 9.30676 10.1266 9.30676 11.9589Z"
        fill="currentColor" fill-opacity="0.2"/>
  <path
    d="M19.1372 6.64102C19.1372 7.30052 18.6025 7.83526 17.9429 7.83526C17.2834 7.83526 16.7487 7.30052 16.7487 6.64102C16.7487 5.98136 17.2834 5.44678 17.9429 5.44678C18.6025 5.44678 19.1372 5.98136 19.1372 6.64102Z"
    fill="currentColor"/>
  <path
    d="M19.1372 6.64102C19.1372 7.30052 18.6025 7.83526 17.9429 7.83526C17.2834 7.83526 16.7487 7.30052 16.7487 6.64102C16.7487 5.98136 17.2834 5.44678 17.9429 5.44678C18.6025 5.44678 19.1372 5.98136 19.1372 6.64102Z"
    fill="currentColor" fill-opacity="0.2"/>
</svg>
