<svg width="38" height="38" viewBox="0 0 38 38" fill="none" xmlns="http://www.w3.org/2000/svg">

  <path
    d="M29.4108 1.03658C29.4194 0.852451 29.3323 0.667416 29.2099 0.551012C29.0738 0.426847 28.8892 0.370914 28.7068 0.397475C26.9098 0.662529 25.2714 1.14133 23.8309 1.82204C23.2894 2.0849 22.8051 2.44305 22.3938 2.88504C20.4873 4.92145 12.8466 13.1267 0.877982 25.9896C0.358354 26.548 0.389958 27.4256 0.948412 27.9452L4.02935 30.812C4.5878 31.3316 5.46537 31.3 5.985 30.7415L27.5282 7.58865C27.9282 7.15879 28.2451 6.66587 28.4773 6.10256C28.9972 4.69711 29.3118 2.99312 29.4108 1.03658ZM12.8326 14.9476C13.6456 14.9205 14.4894 15.2435 15.1347 15.8438C15.1428 15.8514 15.1513 15.8593 15.159 15.8673C15.7817 16.4576 16.1308 17.2329 16.1435 18.0217L14.7537 19.5154C14.7322 19.487 14.7184 19.454 14.6915 19.4289L11.5359 16.4928C11.5089 16.4676 11.4759 16.4571 11.4461 16.4378C11.9214 15.9261 12.3828 15.4301 12.8326 14.9476ZM10.6382 17.3051C10.6596 17.3335 10.673 17.366 10.6995 17.3907L13.8551 20.3269C13.8821 20.352 13.9159 20.3634 13.9458 20.3827L13.2989 21.0779C13.2775 21.0495 13.2637 21.0166 13.2367 20.9915L10.0811 18.0553C10.0542 18.0302 10.0207 18.0192 9.99093 17.9999C10.2093 17.7652 10.4244 17.5349 10.6382 17.3051ZM24.3615 2.93065C25.4857 2.39953 26.7511 1.99978 28.1324 1.7397C28.0056 3.24919 27.7358 4.56784 27.3343 5.6557C27.1664 6.06068 26.929 6.43037 26.6294 6.75231L17.1979 16.8886C16.982 16.1793 16.577 15.5181 16.0052 14.9759C15.4103 14.3981 14.6616 14.0035 13.879 13.824C18.8985 8.4331 22.1415 4.95314 23.2919 3.72402C23.6002 3.39177 23.9617 3.12409 24.3615 2.93065ZM4.86569 29.9131L1.78475 27.0464C1.7218 26.9878 1.71827 26.8897 1.77684 26.8268C4.47079 23.9316 6.943 21.2746 9.18262 18.8686C9.20407 18.8969 9.21741 18.9295 9.24438 18.9546L12.4 21.8908C12.4269 21.9159 12.4608 21.9272 12.4906 21.9466L5.0853 29.9052C5.02673 29.9682 4.92864 29.9717 4.86569 29.9131Z"
    fill="currentColor"/>
  <path
    d="M36.5939 7.72074C36.6029 7.53702 36.5208 7.35659 36.3935 7.23558C36.2573 7.11142 36.0728 7.05548 35.8908 7.08246C34.0955 7.34659 32.4566 7.82497 31.014 8.50706C30.4712 8.77127 29.9874 9.12897 29.5774 9.56961C27.6708 11.606 20.0301 19.8113 8.06151 32.6742C7.54188 33.2326 7.57304 34.1098 8.13149 34.6294L11.2129 37.4965C11.7718 38.0166 12.6493 37.985 13.169 37.4265L34.7122 14.2736C35.1109 13.8451 35.4269 13.3522 35.6604 12.7876C36.1816 11.3808 36.4953 9.67596 36.5939 7.72074ZM20.0157 21.6327C20.8435 21.6059 21.721 21.9476 22.3425 22.551C22.9652 23.1413 23.3143 23.9166 23.327 24.7054L21.9372 26.1991C21.9157 26.1707 21.9019 26.1378 21.875 26.1126L18.7185 23.1756C18.692 23.1509 18.6585 23.14 18.6292 23.121C19.1045 22.6111 19.5664 22.1156 20.0157 21.6327ZM17.8213 23.9902C17.8428 24.0185 17.8556 24.0506 17.8822 24.0753L21.0386 27.0123C21.0656 27.0375 21.099 27.0484 21.1293 27.0682L20.4825 27.7633C20.461 27.735 20.4473 27.702 20.4203 27.6769L17.2638 24.7399C17.2368 24.7148 17.2039 24.7042 17.174 24.6849C17.3933 24.4501 17.6079 24.2195 17.8213 23.9902ZM31.5446 9.6148C32.6696 9.08278 33.9355 8.68345 35.3155 8.42385C35.1886 9.93248 34.9193 11.2515 34.517 12.3394C34.3482 12.7471 34.1112 13.1163 33.8129 13.4369L24.3814 23.5731C24.1655 22.8639 23.7601 22.2023 23.1882 21.6601C22.5974 21.086 21.8466 20.6902 21.0613 20.5099C26.0811 15.1177 29.3242 11.6377 30.475 10.4082C30.7829 10.0772 31.1453 9.80953 31.5446 9.6148ZM12.0492 36.5977L8.96783 33.7306C8.90533 33.6724 8.9018 33.5743 8.96037 33.5114C11.6543 30.6161 14.1265 27.9592 16.3657 25.5536C16.3872 25.5819 16.4001 25.6141 16.427 25.6392L19.5835 28.5762C19.6105 28.6013 19.6439 28.6123 19.6742 28.632L12.2689 36.5907C12.2107 36.6532 12.1122 36.6563 12.0492 36.5977Z"
    fill="currentColor"/>

</svg>
