<svg viewBox="0 0 18 14" fill="none" xmlns="http://www.w3.org/2000/svg">
  <path
    d="M9.92773 6.57617C9.79883 6.57617 9.69336 6.53516 9.61133 6.45312C9.5293 6.36719 9.48828 6.26367 9.48828 6.14258C9.48828 6.01367 9.5293 5.9082 9.61133 5.82617C9.69336 5.74414 9.79883 5.70312 9.92773 5.70312H14.1699C14.2949 5.70312 14.3984 5.74414 14.4805 5.82617C14.5664 5.9082 14.6094 6.01367 14.6094 6.14258C14.6094 6.26367 14.5664 6.36719 14.4805 6.45312C14.3984 6.53516 14.2949 6.57617 14.1699 6.57617H9.92773ZM9.92773 8.74414C9.79883 8.74414 9.69336 8.70508 9.61133 8.62695C9.5293 8.54492 9.48828 8.44141 9.48828 8.31641C9.48828 8.19141 9.5293 8.08594 9.61133 8C9.69336 7.91406 9.79883 7.87109 9.92773 7.87109H13.0332C13.1582 7.87109 13.2637 7.91406 13.3496 8C13.4355 8.08594 13.4785 8.19141 13.4785 8.31641C13.4785 8.44141 13.4355 8.54492 13.3496 8.62695C13.2637 8.70508 13.1582 8.74414 13.0332 8.74414H9.92773ZM7.66016 9.93359H6.96289L4.94141 11.7383C4.76562 11.8945 4.61719 12.0098 4.49609 12.084C4.375 12.1621 4.24219 12.2012 4.09766 12.2012C3.89453 12.2012 3.73633 12.1348 3.62305 12.002C3.51367 11.8691 3.45898 11.6895 3.45898 11.4629V9.93359H3.17773C2.5957 9.93359 2.10547 9.83008 1.70703 9.62305C1.30859 9.41602 1.00586 9.11328 0.798828 8.71484C0.595703 8.3125 0.494141 7.82617 0.494141 7.25586V2.76172C0.494141 2.19141 0.595703 1.70703 0.798828 1.30859C1.00586 0.90625 1.30859 0.601562 1.70703 0.394531C2.10547 0.183594 2.5957 0.078125 3.17773 0.078125H10.7246C11.3066 0.078125 11.7969 0.183594 12.1953 0.394531C12.5938 0.601562 12.8945 0.90625 13.0977 1.30859C13.3047 1.70703 13.4082 2.19141 13.4082 2.76172V3.72266H12.4648V2.76758C12.4648 2.19727 12.3223 1.76367 12.0371 1.4668C11.752 1.16992 11.3145 1.02148 10.7246 1.02148H3.17773C2.58398 1.02148 2.14453 1.16992 1.85938 1.4668C1.57812 1.76367 1.4375 2.19727 1.4375 2.76758V7.25C1.4375 7.82031 1.57812 8.25391 1.85938 8.55078C2.14453 8.84375 2.58398 8.99023 3.17773 8.99023H3.89844C4.05859 8.99023 4.17188 9.02539 4.23828 9.0957C4.30469 9.16211 4.33789 9.27539 4.33789 9.43555V11.1289L6.21289 9.27148C6.32227 9.1543 6.42773 9.07812 6.5293 9.04297C6.63086 9.00781 6.76367 8.99023 6.92773 8.99023H7.37305L7.66016 9.93359ZM9.30664 11.3457C8.74414 11.3457 8.27148 11.2461 7.88867 11.0469C7.50977 10.8516 7.22266 10.5645 7.02734 10.1855C6.83203 9.80273 6.73438 9.33398 6.73438 8.7793V5.60938C6.73438 5.05469 6.83203 4.58594 7.02734 4.20312C7.22266 3.82031 7.50977 3.53125 7.88867 3.33594C8.27148 3.13672 8.74414 3.03711 9.30664 3.03711H14.75C15.3125 3.03711 15.7832 3.13672 16.1621 3.33594C16.5449 3.53125 16.834 3.82031 17.0293 4.20312C17.2246 4.58594 17.3223 5.05469 17.3223 5.60938V8.7793C17.3223 9.33398 17.2246 9.80273 17.0293 10.1855C16.834 10.5645 16.5449 10.8516 16.1621 11.0469C15.7832 11.2461 15.3125 11.3457 14.75 11.3457H14.627V12.752C14.627 12.9746 14.5723 13.1523 14.4629 13.2852C14.3535 13.418 14.1973 13.4844 13.9941 13.4844C13.8535 13.4844 13.7227 13.4453 13.6016 13.3672C13.4844 13.2891 13.3379 13.1738 13.1621 13.0215L11.2051 11.3457H9.30664ZM9.32422 10.4023H11.1699C11.291 10.4023 11.3965 10.4219 11.4863 10.4609C11.5762 10.4961 11.6699 10.5586 11.7676 10.6484L13.748 12.418V10.8828C13.748 10.7188 13.791 10.5977 13.877 10.5195C13.9668 10.4414 14.0742 10.4023 14.1992 10.4023H14.7383C15.3086 10.4023 15.7246 10.2676 15.9863 9.99805C16.248 9.72461 16.3789 9.3125 16.3789 8.76172V5.62109C16.3789 5.07422 16.248 4.66406 15.9863 4.39062C15.7246 4.11719 15.3086 3.98047 14.7383 3.98047H9.32422C8.75 3.98047 8.33203 4.11719 8.07031 4.39062C7.8125 4.66406 7.68359 5.07422 7.68359 5.62109V8.76758C7.68359 9.31445 7.8125 9.72461 8.07031 9.99805C8.33203 10.2676 8.75 10.4023 9.32422 10.4023Z"
    fill="currentColor" fill-opacity="0.5"/>
</svg>
