<svg viewBox="0 0 38 21" fill="none" xmlns="http://www.w3.org/2000/svg">
  <path fill-rule="evenodd" clip-rule="evenodd"
        d="M18.9864 4.66651C14.921 4.6653 11.9784 5.2327 6.83308 6.28636C6.69147 6.31547 6.56462 6.38994 6.47368 6.49735C6.38274 6.60475 6.33321 6.7386 6.33334 6.87657V16.73C6.33336 16.89 6.40009 17.0434 6.51886 17.1565C6.63763 17.2696 6.79871 17.3332 6.96668 17.3332H14.6298C14.7977 17.3331 14.9588 17.2696 15.0775 17.1565L19 13.422L22.9225 17.1565C23.0412 17.2696 23.2023 17.3331 23.3703 17.3332H31.0333C31.2013 17.3332 31.3624 17.2696 31.4812 17.1565C31.5999 17.0434 31.6667 16.89 31.6667 16.73V6.87775C31.6667 6.73945 31.6168 6.60535 31.5254 6.4979C31.434 6.39045 31.3065 6.31618 31.1645 6.28754C26.0462 5.25186 23.1106 4.66835 18.9864 4.66651ZM18.9864 5.87285C22.8288 5.87466 25.6548 6.41656 30.4 7.3749V16.1268H23.6325L19.7335 12.4124C19.334 12.0319 18.666 12.0319 18.2665 12.4124L14.3675 16.1268H7.60001V7.37372C12.3686 6.40071 15.1982 5.87171 18.9864 5.87285Z"
        fill="currentColor"/>
  <path fill-rule="evenodd" clip-rule="evenodd"
        d="M18.9867 0.864262C14.0794 0.862227 10.4898 1.56476 4.30469 2.94901C3.37899 3.15662 2.71455 3.987 2.71429 4.93569V6.29283H2.03571C0.919457 6.29283 0 7.21229 0 8.32855V13.7571C0 14.8734 0.919457 15.7928 2.03571 15.7928H2.71429V18.5071C2.71439 19.6233 3.63382 20.5427 4.75 20.5428H15.7092C15.8891 20.5428 16.0617 20.4713 16.189 20.344L19 17.5343L21.811 20.344C21.9383 20.4713 22.1108 20.5428 22.2908 20.5428H33.25C34.3662 20.5427 35.2856 19.6233 35.2857 18.5071V15.7928H35.9643C37.0805 15.7928 38 14.8734 38 13.7571V8.32855C38 7.21229 37.0805 6.29283 35.9643 6.29283H35.2857V4.93569C35.2856 3.98393 34.6169 3.15224 33.6874 2.94769C27.5425 1.59274 23.9676 0.866379 18.9867 0.864262ZM18.9867 2.22141C23.837 2.22344 27.2592 2.91989 33.3958 4.27302C33.7107 4.34233 33.9285 4.61323 33.9286 4.93569V6.97141V15.1143V18.5071C33.9285 18.8899 33.6328 19.1857 33.25 19.1857H22.5718L19.7687 16.3813C19.3502 15.9628 18.6498 15.9628 18.2313 16.3813L15.4282 19.1857H4.75C4.36718 19.1857 4.07147 18.8899 4.07143 18.5071V15.1143V6.97141V4.93569C4.07152 4.61433 4.28798 4.34468 4.60156 4.27435C10.7734 2.89308 14.2083 2.2194 18.9867 2.22141ZM2.03571 7.64998H2.71429V14.4357H2.03571C1.65291 14.4357 1.35714 14.1399 1.35714 13.7571V8.32855C1.35714 7.94575 1.65291 7.64998 2.03571 7.64998ZM35.2857 7.64998H35.9643C36.3471 7.64998 36.6429 7.94575 36.6429 8.32855V13.7571C36.6429 14.1399 36.3471 14.4357 35.9643 14.4357H35.2857V7.64998Z"
        fill="currentColor"/>
</svg>
