<svg viewBox="0 0 48 48" fill="none" xmlns="http://www.w3.org/2000/svg">
  <path
    d="M24 48C37.2548 48 48 37.2548 48 24C48 10.7452 37.2548 0 24 0C10.7452 0 0 10.7452 0 24C0 37.2548 10.7452 48 24 48Z"
    fill="currentColor"/>
  <path
    d="M37.8327 33.3928C37.1345 33.491 33.72 33.3928 33.5427 33.3928C32.66 33.4041 31.8085 33.067 31.1727 32.4546C30.4527 31.7619 29.8091 30.9982 29.1054 30.2728C28.8973 30.0525 28.6721 29.8492 28.4318 29.6646C27.87 29.231 27.3136 29.3291 27.0491 29.9919C26.8424 30.708 26.6982 31.4408 26.6182 32.1819C26.5718 32.8528 26.1463 33.2728 25.3936 33.3191C24.9272 33.3437 24.4609 33.3519 24 33.341C22.3202 33.3302 20.6669 32.9218 19.1754 32.1491C17.5616 31.2499 16.1556 30.0204 15.0491 28.541C13.23 26.2173 11.7763 23.6646 10.4782 21.0328C10.41 20.9019 9.07906 18.071 9.04634 17.9373C8.92634 17.49 9.04634 17.0619 9.41452 16.9146C9.64907 16.8246 14.0345 16.9146 14.1082 16.9146C14.4342 16.9118 14.7526 17.0128 15.0174 17.203C15.2822 17.3933 15.4796 17.6629 15.5809 17.9728C16.3916 20.0486 17.5015 21.9946 18.8754 23.7491C19.0677 23.9838 19.2927 24.1895 19.5436 24.36C19.9009 24.6028 20.2391 24.5182 20.3863 24.1064C20.5609 23.535 20.6635 22.9441 20.6918 22.3473C20.7163 21.1637 20.6918 20.3837 20.6263 19.2028C20.5827 18.4446 20.3154 17.7791 19.1972 17.5664C18.8536 17.5064 18.8236 17.2228 19.0445 16.9391C19.5054 16.35 20.1354 16.2573 20.8418 16.2219C21.8945 16.1619 22.9472 16.2028 24 16.2219H24.2291C24.6872 16.2202 25.1443 16.2668 25.5927 16.361C25.8578 16.4146 26.0984 16.5524 26.2788 16.7539C26.4592 16.9554 26.5696 17.2098 26.5936 17.4791C26.6475 17.7778 26.6703 18.0812 26.6618 18.3846C26.6345 19.6773 26.5718 20.9673 26.5582 22.26C26.5456 22.7719 26.5923 23.2835 26.6972 23.7846C26.8472 24.4719 27.3191 24.6437 27.7882 24.1473C28.3956 23.5056 28.9527 22.8182 29.4545 22.091C30.3419 20.7656 31.074 19.3426 31.6363 17.85C31.9418 17.0837 32.1818 16.9146 33 16.9146H37.6527C37.9294 16.9097 38.2052 16.9465 38.4709 17.0237C38.5649 17.0484 38.6529 17.0923 38.7292 17.1525C38.8055 17.2128 38.8685 17.2882 38.9144 17.374C38.9602 17.4597 38.9878 17.554 38.9955 17.651C39.0032 17.7479 38.9908 17.8454 38.9591 17.9373C38.73 18.9573 38.1791 19.8273 37.5954 20.6646C36.6491 22.0064 35.6509 23.3128 34.6827 24.6328C34.5603 24.8078 34.4482 24.99 34.3472 25.1782C33.9818 25.8355 34.0091 26.2037 34.5382 26.7519C35.3836 27.6191 36.2863 28.4346 37.1018 29.3291C37.7005 29.9795 38.2408 30.6813 38.7163 31.4264C39.3136 32.351 38.9454 33.2346 37.8327 33.3928Z"
    fill="white"/>
</svg>
