<svg viewBox="0 0 38 38" fill="none" xmlns="http://www.w3.org/2000/svg">
  <path
    d="M36.2852 4.37965L33.5801 1.6746C32.4852 0.579648 31.0038 0 29.458 0C27.9122 0 26.4953 0.579648 25.336 1.73895L21.4071 6.37621C20.6986 7.21347 19.9902 7.98638 19.2173 8.75922L8.33262 19.6441C7.5597 20.417 6.78686 21.1254 5.9496 21.8339L1.69872 25.3763C0.603847 26.4712 0.0241241 27.9526 0.0241241 29.4983C0.0241241 31.0441 0.603773 32.5254 1.69872 33.6204L4.40385 36.3254C5.49872 37.4204 6.98005 38 8.52588 38C10.0716 38 11.553 37.4204 12.7123 36.261L16.1903 32.0745C16.8988 31.2373 17.6072 30.4643 18.3801 29.6914L29.2005 18.7423C29.9734 17.9694 30.7462 17.261 31.5836 16.5525L36.2853 12.5593C38.5394 10.3051 38.5394 6.63389 36.2852 4.37965ZM35.4479 11.722L30.8107 15.6509C29.9734 16.3594 29.1361 17.1322 28.3632 17.9051L17.4784 28.7898C16.7055 29.5627 15.9326 30.4 15.2241 31.2373L11.7462 35.4237C10.8445 36.3254 9.74953 36.7763 8.52581 36.7763C7.36651 36.7763 6.20714 36.2611 5.36988 35.4237L2.66483 32.7187C1.76314 31.817 1.31226 30.722 1.31226 29.4983C1.31226 28.2746 1.76314 27.1796 2.60041 26.3424L6.78686 22.8C7.62412 22.0915 8.46146 21.3187 9.2343 20.5458L20.1191 9.66105C20.9563 8.88814 21.6648 8.05088 22.3089 7.21362L26.2377 2.57636C27.1394 1.67467 28.2344 1.22379 29.4581 1.22379C30.6818 1.22379 31.8411 1.73902 32.6784 2.57636L35.4479 5.41025C36.2852 6.24751 36.7361 7.34246 36.7361 8.56618C36.736 9.78982 36.2852 10.8848 35.4479 11.722Z"
    fill="currentColor"/>
  <path
    d="M22.4377 10.7559C20.2479 10.7559 18.4445 12.7525 18.3801 15.2644C18.3157 17.7762 20.1835 20.0949 22.5022 20.2236C22.631 20.2236 22.6954 20.2236 22.7598 20.2236C23.597 20.2236 24.4987 19.9016 25.0784 19.2575C26.0445 18.4203 26.5598 17.1321 26.5598 15.7152C26.5598 14.2982 25.9801 12.8813 25.014 11.9152C24.2411 11.1423 23.3394 10.7559 22.4377 10.7559ZM24.3055 18.227C23.8547 18.6779 23.275 18.9355 22.6309 18.8711C21.0208 18.7422 19.6682 17.0677 19.7326 15.1999C19.797 13.3966 21.0208 11.9796 22.5021 11.9796C23.0173 11.9796 23.6614 12.3016 24.1767 12.7525C24.8852 13.5254 25.336 14.6203 25.336 15.6508C25.336 16.6813 24.9496 17.6474 24.3055 18.227Z"
    fill="currentColor"/>
  <path
    d="M14.7733 18.8713C12.2615 18.9357 10.2648 20.7391 10.2648 22.9289C10.2648 23.8306 10.6513 24.7323 11.4241 25.5052C12.3902 26.4713 13.8071 27.051 15.2241 27.051C16.6411 27.051 17.9292 26.4713 18.7665 25.6341C19.475 24.9256 19.797 23.9595 19.7326 22.9934C19.6038 20.6748 17.2852 18.7426 14.7733 18.8713ZM17.8648 24.668C17.2852 25.312 16.3191 25.6985 15.2885 25.6985C14.258 25.6985 13.0987 25.2476 12.3902 24.5392C11.875 24.024 11.6173 23.4442 11.6173 22.8646C11.6173 21.3833 13.0343 20.1595 14.8377 20.0951C14.9021 20.0951 14.9021 20.0951 14.9665 20.0951C16.7699 20.0951 18.38 21.4477 18.5089 22.9934C18.5089 23.5731 18.3157 24.1527 17.8648 24.668Z"
    fill="currentColor"/>
  <path
    d="M30.8106 3.47773C30.3597 2.9625 29.5224 2.9625 29.0072 3.47773L28.1055 4.37941C27.8479 4.63703 27.7191 4.95906 27.7191 5.2811C27.7191 5.60313 27.8479 5.92517 28.1055 6.18278L31.7767 9.85394C32.0343 10.1115 32.3563 10.2404 32.6784 10.2404C33.0648 10.2404 33.3869 10.1115 33.58 9.85394L34.4817 8.95225C34.7393 8.69464 34.8682 8.3726 34.8682 8.05057C34.8682 7.72853 34.7393 7.4065 34.4817 7.14888L30.8106 3.47773ZM32.6784 8.95233L29.0072 5.28117L29.9089 4.37949L33.58 8.05064L32.6784 8.95233Z"
    fill="currentColor"/>
  <path
    d="M6.20722 28.0812C5.75634 27.566 4.91907 27.566 4.40385 28.0812L3.50216 28.9829C3.24455 29.2405 3.11571 29.5626 3.11571 29.8846C3.11571 30.2066 3.24455 30.5287 3.50216 30.7863L7.17332 34.4574C7.43093 34.7151 7.75297 34.8439 8.075 34.8439C8.46146 34.8439 8.7835 34.7151 8.97669 34.4574L9.87837 33.5558C10.136 33.2982 10.2648 32.9761 10.2648 32.6541C10.2648 32.332 10.136 32.01 9.87837 31.7524L6.20722 28.0812ZM8.13943 33.6203L4.46827 29.9491L5.36995 29.0474L9.04111 32.7186L8.13943 33.6203Z"
    fill="currentColor"/>
</svg>
