<svg viewBox="0 0 25 24" fill="none" xmlns="http://www.w3.org/2000/svg">
  <path
    d="M23.1666 12C23.1666 6.20039 18.4662 1.5 12.6666 1.5C6.86702 1.5 2.16663 6.20039 2.16663 12C2.16663 17.7996 6.86702 22.5 12.6666 22.5C12.7281 22.5 12.7897 22.5 12.8512 22.496V14.3256H10.5953V11.6965H12.8512V9.76055C12.8512 7.51699 14.2212 6.29473 16.2227 6.29473C17.1825 6.29473 18.0069 6.36445 18.2447 6.39726V8.74336H16.8666C15.7797 8.74336 15.5665 9.26016 15.5665 10.019V11.6924H18.1709L17.8304 14.3215H15.5665V22.094C19.9552 20.8348 23.1666 16.7948 23.1666 12Z"
    fill="currentColor"/>
  <path
    d="M23.1666 12C23.1666 6.20039 18.4662 1.5 12.6666 1.5C6.86702 1.5 2.16663 6.20039 2.16663 12C2.16663 17.7996 6.86702 22.5 12.6666 22.5C12.7281 22.5 12.7897 22.5 12.8512 22.496V14.3256H10.5953V11.6965H12.8512V9.76055C12.8512 7.51699 14.2212 6.29473 16.2227 6.29473C17.1825 6.29473 18.0069 6.36445 18.2447 6.39726V8.74336H16.8666C15.7797 8.74336 15.5665 9.26016 15.5665 10.019V11.6924H18.1709L17.8304 14.3215H15.5665V22.094C19.9552 20.8348 23.1666 16.7948 23.1666 12Z"
    fill="currentColor" fill-opacity="0.2"/>
</svg>
