<svg viewBox="0 0 36 33" fill="none" xmlns="http://www.w3.org/2000/svg">
  <path
    d="M10.3681 20.9582L10.8747 24.1248L25.9167 26.1304M10.3681 20.9582L4.54167 1.1665H1.37475L3.74974 16.2082C3.74974 16.2082 2.0045 17.9631 1.37474 19.3748C-0.660063 23.9363 6.125 32.0415 6.125 32.0415H31.4583L34.6247 27.2915L31.4583 26.8693M10.3681 20.9582L19.5833 11.4582L22.75 13.8332L14.0417 24.1248M25.9167 26.1304L28.2917 18.5832H33.0417L31.4583 26.8693M25.9167 26.1304L31.4583 26.8693"
    stroke="currentColor" stroke-width="1.4"/>
  <path
    d="M9.38333 27.2915C9.38333 28.2166 8.63341 28.9665 7.70833 28.9665C6.78326 28.9665 6.03333 28.2166 6.03333 27.2915C6.03333 26.3664 6.78326 25.6165 7.70833 25.6165C8.63341 25.6165 9.38333 26.3664 9.38333 27.2915Z"
    stroke="currentColor" stroke-width="1.4"/>
</svg>
