<svg viewBox="0 0 34 38" fill="none" xmlns="http://www.w3.org/2000/svg">
  <path
    d="M8.43244 27.692C8.17818 27.6337 8.01453 27.3865 8.06904 27.1313L9.56277 20.1352C9.61719 19.8801 9.86853 19.7172 10.1234 19.7718C10.3786 19.8262 10.5414 20.0772 10.4868 20.3325L8.99312 27.3286C8.94568 27.5505 8.74736 27.7641 8.43244 27.692Z"
    fill="currentColor"/>
  <path
    d="M25.007 27.3286L23.5132 20.3325C23.4587 20.0773 23.6215 19.8263 23.8766 19.7718C24.1315 19.7172 24.3828 19.8801 24.4373 20.1352L25.931 27.1313C25.9855 27.3864 25.8217 27.6325 25.5676 27.692C25.2906 27.7568 25.0543 27.5505 25.007 27.3286Z"
    fill="currentColor"/>
  <path d="M16.5275 34.0682H17.4725L17.4724 32.2616H16.5276L16.5275 34.0682Z" fill="currentColor"/>
  <path fill-rule="evenodd" clip-rule="evenodd"
        d="M31.4356 14.3922C30.0829 9.37866 28.2972 6.26771 28.2764 6.24419C28.2229 6.18315 27.0008 4.81906 24.8338 4.23759C24.6331 1.69139 21.5363 0 16.9999 0C12.4636 0 9.36701 1.69139 9.16623 4.23759C6.99919 4.81906 5.77711 6.18315 5.72354 6.24419C5.70275 6.26771 3.91707 9.37875 2.56441 14.3922C1.31861 19.0102 0.143307 26.3228 1.61974 34.9347C1.62069 34.9398 2.01299 37.5963 2.01299 37.5963C2.04701 37.8281 2.24599 37.9999 2.48032 37.9999H5.70323C5.93869 37.9999 6.13824 37.8265 6.17103 37.5934L6.53848 34.9877L6.93589 34.1614L7.04663 34.6458C7.09576 34.8605 7.28681 35.0129 7.50715 35.0129H26.4927C26.7131 35.0129 26.9041 34.8606 26.9533 34.6458L27.064 34.1614L27.4614 34.9877L27.8289 37.5934C27.8617 37.8265 28.0612 37.9999 28.2967 37.9999H31.5196C31.7539 37.9999 31.9529 37.8281 31.9869 37.5963C31.9869 37.5963 32.3792 34.9398 32.3801 34.9347C33.8567 26.3228 32.6814 19.0102 31.4356 14.3922ZM24.7536 5.19861C26.1254 5.60707 27.0486 6.37014 27.4037 6.70471L26.3494 11.3505H17.4725V9.47787L18.4449 7.47146C19.473 7.55055 22.5515 7.66412 24.0204 6.35634C24.3867 6.03008 24.6316 5.64231 24.7536 5.19861ZM7.63981 12.2953H16.5275V31.3167L16.5276 32.2616H17.4724V31.3167V12.2953H26.3601C28.3552 20.2344 27.0445 29.3529 26.7218 31.3167L26.529 32.2616L26.4306 32.6924L26.2147 33.6372L26.1161 34.0682H17.4725H16.5275H7.88386L7.78532 33.6372L7.56942 32.6924L7.47096 32.2616L7.27821 31.3167C6.95545 29.3529 5.64484 20.2344 7.63981 12.2953ZM16.9999 8.28621L16.2823 6.80543C16.2631 6.75413 16.2362 6.70499 16.1981 6.66125C15.977 6.40642 15.7524 6.1343 15.5354 5.85916L14.8316 4.9143C14.3631 4.24326 14.0324 3.66142 14.0324 3.40839C14.0324 2.87794 15.2527 2.50737 16.9999 2.50737C18.7472 2.50737 19.9675 2.87794 19.9675 3.40839C19.9675 3.66151 19.6368 4.24336 19.1683 4.9143L18.4643 5.85916C18.2473 6.1343 18.0227 6.40642 17.8016 6.66125C17.7636 6.70499 17.7366 6.75413 17.7174 6.80543L16.9999 8.28621ZM16.9999 0.944858C21.0625 0.944858 23.8998 2.40788 23.8998 4.50281C23.8998 4.97071 23.7339 5.346 23.3927 5.65006C22.4642 6.47719 20.4424 6.60446 19.1143 6.5626C19.8685 5.62398 20.9123 4.18496 20.9123 3.40829C20.9123 2.21796 19.5229 1.56242 16.9999 1.56242C14.477 1.56242 13.0876 2.21796 13.0876 3.40829C13.0876 4.18496 14.1314 5.62398 14.8855 6.5626C13.5572 6.60427 11.5357 6.47719 10.6072 5.65006C10.266 5.346 10.1001 4.97071 10.1001 4.50281C10.1001 2.40788 12.9374 0.944858 16.9999 0.944858ZM9.24635 5.1987C9.36852 5.64231 9.61324 6.03018 9.97965 6.35634C11.4485 7.66402 14.527 7.55045 15.5552 7.47146L16.5276 9.47787V11.3505H7.65067L6.59621 6.70367C6.94912 6.36881 7.86695 5.60811 9.24635 5.1987ZM5.29278 37.0551H2.8884L2.83086 36.6636L2.69187 35.7187L2.63442 35.3273L2.48542 34.3825C1.14193 26.1258 2.27084 19.1214 3.46751 14.6724C4.30767 11.5485 5.29524 9.22087 5.90637 7.93378L6.78717 11.8148C4.47246 20.6962 6.27411 31.0912 6.40856 31.8357C6.41055 31.8554 6.59829 32.6839 6.59829 32.6839L5.78118 34.3825L5.53646 35.3273L5.34806 36.6636L5.29278 37.0551ZM31.1116 37.0551H28.7072L28.652 36.6636L28.5188 35.7187L28.4636 35.3273L28.2188 34.3825L27.4018 32.6839C27.4018 32.6839 27.5895 31.8552 27.5915 31.8356C27.726 31.0911 29.5276 20.6961 27.2129 11.8147L28.0939 7.93284C28.7022 9.2134 29.6837 11.5261 30.5233 14.6383C31.7255 19.0942 32.8603 26.1108 31.5146 34.3825L31.3657 35.3273L31.3081 35.7187L31.1692 36.6636L31.1116 37.0551Z"
        fill="currentColor"/>
</svg>
