<svg viewBox="0 0 33 32" fill="none" xmlns="http://www.w3.org/2000/svg">
  <circle cx="16.7207" cy="16" r="16" fill="#EBEBEB"/>
  <path
    d="M11.7842 23.8564C11.1689 23.8564 10.6562 23.4683 10.6562 22.6113V10.0869C10.6562 8.46094 11.5205 7.58203 13.1392 7.58203H20.3096C21.9209 7.58203 22.7852 8.46094 22.7852 10.0869V22.6113C22.7852 23.4683 22.2798 23.8564 21.6572 23.8564C21.2031 23.8564 20.8955 23.6514 20.2656 23.0068L16.8306 19.5059C16.7939 19.4692 16.7573 19.4399 16.7207 19.4399C16.6841 19.4399 16.6475 19.4692 16.6108 19.5059L13.1758 23.0068C12.5386 23.6514 12.2383 23.8564 11.7842 23.8564ZM12.502 21.2783L16.1787 17.5942C16.3765 17.3892 16.5449 17.3086 16.7207 17.3086C16.8965 17.3086 17.0649 17.3892 17.2627 17.5942L20.9395 21.2783C21.0347 21.3662 21.1079 21.3296 21.1079 21.2051V10.2334C21.1079 9.60352 20.793 9.25928 20.1265 9.25928H13.3149C12.6484 9.25928 12.3335 9.60352 12.3335 10.2334V21.2051C12.3335 21.3296 12.4141 21.3735 12.502 21.2783Z"
    fill="black" fill-opacity="0.3"/>
</svg>
