<svg viewBox="0 0 98 97" fill="none" xmlns="http://www.w3.org/2000/svg">
  <mask id="path-1-outside-1_1_231" maskUnits="userSpaceOnUse" x="0.805176" y="-1" width="97" height="99"
        fill="currentColor">
    <rect fill="white" x="0.805176" y="-1" width="97" height="99"/>
    <path
      d="M56.4438 25.1402C55.4232 26.2455 54.4134 27.4734 53.494 28.6853C51.7081 31.0504 50.3103 33.2828 49.9064 34.3883C49.6299 35.1587 49.6885 35.9721 50.0126 36.6683C50.3315 37.3594 50.9161 37.9281 51.6869 38.2043C52.4574 38.4861 53.2707 38.4274 53.9617 38.1034C54.6528 37.7792 55.2213 37.1944 55.5031 36.429C55.907 35.3183 56.2737 32.7084 56.4224 29.7589C56.4969 28.2441 56.5128 26.6496 56.4438 25.1402ZM91.3368 8.02031C91.778 8.96644 91.8577 10.0826 91.475 11.1403L87.6483 21.6587C89.2587 23.1949 90.901 25.1243 92.32 26.9953C94.2601 29.5569 95.8122 32.0816 96.3063 33.4316C96.8485 34.9357 96.7368 36.5141 96.115 37.8536C95.4879 39.1931 94.3505 40.2934 92.8464 40.8409C91.3422 41.3884 89.7637 41.2766 88.4244 40.6496C87.085 40.0279 85.9846 38.8903 85.4373 37.3862C84.9483 36.0362 84.5124 33.1022 84.353 29.892C84.2362 27.6011 84.2521 25.1458 84.4752 22.9877L84.3264 22.9346L73.2817 53.2888L85.0225 85.5562L89.8381 83.8024C90.5662 83.5365 91.3687 83.9139 91.6345 84.6422C91.9002 85.3702 91.5228 86.1729 90.7949 86.4386L85.9848 88.1872L87.6432 92.7529C87.9089 93.4813 87.5315 94.2836 86.8034 94.5495C86.0754 94.8152 85.2727 94.4378 85.0068 93.7099L83.3485 89.1495L78.5332 90.9036C77.8049 91.164 77.0024 90.7918 76.7367 90.0638C76.4709 89.3355 76.8483 88.5277 77.5765 88.2673L82.3865 86.5132L71.7884 57.387L61.1847 86.5125L66.0003 88.2666C66.7284 88.527 67.1058 89.3348 66.8401 90.063C66.5744 90.7913 65.7719 91.1633 65.0437 90.9028L60.2283 89.1488L58.5699 93.7091C58.3042 94.4372 57.5017 94.8146 56.7734 94.5488C56.0454 94.2829 55.6679 93.4806 55.9336 92.7521L57.5919 88.1865L52.7817 86.4379C52.0535 86.1722 51.6762 85.3695 51.9419 84.6414C52.2024 83.9132 53.0101 83.5357 53.7385 83.8016L58.5539 85.5555L70.2948 53.2881L59.2449 22.9339L59.096 22.9869C59.3191 25.1451 59.335 27.6004 59.2237 29.8913C59.0589 33.1014 58.6284 36.0354 58.1394 37.3854C57.5919 38.8896 56.4865 40.0271 55.147 40.6489C53.813 41.2761 52.229 41.3876 50.7303 40.8401C49.226 40.2926 48.0886 39.1924 47.4614 37.8529C46.8397 36.5136 46.7229 34.9352 47.27 33.4309C47.7644 32.0809 49.3164 29.5562 51.2562 26.9946C52.6702 25.1235 54.3179 23.1943 55.9284 21.6579L52.1015 11.1396C51.7136 10.0819 51.7985 8.96569 52.2395 8.01956C52.7073 7.01513 53.5312 6.28688 54.4932 5.92556C55.4872 5.54794 56.6244 5.55863 57.6663 6.04238C58.6122 6.48356 59.3883 7.28606 59.7762 8.34937L63.922 19.7393C64.1879 20.4673 63.8105 21.2751 63.0822 21.5357L61.8811 21.9714L71.7882 49.1897L81.6901 21.9714L80.4942 21.5357C79.766 21.2751 79.3887 20.4673 79.649 19.7393L83.8 8.34937C84.1827 7.28606 84.9641 6.48356 85.9102 6.04238C86.9519 5.55338 88.0946 5.54794 89.0885 5.92556C90.0453 6.29288 90.8692 7.01588 91.3368 8.02031ZM90.0772 28.6853C89.1629 27.4734 88.1531 26.2455 87.1327 25.1402C87.0637 26.6496 87.0796 28.2441 87.1539 29.7591C87.3027 32.7088 87.6695 35.3184 88.0734 36.4292C88.3497 37.1946 88.9184 37.7792 89.6148 38.1036C90.3057 38.4277 91.1187 38.4862 91.8895 38.2044C92.6602 37.9281 93.2397 37.3594 93.5637 36.6684C93.8879 35.9723 93.9464 35.1589 93.6648 34.3884C93.2664 33.2827 91.8684 31.0504 90.0772 28.6853ZM27.6044 57.2483C26.8231 57.2483 26.1959 56.6209 26.1959 55.845C26.1959 55.0689 26.8231 54.4363 27.6044 54.4363H29.2895V19.1235C29.2895 14.0796 30.0389 9.48206 31.2455 6.123C32.6058 2.33869 34.6522 0 37.0651 0C38.3088 0 39.4464 0.600563 40.4403 1.69031C41.3065 2.63644 42.0772 3.99694 42.7203 5.66062C42.9969 6.38344 42.6406 7.19644 41.9178 7.473C41.1952 7.75462 40.382 7.39312 40.1054 6.67575C39.5847 5.331 38.9947 4.2735 38.362 3.57731C37.9104 3.08288 37.4692 2.81194 37.0651 2.81194C35.9649 2.81194 34.8275 4.43831 33.8815 7.06913C32.7813 10.1254 32.101 14.3828 32.101 19.1237V20.8403L37.0653 25.8049L42.0295 20.8403V19.1237C42.0295 17.9544 41.9924 16.8276 41.9125 15.7594C41.8329 14.6484 41.7159 13.575 41.5619 12.5439C41.4502 11.7786 41.9817 11.061 42.7471 10.9494C43.5176 10.8377 44.2299 11.3691 44.3416 12.1401C44.5062 13.2242 44.6285 14.3722 44.7134 15.5629C44.7985 16.7321 44.8411 17.9228 44.8411 19.1239V54.4367H46.5314C47.3075 54.4367 47.9399 55.0693 47.9399 55.8454C47.9399 56.6214 47.3075 57.2486 46.5314 57.2486H44.8411V94.5971C44.8411 95.3732 44.2139 96.0002 43.438 96.0002H30.698C29.9219 96.0002 29.2895 95.373 29.2895 94.5971V57.2483H27.6044ZM3.21368 57.2483C2.4378 57.2483 1.80518 56.6209 1.80518 55.845C1.80518 55.0689 2.4378 54.4363 3.21368 54.4363H4.89855V19.1235C4.89855 14.0796 5.64818 9.48206 6.85455 6.123C8.21542 2.33869 10.2616 0 12.6745 0C15.0929 0 17.1393 2.33869 18.4998 6.123C19.7066 9.48206 20.4558 14.0794 20.4558 19.1235V54.4363H22.1409C22.9169 54.4363 23.5494 55.0689 23.5494 55.845C23.5494 56.6211 22.9169 57.2483 22.1409 57.2483H20.4558V94.5967C20.4558 95.3728 19.8234 95.9998 19.0473 95.9998H6.30724C5.53118 95.9998 4.89874 95.3726 4.89874 94.5967V89.133C4.89874 88.3569 5.53136 87.7296 6.30724 87.7296C7.08311 87.7296 7.7103 88.3571 7.7103 89.133V93.1882H17.6388V32.544L13.6685 36.5089C13.121 37.0614 12.2334 37.0614 11.6806 36.5089L7.7103 32.544V82.7657C7.7103 83.5416 7.08311 84.1686 6.30724 84.1686C5.53136 84.1686 4.89874 83.5414 4.89874 82.7657V57.2483H3.21368ZM35.662 48.7016C35.662 47.9203 36.2892 47.2929 37.0651 47.2929C37.8412 47.2929 38.4736 47.9203 38.4736 48.7016V62.9882C38.4736 63.7643 37.8412 64.3914 37.0651 64.3914C36.2891 64.3914 35.662 63.7641 35.662 62.9882V48.7016ZM11.2713 48.7016C11.2713 47.9203 11.8985 47.2929 12.6744 47.2929C13.4559 47.2929 14.0829 47.9203 14.0829 48.7016V62.9882C14.0829 63.7643 13.4557 64.3914 12.6744 64.3914C11.8983 64.3914 11.2713 63.7641 11.2713 62.9882V48.7016ZM32.101 28.563L37.0653 33.5274L42.0295 28.563V24.8214L38.0592 28.7916C37.5117 29.3391 36.6189 29.3391 36.0714 28.7916L32.101 24.8214V28.563ZM42.0294 32.544L38.059 36.5089C37.5115 37.0614 36.6187 37.0614 36.0712 36.5089L32.1009 32.544V93.1884H42.0294V32.544ZM7.7103 28.563L12.6745 33.5274L17.6388 28.563V24.8214L13.6685 28.7916C13.121 29.3391 12.2334 29.3391 11.6806 28.7916L7.7103 24.8214V28.563ZM7.7103 20.8401L12.6745 25.8047L17.6388 20.8401V19.1235C17.6388 14.3826 16.9638 10.1252 15.8635 7.06894C14.9174 4.43812 13.7802 2.81175 12.6745 2.81175C11.5745 2.81175 10.4369 4.43812 9.49099 7.06894C8.39092 10.1252 7.71049 14.3826 7.71049 19.1235V20.8401H7.7103ZM56.4757 8.59463C56.146 8.4405 55.7952 8.42981 55.4872 8.54681C55.1894 8.66362 54.9344 8.88675 54.7855 9.20588C54.6474 9.50888 54.6207 9.85425 54.7377 10.1839L58.405 20.2558L60.8077 19.3841L57.1402 9.30694C57.023 8.98256 56.7785 8.73281 56.4757 8.59463ZM87.0956 8.59463C86.7978 8.73281 86.5533 8.98256 86.4365 9.30675L82.769 19.3839L85.1712 20.2556L88.8387 10.1837C88.9556 9.85406 88.9289 9.50869 88.7907 9.20569C88.6473 8.90812 88.4135 8.68481 88.1371 8.568C87.8184 8.42981 87.4464 8.42981 87.0956 8.59463Z"/>
  </mask>
  <path
    d="M56.4438 25.1402C55.4232 26.2455 54.4134 27.4734 53.494 28.6853C51.7081 31.0504 50.3103 33.2828 49.9064 34.3883C49.6299 35.1587 49.6885 35.9721 50.0126 36.6683C50.3315 37.3594 50.9161 37.9281 51.6869 38.2043C52.4574 38.4861 53.2707 38.4274 53.9617 38.1034C54.6528 37.7792 55.2213 37.1944 55.5031 36.429C55.907 35.3183 56.2737 32.7084 56.4224 29.7589C56.4969 28.2441 56.5128 26.6496 56.4438 25.1402ZM91.3368 8.02031C91.778 8.96644 91.8577 10.0826 91.475 11.1403L87.6483 21.6587C89.2587 23.1949 90.901 25.1243 92.32 26.9953C94.2601 29.5569 95.8122 32.0816 96.3063 33.4316C96.8485 34.9357 96.7368 36.5141 96.115 37.8536C95.4879 39.1931 94.3505 40.2934 92.8464 40.8409C91.3422 41.3884 89.7637 41.2766 88.4244 40.6496C87.085 40.0279 85.9846 38.8903 85.4373 37.3862C84.9483 36.0362 84.5124 33.1022 84.353 29.892C84.2362 27.6011 84.2521 25.1458 84.4752 22.9877L84.3264 22.9346L73.2817 53.2888L85.0225 85.5562L89.8381 83.8024C90.5662 83.5365 91.3687 83.9139 91.6345 84.6422C91.9002 85.3702 91.5228 86.1729 90.7949 86.4386L85.9848 88.1872L87.6432 92.7529C87.9089 93.4813 87.5315 94.2836 86.8034 94.5495C86.0754 94.8152 85.2727 94.4378 85.0068 93.7099L83.3485 89.1495L78.5332 90.9036C77.8049 91.164 77.0024 90.7918 76.7367 90.0638C76.4709 89.3355 76.8483 88.5277 77.5765 88.2673L82.3865 86.5132L71.7884 57.387L61.1847 86.5125L66.0003 88.2666C66.7284 88.527 67.1058 89.3348 66.8401 90.063C66.5744 90.7913 65.7719 91.1633 65.0437 90.9028L60.2283 89.1488L58.5699 93.7091C58.3042 94.4372 57.5017 94.8146 56.7734 94.5488C56.0454 94.2829 55.6679 93.4806 55.9336 92.7521L57.5919 88.1865L52.7817 86.4379C52.0535 86.1722 51.6762 85.3695 51.9419 84.6414C52.2024 83.9132 53.0101 83.5357 53.7385 83.8016L58.5539 85.5555L70.2948 53.2881L59.2449 22.9339L59.096 22.9869C59.3191 25.1451 59.335 27.6004 59.2237 29.8913C59.0589 33.1014 58.6284 36.0354 58.1394 37.3854C57.5919 38.8896 56.4865 40.0271 55.147 40.6489C53.813 41.2761 52.229 41.3876 50.7303 40.8401C49.226 40.2926 48.0886 39.1924 47.4614 37.8529C46.8397 36.5136 46.7229 34.9352 47.27 33.4309C47.7644 32.0809 49.3164 29.5562 51.2562 26.9946C52.6702 25.1235 54.3179 23.1943 55.9284 21.6579L52.1015 11.1396C51.7136 10.0819 51.7985 8.96569 52.2395 8.01956C52.7073 7.01513 53.5312 6.28688 54.4932 5.92556C55.4872 5.54794 56.6244 5.55863 57.6663 6.04238C58.6122 6.48356 59.3883 7.28606 59.7762 8.34937L63.922 19.7393C64.1879 20.4673 63.8105 21.2751 63.0822 21.5357L61.8811 21.9714L71.7882 49.1897L81.6901 21.9714L80.4942 21.5357C79.766 21.2751 79.3887 20.4673 79.649 19.7393L83.8 8.34937C84.1827 7.28606 84.9641 6.48356 85.9102 6.04238C86.9519 5.55338 88.0946 5.54794 89.0885 5.92556C90.0453 6.29288 90.8692 7.01588 91.3368 8.02031ZM90.0772 28.6853C89.1629 27.4734 88.1531 26.2455 87.1327 25.1402C87.0637 26.6496 87.0796 28.2441 87.1539 29.7591C87.3027 32.7088 87.6695 35.3184 88.0734 36.4292C88.3497 37.1946 88.9184 37.7792 89.6148 38.1036C90.3057 38.4277 91.1187 38.4862 91.8895 38.2044C92.6602 37.9281 93.2397 37.3594 93.5637 36.6684C93.8879 35.9723 93.9464 35.1589 93.6648 34.3884C93.2664 33.2827 91.8684 31.0504 90.0772 28.6853ZM27.6044 57.2483C26.8231 57.2483 26.1959 56.6209 26.1959 55.845C26.1959 55.0689 26.8231 54.4363 27.6044 54.4363H29.2895V19.1235C29.2895 14.0796 30.0389 9.48206 31.2455 6.123C32.6058 2.33869 34.6522 0 37.0651 0C38.3088 0 39.4464 0.600563 40.4403 1.69031C41.3065 2.63644 42.0772 3.99694 42.7203 5.66062C42.9969 6.38344 42.6406 7.19644 41.9178 7.473C41.1952 7.75462 40.382 7.39312 40.1054 6.67575C39.5847 5.331 38.9947 4.2735 38.362 3.57731C37.9104 3.08288 37.4692 2.81194 37.0651 2.81194C35.9649 2.81194 34.8275 4.43831 33.8815 7.06913C32.7813 10.1254 32.101 14.3828 32.101 19.1237V20.8403L37.0653 25.8049L42.0295 20.8403V19.1237C42.0295 17.9544 41.9924 16.8276 41.9125 15.7594C41.8329 14.6484 41.7159 13.575 41.5619 12.5439C41.4502 11.7786 41.9817 11.061 42.7471 10.9494C43.5176 10.8377 44.2299 11.3691 44.3416 12.1401C44.5062 13.2242 44.6285 14.3722 44.7134 15.5629C44.7985 16.7321 44.8411 17.9228 44.8411 19.1239V54.4367H46.5314C47.3075 54.4367 47.9399 55.0693 47.9399 55.8454C47.9399 56.6214 47.3075 57.2486 46.5314 57.2486H44.8411V94.5971C44.8411 95.3732 44.2139 96.0002 43.438 96.0002H30.698C29.9219 96.0002 29.2895 95.373 29.2895 94.5971V57.2483H27.6044ZM3.21368 57.2483C2.4378 57.2483 1.80518 56.6209 1.80518 55.845C1.80518 55.0689 2.4378 54.4363 3.21368 54.4363H4.89855V19.1235C4.89855 14.0796 5.64818 9.48206 6.85455 6.123C8.21542 2.33869 10.2616 0 12.6745 0C15.0929 0 17.1393 2.33869 18.4998 6.123C19.7066 9.48206 20.4558 14.0794 20.4558 19.1235V54.4363H22.1409C22.9169 54.4363 23.5494 55.0689 23.5494 55.845C23.5494 56.6211 22.9169 57.2483 22.1409 57.2483H20.4558V94.5967C20.4558 95.3728 19.8234 95.9998 19.0473 95.9998H6.30724C5.53118 95.9998 4.89874 95.3726 4.89874 94.5967V89.133C4.89874 88.3569 5.53136 87.7296 6.30724 87.7296C7.08311 87.7296 7.7103 88.3571 7.7103 89.133V93.1882H17.6388V32.544L13.6685 36.5089C13.121 37.0614 12.2334 37.0614 11.6806 36.5089L7.7103 32.544V82.7657C7.7103 83.5416 7.08311 84.1686 6.30724 84.1686C5.53136 84.1686 4.89874 83.5414 4.89874 82.7657V57.2483H3.21368ZM35.662 48.7016C35.662 47.9203 36.2892 47.2929 37.0651 47.2929C37.8412 47.2929 38.4736 47.9203 38.4736 48.7016V62.9882C38.4736 63.7643 37.8412 64.3914 37.0651 64.3914C36.2891 64.3914 35.662 63.7641 35.662 62.9882V48.7016ZM11.2713 48.7016C11.2713 47.9203 11.8985 47.2929 12.6744 47.2929C13.4559 47.2929 14.0829 47.9203 14.0829 48.7016V62.9882C14.0829 63.7643 13.4557 64.3914 12.6744 64.3914C11.8983 64.3914 11.2713 63.7641 11.2713 62.9882V48.7016ZM32.101 28.563L37.0653 33.5274L42.0295 28.563V24.8214L38.0592 28.7916C37.5117 29.3391 36.6189 29.3391 36.0714 28.7916L32.101 24.8214V28.563ZM42.0294 32.544L38.059 36.5089C37.5115 37.0614 36.6187 37.0614 36.0712 36.5089L32.1009 32.544V93.1884H42.0294V32.544ZM7.7103 28.563L12.6745 33.5274L17.6388 28.563V24.8214L13.6685 28.7916C13.121 29.3391 12.2334 29.3391 11.6806 28.7916L7.7103 24.8214V28.563ZM7.7103 20.8401L12.6745 25.8047L17.6388 20.8401V19.1235C17.6388 14.3826 16.9638 10.1252 15.8635 7.06894C14.9174 4.43812 13.7802 2.81175 12.6745 2.81175C11.5745 2.81175 10.4369 4.43812 9.49099 7.06894C8.39092 10.1252 7.71049 14.3826 7.71049 19.1235V20.8401H7.7103ZM56.4757 8.59463C56.146 8.4405 55.7952 8.42981 55.4872 8.54681C55.1894 8.66362 54.9344 8.88675 54.7855 9.20588C54.6474 9.50888 54.6207 9.85425 54.7377 10.1839L58.405 20.2558L60.8077 19.3841L57.1402 9.30694C57.023 8.98256 56.7785 8.73281 56.4757 8.59463ZM87.0956 8.59463C86.7978 8.73281 86.5533 8.98256 86.4365 9.30675L82.769 19.3839L85.1712 20.2556L88.8387 10.1837C88.9556 9.85406 88.9289 9.50869 88.7907 9.20569C88.6473 8.90812 88.4135 8.68481 88.1371 8.568C87.8184 8.42981 87.4464 8.42981 87.0956 8.59463Z"
    fill="currentColor"/>
  <path
    d="M56.4438 25.1402C55.4232 26.2455 54.4134 27.4734 53.494 28.6853C51.7081 31.0504 50.3103 33.2828 49.9064 34.3883C49.6299 35.1587 49.6885 35.9721 50.0126 36.6683C50.3315 37.3594 50.9161 37.9281 51.6869 38.2043C52.4574 38.4861 53.2707 38.4274 53.9617 38.1034C54.6528 37.7792 55.2213 37.1944 55.5031 36.429C55.907 35.3183 56.2737 32.7084 56.4224 29.7589C56.4969 28.2441 56.5128 26.6496 56.4438 25.1402ZM91.3368 8.02031C91.778 8.96644 91.8577 10.0826 91.475 11.1403L87.6483 21.6587C89.2587 23.1949 90.901 25.1243 92.32 26.9953C94.2601 29.5569 95.8122 32.0816 96.3063 33.4316C96.8485 34.9357 96.7368 36.5141 96.115 37.8536C95.4879 39.1931 94.3505 40.2934 92.8464 40.8409C91.3422 41.3884 89.7637 41.2766 88.4244 40.6496C87.085 40.0279 85.9846 38.8903 85.4373 37.3862C84.9483 36.0362 84.5124 33.1022 84.353 29.892C84.2362 27.6011 84.2521 25.1458 84.4752 22.9877L84.3264 22.9346L73.2817 53.2888L85.0225 85.5562L89.8381 83.8024C90.5662 83.5365 91.3687 83.9139 91.6345 84.6422C91.9002 85.3702 91.5228 86.1729 90.7949 86.4386L85.9848 88.1872L87.6432 92.7529C87.9089 93.4813 87.5315 94.2836 86.8034 94.5495C86.0754 94.8152 85.2727 94.4378 85.0068 93.7099L83.3485 89.1495L78.5332 90.9036C77.8049 91.164 77.0024 90.7918 76.7367 90.0638C76.4709 89.3355 76.8483 88.5277 77.5765 88.2673L82.3865 86.5132L71.7884 57.387L61.1847 86.5125L66.0003 88.2666C66.7284 88.527 67.1058 89.3348 66.8401 90.063C66.5744 90.7913 65.7719 91.1633 65.0437 90.9028L60.2283 89.1488L58.5699 93.7091C58.3042 94.4372 57.5017 94.8146 56.7734 94.5488C56.0454 94.2829 55.6679 93.4806 55.9336 92.7521L57.5919 88.1865L52.7817 86.4379C52.0535 86.1722 51.6762 85.3695 51.9419 84.6414C52.2024 83.9132 53.0101 83.5357 53.7385 83.8016L58.5539 85.5555L70.2948 53.2881L59.2449 22.9339L59.096 22.9869C59.3191 25.1451 59.335 27.6004 59.2237 29.8913C59.0589 33.1014 58.6284 36.0354 58.1394 37.3854C57.5919 38.8896 56.4865 40.0271 55.147 40.6489C53.813 41.2761 52.229 41.3876 50.7303 40.8401C49.226 40.2926 48.0886 39.1924 47.4614 37.8529C46.8397 36.5136 46.7229 34.9352 47.27 33.4309C47.7644 32.0809 49.3164 29.5562 51.2562 26.9946C52.6702 25.1235 54.3179 23.1943 55.9284 21.6579L52.1015 11.1396C51.7136 10.0819 51.7985 8.96569 52.2395 8.01956C52.7073 7.01513 53.5312 6.28688 54.4932 5.92556C55.4872 5.54794 56.6244 5.55863 57.6663 6.04238C58.6122 6.48356 59.3883 7.28606 59.7762 8.34937L63.922 19.7393C64.1879 20.4673 63.8105 21.2751 63.0822 21.5357L61.8811 21.9714L71.7882 49.1897L81.6901 21.9714L80.4942 21.5357C79.766 21.2751 79.3887 20.4673 79.649 19.7393L83.8 8.34937C84.1827 7.28606 84.9641 6.48356 85.9102 6.04238C86.9519 5.55338 88.0946 5.54794 89.0885 5.92556C90.0453 6.29288 90.8692 7.01588 91.3368 8.02031ZM90.0772 28.6853C89.1629 27.4734 88.1531 26.2455 87.1327 25.1402C87.0637 26.6496 87.0796 28.2441 87.1539 29.7591C87.3027 32.7088 87.6695 35.3184 88.0734 36.4292C88.3497 37.1946 88.9184 37.7792 89.6148 38.1036C90.3057 38.4277 91.1187 38.4862 91.8895 38.2044C92.6602 37.9281 93.2397 37.3594 93.5637 36.6684C93.8879 35.9723 93.9464 35.1589 93.6648 34.3884C93.2664 33.2827 91.8684 31.0504 90.0772 28.6853ZM27.6044 57.2483C26.8231 57.2483 26.1959 56.6209 26.1959 55.845C26.1959 55.0689 26.8231 54.4363 27.6044 54.4363H29.2895V19.1235C29.2895 14.0796 30.0389 9.48206 31.2455 6.123C32.6058 2.33869 34.6522 0 37.0651 0C38.3088 0 39.4464 0.600563 40.4403 1.69031C41.3065 2.63644 42.0772 3.99694 42.7203 5.66062C42.9969 6.38344 42.6406 7.19644 41.9178 7.473C41.1952 7.75462 40.382 7.39312 40.1054 6.67575C39.5847 5.331 38.9947 4.2735 38.362 3.57731C37.9104 3.08288 37.4692 2.81194 37.0651 2.81194C35.9649 2.81194 34.8275 4.43831 33.8815 7.06913C32.7813 10.1254 32.101 14.3828 32.101 19.1237V20.8403L37.0653 25.8049L42.0295 20.8403V19.1237C42.0295 17.9544 41.9924 16.8276 41.9125 15.7594C41.8329 14.6484 41.7159 13.575 41.5619 12.5439C41.4502 11.7786 41.9817 11.061 42.7471 10.9494C43.5176 10.8377 44.2299 11.3691 44.3416 12.1401C44.5062 13.2242 44.6285 14.3722 44.7134 15.5629C44.7985 16.7321 44.8411 17.9228 44.8411 19.1239V54.4367H46.5314C47.3075 54.4367 47.9399 55.0693 47.9399 55.8454C47.9399 56.6214 47.3075 57.2486 46.5314 57.2486H44.8411V94.5971C44.8411 95.3732 44.2139 96.0002 43.438 96.0002H30.698C29.9219 96.0002 29.2895 95.373 29.2895 94.5971V57.2483H27.6044ZM3.21368 57.2483C2.4378 57.2483 1.80518 56.6209 1.80518 55.845C1.80518 55.0689 2.4378 54.4363 3.21368 54.4363H4.89855V19.1235C4.89855 14.0796 5.64818 9.48206 6.85455 6.123C8.21542 2.33869 10.2616 0 12.6745 0C15.0929 0 17.1393 2.33869 18.4998 6.123C19.7066 9.48206 20.4558 14.0794 20.4558 19.1235V54.4363H22.1409C22.9169 54.4363 23.5494 55.0689 23.5494 55.845C23.5494 56.6211 22.9169 57.2483 22.1409 57.2483H20.4558V94.5967C20.4558 95.3728 19.8234 95.9998 19.0473 95.9998H6.30724C5.53118 95.9998 4.89874 95.3726 4.89874 94.5967V89.133C4.89874 88.3569 5.53136 87.7296 6.30724 87.7296C7.08311 87.7296 7.7103 88.3571 7.7103 89.133V93.1882H17.6388V32.544L13.6685 36.5089C13.121 37.0614 12.2334 37.0614 11.6806 36.5089L7.7103 32.544V82.7657C7.7103 83.5416 7.08311 84.1686 6.30724 84.1686C5.53136 84.1686 4.89874 83.5414 4.89874 82.7657V57.2483H3.21368ZM35.662 48.7016C35.662 47.9203 36.2892 47.2929 37.0651 47.2929C37.8412 47.2929 38.4736 47.9203 38.4736 48.7016V62.9882C38.4736 63.7643 37.8412 64.3914 37.0651 64.3914C36.2891 64.3914 35.662 63.7641 35.662 62.9882V48.7016ZM11.2713 48.7016C11.2713 47.9203 11.8985 47.2929 12.6744 47.2929C13.4559 47.2929 14.0829 47.9203 14.0829 48.7016V62.9882C14.0829 63.7643 13.4557 64.3914 12.6744 64.3914C11.8983 64.3914 11.2713 63.7641 11.2713 62.9882V48.7016ZM32.101 28.563L37.0653 33.5274L42.0295 28.563V24.8214L38.0592 28.7916C37.5117 29.3391 36.6189 29.3391 36.0714 28.7916L32.101 24.8214V28.563ZM42.0294 32.544L38.059 36.5089C37.5115 37.0614 36.6187 37.0614 36.0712 36.5089L32.1009 32.544V93.1884H42.0294V32.544ZM7.7103 28.563L12.6745 33.5274L17.6388 28.563V24.8214L13.6685 28.7916C13.121 29.3391 12.2334 29.3391 11.6806 28.7916L7.7103 24.8214V28.563ZM7.7103 20.8401L12.6745 25.8047L17.6388 20.8401V19.1235C17.6388 14.3826 16.9638 10.1252 15.8635 7.06894C14.9174 4.43812 13.7802 2.81175 12.6745 2.81175C11.5745 2.81175 10.4369 4.43812 9.49099 7.06894C8.39092 10.1252 7.71049 14.3826 7.71049 19.1235V20.8401H7.7103ZM56.4757 8.59463C56.146 8.4405 55.7952 8.42981 55.4872 8.54681C55.1894 8.66362 54.9344 8.88675 54.7855 9.20588C54.6474 9.50888 54.6207 9.85425 54.7377 10.1839L58.405 20.2558L60.8077 19.3841L57.1402 9.30694C57.023 8.98256 56.7785 8.73281 56.4757 8.59463ZM87.0956 8.59463C86.7978 8.73281 86.5533 8.98256 86.4365 9.30675L82.769 19.3839L85.1712 20.2556L88.8387 10.1837C88.9556 9.85406 88.9289 9.50869 88.7907 9.20569C88.6473 8.90812 88.4135 8.68481 88.1371 8.568C87.8184 8.42981 87.4464 8.42981 87.0956 8.59463Z"
    stroke="currentColor" stroke-width="2" mask="url(#path-1-outside-1_1_231)"/>
</svg>