<svg viewBox="0 0 32 32" fill="none" xmlns="http://www.w3.org/2000/svg">
  <path
    d="M23.2727 12.8182V15C23.2727 17.0253 22.4682 18.9676 21.0361 20.3997C19.604 21.8318 17.6617 22.6364 15.6364 22.6364M15.6364 22.6364C13.6111 22.6364 11.6687 21.8318 10.2366 20.3997C8.80454 18.9676 8 17.0253 8 15V12.8182M15.6364 22.6364V27M11.2727 27H20M15.6364 3C14.7684 3 13.936 3.3448 13.3222 3.95856C12.7084 4.57231 12.3636 5.40475 12.3636 6.27273V15C12.3636 15.868 12.7084 16.7004 13.3222 17.3142C13.936 17.9279 14.7684 18.2727 15.6364 18.2727C16.5043 18.2727 17.3368 17.9279 17.9505 17.3142C18.5643 16.7004 18.9091 15.868 18.9091 15V6.27273C18.9091 5.40475 18.5643 4.57231 17.9505 3.95856C17.3368 3.3448 16.5043 3 15.6364 3Z"
    stroke="currentColor" stroke-width="2" stroke-linecap="round" stroke-linejoin="round"/>
</svg>
