<svg width="39" height="33" viewBox="0 0 39 33" fill="none" xmlns="http://www.w3.org/2000/svg">
  <g clip-path="url(#clip0_2258_931)">
    <path
      d="M27.5545 30.6164C27.3526 30.891 28.4498 31.1714 28.6257 31.1817C30.1 31.2676 31.1814 29.3008 32.6407 28.9421C35.0177 28.3589 35.766 30.5692 37.5827 31.1393C37.9121 31.2431 38.3552 31.0581 38.478 31.5536C38.6437 32.2246 37.8154 32.1689 37.3789 32.1C35.4533 31.7943 34.5319 28.878 32.2284 30.221C30.7645 31.0751 30.3503 32.369 28.2507 32.1236C26.6443 31.9358 25.6299 29.8246 24.0682 29.8557C22.2803 29.8906 21.5869 32.4087 19.0518 32.1236C17.3933 31.9377 16.3723 29.8538 14.8711 29.8538C13.3671 29.8538 12.3173 31.9075 10.7751 32.1151C8.7751 32.3841 7.26459 30.8571 5.90207 29.6302C5.42183 29.432 4.81502 29.8227 4.39063 30.0681C3.56325 30.5466 2.12627 32.0094 1.29795 32.1142C1.06435 32.1435 0.680907 32.1774 0.56271 31.9349C0.280712 31.1695 1.0113 31.2233 1.53063 30.9373C2.36173 30.4805 3.12024 29.6443 3.94576 29.1403C3.98764 28.5722 2.34219 26.7761 3.27567 26.4892L35.5957 24.3931C35.8339 24.3619 36.1038 24.6753 36.0824 24.9008C36.048 25.2736 34.1661 26.6837 33.7687 26.9781C31.8413 28.4089 29.7305 29.6226 27.5536 30.6174L27.5545 30.6164ZM34.0591 25.4341L4.23427 27.4585L4.88296 28.5939C5.05328 28.7024 5.43021 28.5278 5.67405 28.5335C6.57588 28.5533 7.83883 30.1983 8.75742 30.6919C11.8064 32.3284 12.2521 28.826 14.8618 28.8355C16.4793 28.8411 17.1801 30.1313 18.3872 30.8193C20.2198 31.8641 20.9587 30.3427 22.3026 29.482C23.5591 28.6779 24.5344 28.6571 25.8169 29.4084C26.1892 29.6264 26.394 30.0331 26.8128 29.9142C27.4568 29.7311 28.7681 28.9506 29.415 28.591C31.0381 27.6888 32.6584 26.6601 34.0591 25.4331V25.4341Z"
      fill="currentColor"/>
    <path
      d="M5.74159 0.110425C5.84117 0.00849626 6.0664 -0.0160422 6.20694 0.00849627C6.51499 0.0641796 7.68394 0.696516 8.04411 0.886217C15.6702 4.88409 22.7704 13.0252 24.6448 21.6467C24.7202 21.9911 24.9771 23.0463 24.9519 23.3115C24.9212 23.6437 24.5741 23.7617 24.279 23.7183C23.7104 23.6352 22.5275 23.0605 21.8639 22.8642C16.6809 21.3305 12.0991 21.6986 7.29584 24.159C6.72347 24.4525 5.82349 25.402 5.43726 24.4403L5.50985 24.1392C11.1042 17.3251 9.96692 7.91081 5.66714 0.749368C5.59547 0.577599 5.61316 0.240668 5.74066 0.111369L5.74159 0.110425ZM23.7439 22.4177C22.2688 14.5371 16.5962 7.5484 10.0786 3.25229C9.77799 3.05409 7.42335 1.58556 7.29863 1.69032C9.94365 6.80564 11.2168 12.7996 9.5751 18.4604C9.12278 20.0205 8.42849 21.5155 7.57784 22.8877C12.6603 20.3895 18.4976 20.4754 23.7439 22.4168V22.4177Z"
      fill="currentColor"/>
    <path
      d="M27.1134 22.8641C26.9599 22.7159 25.9938 19.3513 25.7909 18.7888C23.9733 13.7575 21.2724 9.19621 17.1923 5.74384C16.8396 5.4456 15.7916 4.86989 15.7572 4.46218C15.6864 3.61749 16.7865 4.07523 17.1969 4.23095C22.4051 6.21007 27.8896 12.9827 30.3904 17.8932C31.0093 19.1078 32.194 21.6296 32.4174 22.9122C32.4565 23.1397 32.4556 23.3171 32.2899 23.4993C32.1931 23.555 32.0786 23.6003 31.967 23.5993C31.4569 23.5946 30.2787 22.8877 29.5425 22.8037C29.1916 22.7641 28.703 22.7726 28.3457 22.7952C27.9883 22.8179 27.3852 23.1246 27.1134 22.8622V22.8641ZM31.1787 22.2289C29.214 16.8635 25.8077 11.769 21.4669 8.09858C21.0379 7.73617 20.5297 7.2907 20.029 7.06042C23.8355 11.1725 26.3149 16.4228 27.7444 21.8477C28.9525 21.6655 30.0367 21.7986 31.1777 22.228L31.1787 22.2289Z"
      fill="currentColor"/>
  </g>
  <defs>
    <clipPath id="clip0_2258_931">
      <rect width="38" height="32.1538" fill="white" transform="translate(0.5)"/>
    </clipPath>
  </defs>
</svg>
