<svg width="572" height="434" viewBox="0 0 572 434" fill="none" xmlns="http://www.w3.org/2000/svg">
  <rect width="572" height="434" fill="url(#paint0_linear_310_91874)"/>
  <path
    d="M453.168 378.421C479.7 332.467 403.804 238.977 283.651 169.606C163.497 100.235 44.5845 81.2527 18.0527 127.207"
    stroke="url(#paint1_linear_310_91874)" stroke-width="4"/>
  <g filter="url(#filter0_d_310_91874)">
    <rect x="109" y="171" width="415" height="82" rx="23" fill="#DFF671" shape-rendering="crispEdges"/>
    <rect x="125" y="184" width="56" height="56" rx="28" fill="#DFF671"/>
    <g clip-path="url(#clip0_310_91874)">
      <path
        d="M135.357 204.895V201.594H137.765V210.517H135.357V207.072H130.908V210.517H128.5V201.594H130.908V204.895H135.357Z"
        fill="#C295FE"/>
      <path
        d="M146.53 201.594H149.193L145.132 206.9V210.517H142.725V206.93L138.646 201.594H141.309L143.92 205.008L146.53 201.594Z"
        fill="#C295FE"/>
      <path
        d="M154.969 201.594C155.693 201.594 156.319 201.721 156.849 201.974C157.379 202.228 157.785 202.587 158.067 203.051C158.35 203.515 158.491 204.054 158.491 204.669C158.491 205.284 158.35 205.823 158.067 206.287C157.785 206.751 157.379 207.11 156.849 207.364C156.319 207.618 155.693 207.745 154.969 207.745H152.492V210.517H150.085V201.594H154.969ZM154.83 205.77C155.217 205.77 155.519 205.672 155.735 205.478C155.952 205.284 156.06 205.014 156.06 204.669C156.06 204.324 155.952 204.054 155.735 203.86C155.519 203.666 155.217 203.569 154.83 203.569H152.492V205.77H154.83Z"
        fill="#C295FE"/>
      <path
        d="M162.064 206.953L161.821 208.518H167.332V210.517H159.239L159.901 206.055L159.239 201.594H167.274V203.592H161.821L162.064 205.157H166.937V206.953H162.064Z"
        fill="#C295FE"/>
      <path
        d="M174.71 210.517L172.378 207.304H171.119V210.517H168.712V201.594H173.881C174.538 201.594 175.116 201.713 175.615 201.951C176.118 202.189 176.507 202.526 176.781 202.962C177.06 203.394 177.199 203.894 177.199 204.461C177.199 204.909 177.11 205.318 176.932 205.686C176.754 206.051 176.499 206.361 176.166 206.614C175.838 206.868 175.449 207.053 175 207.168L177.501 210.517H174.71ZM171.119 203.426V205.496H173.55C173.929 205.496 174.227 205.405 174.443 205.222C174.66 205.04 174.768 204.786 174.768 204.461C174.768 204.136 174.66 203.882 174.443 203.7C174.231 203.517 173.933 203.426 173.55 203.426H171.119Z"
        fill="#C295FE"/>
      <path
        d="M130.992 219.091C131.047 219.468 131.271 219.765 131.665 219.983C132.058 220.197 132.578 220.304 133.223 220.304C133.829 220.304 134.302 220.225 134.64 220.066C134.983 219.908 135.154 219.682 135.154 219.388C135.154 219.23 135.111 219.099 135.024 218.996C134.937 218.889 134.79 218.801 134.581 218.734C134.377 218.667 134.091 218.615 133.725 218.579L132.084 218.425C130.876 218.314 129.992 218.04 129.433 217.604C128.878 217.164 128.601 216.553 128.601 215.772C128.601 215.165 128.778 214.647 129.132 214.219C129.486 213.787 129.986 213.46 130.632 213.237C131.281 213.011 132.043 212.898 132.916 212.898C133.759 212.898 134.512 213.021 135.177 213.267C135.843 213.513 136.368 213.858 136.754 214.302C137.143 214.746 137.358 215.26 137.397 215.843H134.906C134.863 215.522 134.662 215.27 134.304 215.088C133.95 214.901 133.471 214.808 132.869 214.808C132.31 214.808 131.871 214.883 131.553 215.034C131.238 215.185 131.08 215.399 131.08 215.676C131.08 215.895 131.179 216.065 131.376 216.188C131.572 216.307 131.917 216.392 132.409 216.444L134.174 216.616C135.012 216.696 135.683 216.832 136.187 217.027C136.691 217.221 137.057 217.487 137.285 217.824C137.513 218.161 137.627 218.587 137.627 219.103C137.627 219.721 137.443 220.267 137.073 220.739C136.703 221.207 136.181 221.569 135.508 221.827C134.835 222.085 134.058 222.214 133.176 222.214C132.267 222.214 131.462 222.085 130.762 221.827C130.061 221.565 129.514 221.199 129.12 220.727C128.727 220.255 128.52 219.71 128.5 219.091H130.992Z"
        fill="#C295FE"/>
      <path
        d="M143.818 213.094C144.553 213.094 145.191 213.221 145.73 213.474C146.27 213.728 146.683 214.087 146.97 214.551C147.257 215.015 147.401 215.554 147.401 216.169C147.401 216.784 147.257 217.323 146.97 217.787C146.683 218.251 146.27 218.61 145.73 218.864C145.191 219.118 144.553 219.245 143.818 219.245H141.297V222.017H138.847V213.094H143.818ZM143.676 217.27C144.069 217.27 144.376 217.173 144.597 216.978C144.817 216.784 144.927 216.514 144.927 216.169C144.927 215.824 144.817 215.554 144.597 215.36C144.376 215.166 144.069 215.069 143.676 215.069H141.297V217.27H143.676Z"
        fill="#C295FE"/>
      <path
        d="M157.916 222.017H155.306L154.568 220.297H149.993L149.255 222.017H146.64L150.672 213.094H153.889L157.916 222.017ZM152.278 214.974L150.843 218.317H153.718L152.278 214.974Z"
        fill="#C295FE"/>
      <path
        d="M168.06 218.282C167.973 219.063 167.705 219.751 167.257 220.346C166.808 220.937 166.216 221.397 165.48 221.726C164.744 222.051 163.911 222.214 162.982 222.214C161.963 222.214 161.064 222.02 160.284 221.631C159.505 221.242 158.901 220.697 158.472 219.995C158.047 219.289 157.834 218.476 157.834 217.556C157.834 216.636 158.047 215.825 158.472 215.123C158.901 214.417 159.505 213.87 160.284 213.481C161.064 213.093 161.963 212.898 162.982 212.898C163.911 212.898 164.744 213.063 165.48 213.392C166.216 213.717 166.808 214.177 167.257 214.772C167.705 215.363 167.973 216.049 168.06 216.83H165.598C165.48 216.267 165.194 215.827 164.742 215.51C164.289 215.193 163.701 215.034 162.977 215.034C162.429 215.034 161.955 215.137 161.554 215.343C161.156 215.546 160.849 215.837 160.633 216.218C160.42 216.594 160.314 217.041 160.314 217.556C160.314 218.072 160.42 218.52 160.633 218.901C160.849 219.277 161.156 219.569 161.554 219.775C161.955 219.977 162.429 220.078 162.977 220.078C163.709 220.078 164.299 219.926 164.748 219.62C165.2 219.311 165.484 218.865 165.598 218.282H168.06Z"
        fill="#C295FE"/>
      <path
        d="M171.805 218.453L171.557 220.018H177.165V222.017H168.93L169.603 217.555L168.93 213.094H177.106V215.092H171.557L171.805 216.657H176.764V218.453H171.805Z"
        fill="#C295FE"/>
    </g>
    <path
      d="M198.818 218.623C198.448 218.623 198.22 218.386 198.22 217.999V206.318C198.22 205.932 198.448 205.694 198.818 205.694C199.187 205.694 199.415 205.932 199.415 206.318V211.46H206.833V206.318C206.833 205.932 207.07 205.694 207.44 205.694C207.8 205.694 208.037 205.932 208.037 206.318V217.999C208.037 218.386 207.8 218.623 207.44 218.623C207.07 218.623 206.833 218.386 206.833 217.999V212.55H199.415V217.999C199.415 218.386 199.187 218.623 198.818 218.623ZM211.35 221.805C210.77 221.805 210.41 221.603 210.41 221.216C210.41 220.952 210.586 220.776 210.876 220.776C211.06 220.776 211.122 220.803 211.342 220.803C211.992 220.803 212.502 220.416 212.915 219.247L213.161 218.562L209.909 210.054C209.865 209.948 209.847 209.834 209.847 209.746C209.847 209.421 210.094 209.21 210.436 209.21C210.709 209.21 210.885 209.333 210.99 209.641L213.759 217.34H213.785L216.562 209.641C216.677 209.333 216.826 209.21 217.116 209.21C217.45 209.21 217.687 209.43 217.687 209.746C217.687 209.834 217.67 209.948 217.626 210.054L214.198 219.054C213.398 221.181 212.748 221.805 211.35 221.805ZM219.884 221.69C219.541 221.69 219.304 221.436 219.304 221.066V209.799C219.304 209.447 219.533 209.21 219.858 209.21C220.183 209.21 220.403 209.447 220.403 209.799V211.293H220.438C220.939 210.08 222.099 209.21 223.584 209.21C225.896 209.21 227.478 211.091 227.478 213.93C227.478 216.777 225.905 218.649 223.611 218.649C222.134 218.649 220.983 217.806 220.499 216.619H220.464V221.066C220.464 221.436 220.227 221.69 219.884 221.69ZM223.382 217.621C225.149 217.621 226.291 216.162 226.291 213.93C226.291 211.706 225.149 210.238 223.382 210.238C221.651 210.238 220.464 211.732 220.464 213.93C220.464 216.136 221.651 217.621 223.382 217.621ZM233.164 218.649C230.536 218.649 228.945 216.909 228.945 213.974C228.945 211.073 230.563 209.21 233.032 209.21C235.37 209.21 236.987 210.968 236.987 213.508C236.987 213.947 236.732 214.211 236.302 214.211H230.141C230.141 216.355 231.292 217.63 233.111 217.63C234.386 217.63 235.247 217.094 235.845 215.951C235.959 215.775 236.091 215.696 236.284 215.696C236.592 215.696 236.803 215.89 236.803 216.206C236.803 216.303 236.768 216.435 236.715 216.566C236.196 217.867 234.869 218.649 233.164 218.649ZM230.149 213.288H235.792C235.766 211.451 234.649 210.229 233.023 210.229C231.389 210.229 230.246 211.442 230.149 213.288ZM239.483 218.649C239.14 218.649 238.903 218.395 238.903 218.025V209.799C238.903 209.447 239.123 209.21 239.448 209.21C239.773 209.21 240.002 209.447 240.002 209.799V210.985H240.028C240.336 209.913 241.232 209.21 242.234 209.21C242.55 209.21 242.805 209.271 242.99 209.403C243.122 209.5 243.201 209.641 243.201 209.825C243.201 210.01 243.131 210.15 242.99 210.238C242.823 210.326 242.603 210.317 242.199 210.317C240.758 210.317 240.063 211.425 240.063 212.813V218.025C240.063 218.395 239.826 218.649 239.483 218.649ZM252.991 218.702C250.601 218.702 248.895 217.568 248.465 215.969C248.412 215.802 248.386 215.644 248.386 215.485C248.386 215.099 248.597 214.853 248.939 214.853C249.247 214.853 249.44 215.011 249.52 215.345C249.845 216.804 251.233 217.612 253.053 217.612C254.96 217.612 256.313 216.602 256.313 215.16C256.313 213.965 255.522 213.244 253.571 212.796L252.191 212.488C249.678 211.926 248.623 210.845 248.623 209.096C248.623 207.048 250.469 205.615 252.956 205.615C255.057 205.615 256.762 206.688 257.192 208.357C257.219 208.463 257.228 208.586 257.228 208.735C257.228 209.069 257.008 209.289 256.683 209.289C256.366 209.289 256.182 209.122 256.085 208.806C255.725 207.452 254.512 206.705 252.921 206.705C251.207 206.705 249.853 207.602 249.853 209.043C249.853 210.194 250.636 210.924 252.517 211.346L253.896 211.662C256.498 212.251 257.544 213.235 257.544 215.002C257.544 217.252 255.733 218.702 252.991 218.702ZM260.11 221.69C259.767 221.69 259.53 221.436 259.53 221.066V209.799C259.53 209.447 259.758 209.21 260.084 209.21C260.409 209.21 260.629 209.447 260.629 209.799V211.293H260.664C261.165 210.08 262.325 209.21 263.81 209.21C266.122 209.21 267.704 211.091 267.704 213.93C267.704 216.777 266.13 218.649 263.837 218.649C262.36 218.649 261.209 217.806 260.725 216.619H260.69V221.066C260.69 221.436 260.453 221.69 260.11 221.69ZM263.608 217.621C265.375 217.621 266.517 216.162 266.517 213.93C266.517 211.706 265.375 210.238 263.608 210.238C261.877 210.238 260.69 211.732 260.69 213.93C260.69 216.136 261.877 217.621 263.608 217.621ZM272.326 218.649C270.525 218.649 269.294 217.568 269.294 215.969C269.294 214.413 270.454 213.455 272.573 213.314L275.429 213.139V212.348C275.429 211.029 274.594 210.238 273.17 210.238C271.984 210.238 271.166 210.722 270.718 211.838C270.613 212.049 270.454 212.154 270.226 212.154C269.918 212.154 269.707 211.943 269.707 211.627C269.707 211.451 269.769 211.24 269.865 211.038C270.34 209.948 271.615 209.21 273.197 209.21C275.288 209.21 276.589 210.379 276.589 212.242V218.061C276.589 218.412 276.361 218.649 276.035 218.649C275.71 218.649 275.482 218.412 275.482 218.061V216.76H275.455C274.946 217.894 273.689 218.649 272.326 218.649ZM272.564 217.647C274.163 217.647 275.429 216.514 275.429 215.063V214.053L272.713 214.237C271.272 214.334 270.472 214.967 270.472 215.951C270.472 216.971 271.333 217.647 272.564 217.647ZM282.6 218.649C280.087 218.649 278.443 216.83 278.443 213.947C278.443 211.064 280.078 209.21 282.574 209.21C284.279 209.21 285.756 210.177 286.134 211.521C286.16 211.627 286.178 211.732 286.178 211.82C286.178 212.128 285.984 212.33 285.685 212.33C285.422 212.33 285.281 212.216 285.123 211.917C284.675 210.818 283.778 210.238 282.583 210.238C280.799 210.238 279.63 211.688 279.63 213.93C279.63 216.206 280.808 217.621 282.592 217.621C283.805 217.621 284.692 217.041 285.123 215.969C285.281 215.661 285.422 215.556 285.677 215.556C285.984 215.556 286.186 215.767 286.186 216.074C286.186 216.162 286.16 216.276 286.125 216.399C285.703 217.718 284.27 218.649 282.6 218.649ZM291.917 218.649C289.289 218.649 287.698 216.909 287.698 213.974C287.698 211.073 289.315 209.21 291.785 209.21C294.123 209.21 295.74 210.968 295.74 213.508C295.74 213.947 295.485 214.211 295.054 214.211H288.893C288.893 216.355 290.044 217.63 291.864 217.63C293.138 217.63 294 217.094 294.597 215.951C294.711 215.775 294.843 215.696 295.037 215.696C295.344 215.696 295.555 215.89 295.555 216.206C295.555 216.303 295.52 216.435 295.467 216.566C294.949 217.867 293.622 218.649 291.917 218.649ZM288.902 213.288H294.544C294.518 211.451 293.402 210.229 291.776 210.229C290.141 210.229 288.999 211.442 288.902 213.288ZM305.97 218.702C303.579 218.702 301.874 217.568 301.443 215.969C301.39 215.802 301.364 215.644 301.364 215.485C301.364 215.099 301.575 214.853 301.918 214.853C302.225 214.853 302.419 215.011 302.498 215.345C302.823 216.804 304.212 217.612 306.031 217.612C307.938 217.612 309.292 216.602 309.292 215.16C309.292 213.965 308.501 213.244 306.55 212.796L305.17 212.488C302.656 211.926 301.601 210.845 301.601 209.096C301.601 207.048 303.447 205.615 305.934 205.615C308.035 205.615 309.74 206.688 310.171 208.357C310.197 208.463 310.206 208.586 310.206 208.735C310.206 209.069 309.986 209.289 309.661 209.289C309.345 209.289 309.16 209.122 309.063 208.806C308.703 207.452 307.49 206.705 305.899 206.705C304.185 206.705 302.832 207.602 302.832 209.043C302.832 210.194 303.614 210.924 305.495 211.346L306.875 211.662C309.476 212.251 310.522 213.235 310.522 215.002C310.522 217.252 308.712 218.702 305.97 218.702ZM315.664 218.649C313.677 218.649 312.438 217.357 312.438 215.301V209.834C312.438 209.465 312.684 209.21 313.027 209.21C313.361 209.21 313.607 209.465 313.607 209.834V215.099C313.607 216.716 314.468 217.612 315.998 217.612C317.588 217.612 318.661 216.496 318.661 214.782V209.834C318.661 209.465 318.898 209.21 319.241 209.21C319.583 209.21 319.821 209.465 319.821 209.834V218.061C319.821 218.395 319.61 218.649 319.276 218.649C318.942 218.649 318.722 218.395 318.722 218.061V216.804H318.696C318.212 217.929 317.114 218.649 315.664 218.649ZM322.809 218.649C322.483 218.649 322.264 218.421 322.264 218.078V206.292C322.264 205.923 322.51 205.668 322.844 205.668C323.187 205.668 323.433 205.923 323.433 206.292V211.267H323.459C323.986 210.01 325.155 209.21 326.597 209.21C328.882 209.21 330.446 211.082 330.446 213.93C330.446 216.777 328.891 218.649 326.579 218.649C325.12 218.649 323.96 217.85 323.406 216.566H323.38V218.078C323.38 218.421 323.143 218.649 322.809 218.649ZM326.368 217.621C328.126 217.621 329.26 216.171 329.26 213.93C329.26 211.697 328.126 210.238 326.368 210.238C324.646 210.238 323.424 211.741 323.424 213.93C323.424 216.127 324.646 217.621 326.368 217.621ZM335.465 218.649C333.786 218.649 332.485 217.841 332.098 216.602C332.054 216.496 332.037 216.399 332.037 216.303C332.037 215.995 332.265 215.811 332.573 215.811C332.801 215.811 332.96 215.934 333.1 216.224C333.522 217.182 334.269 217.691 335.552 217.691C336.871 217.691 337.794 217.059 337.794 216.083C337.794 215.292 337.337 214.87 336.115 214.58L334.779 214.255C333.012 213.824 332.177 213.033 332.177 211.794C332.177 210.265 333.531 209.21 335.517 209.21C337.082 209.21 338.365 210.089 338.62 211.319C338.637 211.407 338.646 211.478 338.646 211.539C338.646 211.829 338.47 212.014 338.189 212.014C337.943 212.014 337.785 211.926 337.653 211.636C337.301 210.73 336.607 210.177 335.447 210.177C334.208 210.177 333.338 210.836 333.338 211.741C333.338 212.479 333.874 212.954 335.078 213.244L336.387 213.561C338.268 214.009 338.98 214.677 338.98 215.995C338.98 217.577 337.548 218.649 335.465 218.649ZM344.587 218.649C342.074 218.649 340.43 216.83 340.43 213.947C340.43 211.064 342.065 209.21 344.561 209.21C346.266 209.21 347.743 210.177 348.12 211.521C348.147 211.627 348.164 211.732 348.164 211.82C348.164 212.128 347.971 212.33 347.672 212.33C347.409 212.33 347.268 212.216 347.11 211.917C346.661 210.818 345.765 210.238 344.57 210.238C342.786 210.238 341.617 211.688 341.617 213.93C341.617 216.206 342.794 217.621 344.578 217.621C345.791 217.621 346.679 217.041 347.11 215.969C347.268 215.661 347.409 215.556 347.663 215.556C347.971 215.556 348.173 215.767 348.173 216.074C348.173 216.162 348.147 216.276 348.112 216.399C347.69 217.718 346.257 218.649 344.587 218.649ZM350.722 218.649C350.379 218.649 350.142 218.395 350.142 218.025V209.799C350.142 209.447 350.361 209.21 350.687 209.21C351.012 209.21 351.24 209.447 351.24 209.799V210.985H351.267C351.574 209.913 352.471 209.21 353.473 209.21C353.789 209.21 354.044 209.271 354.229 209.403C354.36 209.5 354.439 209.641 354.439 209.825C354.439 210.01 354.369 210.15 354.229 210.238C354.062 210.326 353.842 210.317 353.438 210.317C351.996 210.317 351.302 211.425 351.302 212.813V218.025C351.302 218.395 351.064 218.649 350.722 218.649ZM356.575 207.514C356.153 207.514 355.801 207.171 355.801 206.74C355.801 206.318 356.153 205.976 356.575 205.976C357.006 205.976 357.357 206.318 357.357 206.74C357.357 207.171 357.006 207.514 356.575 207.514ZM356.575 218.649C356.232 218.649 355.995 218.395 355.995 218.025V209.834C355.995 209.465 356.232 209.21 356.575 209.21C356.918 209.21 357.155 209.465 357.155 209.834V218.025C357.155 218.395 356.918 218.649 356.575 218.649ZM360.178 221.69C359.835 221.69 359.598 221.436 359.598 221.066V209.799C359.598 209.447 359.826 209.21 360.152 209.21C360.477 209.21 360.697 209.447 360.697 209.799V211.293H360.732C361.233 210.08 362.393 209.21 363.878 209.21C366.19 209.21 367.772 211.091 367.772 213.93C367.772 216.777 366.199 218.649 363.905 218.649C362.428 218.649 361.277 217.806 360.793 216.619H360.758V221.066C360.758 221.436 360.521 221.69 360.178 221.69ZM363.676 217.621C365.443 217.621 366.585 216.162 366.585 213.93C366.585 211.706 365.443 210.238 363.676 210.238C361.945 210.238 360.758 211.732 360.758 213.93C360.758 216.136 361.945 217.621 363.676 217.621ZM370.197 216.435V210.326H369.274C368.932 210.326 368.747 210.15 368.747 209.843C368.747 209.535 368.932 209.359 369.274 209.359H370.197V207.549C370.197 207.171 370.435 206.925 370.777 206.925C371.12 206.925 371.357 207.171 371.357 207.549V209.359H372.711C373.054 209.359 373.247 209.535 373.247 209.843C373.247 210.15 373.054 210.326 372.711 210.326H371.357V216.206C371.357 217.103 371.674 217.498 372.509 217.533L372.764 217.542C373.142 217.568 373.326 217.727 373.326 218.008C373.326 218.359 373.124 218.553 372.5 218.553H372.263C370.874 218.553 370.197 217.876 370.197 216.435ZM375.831 207.514C375.409 207.514 375.057 207.171 375.057 206.74C375.057 206.318 375.409 205.976 375.831 205.976C376.261 205.976 376.613 206.318 376.613 206.74C376.613 207.171 376.261 207.514 375.831 207.514ZM375.831 218.649C375.488 218.649 375.251 218.395 375.251 218.025V209.834C375.251 209.465 375.488 209.21 375.831 209.21C376.173 209.21 376.411 209.465 376.411 209.834V218.025C376.411 218.395 376.173 218.649 375.831 218.649ZM382.563 218.649C380.067 218.649 378.397 216.821 378.397 213.93C378.397 211.038 380.067 209.21 382.563 209.21C385.059 209.21 386.729 211.038 386.729 213.93C386.729 216.821 385.059 218.649 382.563 218.649ZM382.563 217.621C384.373 217.621 385.551 216.232 385.551 213.93C385.551 211.627 384.373 210.238 382.563 210.238C380.761 210.238 379.583 211.618 379.583 213.93C379.583 216.241 380.761 217.621 382.563 217.621ZM389.216 218.649C388.873 218.649 388.636 218.395 388.636 218.025V209.799C388.636 209.447 388.864 209.21 389.181 209.21C389.506 209.21 389.734 209.447 389.734 209.799V211.047H389.761C390.235 209.931 391.299 209.21 392.784 209.21C394.77 209.21 396.01 210.502 396.01 212.576V218.025C396.01 218.395 395.772 218.649 395.43 218.649C395.087 218.649 394.849 218.395 394.849 218.025V212.761C394.849 211.161 393.962 210.247 392.45 210.247C390.85 210.247 389.796 211.39 389.796 213.086V218.025C389.796 218.395 389.558 218.649 389.216 218.649Z"
      fill="#C295FE"/>
    <path
      d="M415.349 211.222H420.536V214.057H415.349V211.222ZM429.521 204.25V220H425.993V205.426L427.757 207.022L421.058 208.198V205.426L426.896 204.25H429.521ZM440.023 220.315C438.735 220.315 437.58 220.119 436.558 219.727C435.55 219.335 434.731 218.796 434.101 218.11C433.471 217.424 433.079 216.654 432.925 215.8H436.306C436.516 216.304 436.901 216.731 437.461 217.081C438.021 217.417 438.847 217.585 439.939 217.585C441.101 217.585 442.046 217.375 442.774 216.955C443.502 216.521 444.041 215.905 444.391 215.107C444.741 214.309 444.916 213.357 444.916 212.251C444.916 211.047 444.72 210.032 444.328 209.206C443.95 208.38 443.376 207.757 442.606 207.337C441.85 206.903 440.919 206.686 439.813 206.686C439.015 206.686 438.343 206.798 437.797 207.022C437.251 207.246 436.838 207.554 436.558 207.946C436.278 208.324 436.138 208.765 436.138 209.269C436.138 209.745 436.264 210.172 436.516 210.55C436.768 210.914 437.153 211.201 437.671 211.411C438.203 211.621 438.854 211.726 439.624 211.726C440.688 211.726 441.682 211.481 442.606 210.991C443.53 210.501 444.328 209.829 445 208.975L446.344 209.899C445.91 210.767 445.329 211.544 444.601 212.23C443.887 212.916 443.047 213.462 442.081 213.868C441.115 214.26 440.03 214.456 438.826 214.456C437.552 214.456 436.446 214.246 435.508 213.826C434.57 213.406 433.842 212.818 433.324 212.062C432.82 211.292 432.568 210.396 432.568 209.374C432.568 208.31 432.855 207.372 433.429 206.56C434.017 205.734 434.857 205.09 435.949 204.628C437.041 204.166 438.343 203.935 439.855 203.935C441.717 203.935 443.278 204.285 444.538 204.985C445.798 205.671 446.743 206.63 447.373 207.862C448.017 209.094 448.332 210.515 448.318 212.125C448.332 213.721 448.017 215.135 447.373 216.367C446.743 217.599 445.812 218.565 444.58 219.265C443.348 219.965 441.829 220.315 440.023 220.315ZM452.127 220.189C451.749 220.189 451.399 220.098 451.077 219.916C450.769 219.734 450.524 219.489 450.342 219.181C450.16 218.859 450.069 218.509 450.069 218.131C450.069 217.739 450.16 217.389 450.342 217.081C450.524 216.759 450.769 216.507 451.077 216.325C451.399 216.143 451.749 216.052 452.127 216.052C452.519 216.052 452.869 216.143 453.177 216.325C453.499 216.507 453.751 216.759 453.933 217.081C454.115 217.389 454.206 217.739 454.206 218.131C454.206 218.509 454.115 218.859 453.933 219.181C453.751 219.489 453.499 219.734 453.177 219.916C452.869 220.098 452.519 220.189 452.127 220.189ZM463.524 220.315C462.236 220.315 461.081 220.119 460.059 219.727C459.051 219.335 458.232 218.796 457.602 218.11C456.972 217.424 456.58 216.654 456.426 215.8H459.807C460.017 216.304 460.402 216.731 460.962 217.081C461.522 217.417 462.348 217.585 463.44 217.585C464.602 217.585 465.547 217.375 466.275 216.955C467.003 216.521 467.542 215.905 467.892 215.107C468.242 214.309 468.417 213.357 468.417 212.251C468.417 211.047 468.221 210.032 467.829 209.206C467.451 208.38 466.877 207.757 466.107 207.337C465.351 206.903 464.42 206.686 463.314 206.686C462.516 206.686 461.844 206.798 461.298 207.022C460.752 207.246 460.339 207.554 460.059 207.946C459.779 208.324 459.639 208.765 459.639 209.269C459.639 209.745 459.765 210.172 460.017 210.55C460.269 210.914 460.654 211.201 461.172 211.411C461.704 211.621 462.355 211.726 463.125 211.726C464.189 211.726 465.183 211.481 466.107 210.991C467.031 210.501 467.829 209.829 468.501 208.975L469.845 209.899C469.411 210.767 468.83 211.544 468.102 212.23C467.388 212.916 466.548 213.462 465.582 213.868C464.616 214.26 463.531 214.456 462.327 214.456C461.053 214.456 459.947 214.246 459.009 213.826C458.071 213.406 457.343 212.818 456.825 212.062C456.321 211.292 456.069 210.396 456.069 209.374C456.069 208.31 456.356 207.372 456.93 206.56C457.518 205.734 458.358 205.09 459.45 204.628C460.542 204.166 461.844 203.935 463.356 203.935C465.218 203.935 466.779 204.285 468.039 204.985C469.299 205.671 470.244 206.63 470.874 207.862C471.518 209.094 471.833 210.515 471.819 212.125C471.833 213.721 471.518 215.135 470.874 216.367C470.244 217.599 469.313 218.565 468.081 219.265C466.849 219.965 465.33 220.315 463.524 220.315ZM481.601 220.315C480.313 220.315 479.158 220.119 478.136 219.727C477.128 219.335 476.309 218.796 475.679 218.11C475.049 217.424 474.657 216.654 474.503 215.8H477.884C478.094 216.304 478.479 216.731 479.039 217.081C479.599 217.417 480.425 217.585 481.517 217.585C482.679 217.585 483.624 217.375 484.352 216.955C485.08 216.521 485.619 215.905 485.969 215.107C486.319 214.309 486.494 213.357 486.494 212.251C486.494 211.047 486.298 210.032 485.906 209.206C485.528 208.38 484.954 207.757 484.184 207.337C483.428 206.903 482.497 206.686 481.391 206.686C480.593 206.686 479.921 206.798 479.375 207.022C478.829 207.246 478.416 207.554 478.136 207.946C477.856 208.324 477.716 208.765 477.716 209.269C477.716 209.745 477.842 210.172 478.094 210.55C478.346 210.914 478.731 211.201 479.249 211.411C479.781 211.621 480.432 211.726 481.202 211.726C482.266 211.726 483.26 211.481 484.184 210.991C485.108 210.501 485.906 209.829 486.578 208.975L487.922 209.899C487.488 210.767 486.907 211.544 486.179 212.23C485.465 212.916 484.625 213.462 483.659 213.868C482.693 214.26 481.608 214.456 480.404 214.456C479.13 214.456 478.024 214.246 477.086 213.826C476.148 213.406 475.42 212.818 474.902 212.062C474.398 211.292 474.146 210.396 474.146 209.374C474.146 208.31 474.433 207.372 475.007 206.56C475.595 205.734 476.435 205.09 477.527 204.628C478.619 204.166 479.921 203.935 481.433 203.935C483.295 203.935 484.856 204.285 486.116 204.985C487.376 205.671 488.321 206.63 488.951 207.862C489.595 209.094 489.91 210.515 489.896 212.125C489.91 213.721 489.595 215.135 488.951 216.367C488.321 217.599 487.39 218.565 486.158 219.265C484.926 219.965 483.407 220.315 481.601 220.315ZM499.805 220.315C498.279 220.315 496.942 220.091 495.794 219.643C494.66 219.181 493.764 218.537 493.106 217.711C492.462 216.885 492.126 215.933 492.098 214.855H495.584C495.682 215.709 496.102 216.388 496.844 216.892C497.6 217.382 498.608 217.627 499.868 217.627C501.058 217.627 501.961 217.438 502.577 217.06C503.207 216.682 503.522 216.185 503.522 215.569C503.522 215.205 503.424 214.897 503.228 214.645C503.046 214.393 502.724 214.183 502.262 214.015C501.814 213.833 501.184 213.707 500.372 213.637L498.167 213.427C496.165 213.245 494.688 212.755 493.736 211.957C492.784 211.159 492.308 210.102 492.308 208.786C492.308 207.778 492.595 206.917 493.169 206.203C493.757 205.475 494.576 204.915 495.626 204.523C496.676 204.131 497.915 203.935 499.343 203.935C500.771 203.935 502.017 204.152 503.081 204.586C504.159 205.006 505.006 205.601 505.622 206.371C506.238 207.127 506.574 208.016 506.63 209.038H503.165C503.081 208.338 502.724 207.764 502.094 207.316C501.464 206.854 500.533 206.623 499.301 206.623C498.167 206.623 497.299 206.805 496.697 207.169C496.109 207.533 495.815 208.03 495.815 208.66C495.815 208.954 495.899 209.227 496.067 209.479C496.235 209.717 496.529 209.913 496.949 210.067C497.369 210.221 497.943 210.333 498.671 210.403L501.065 210.613C502.507 210.739 503.662 210.998 504.53 211.39C505.412 211.768 506.049 212.272 506.441 212.902C506.833 213.532 507.029 214.295 507.029 215.191C507.029 216.185 506.735 217.074 506.147 217.858C505.559 218.628 504.726 219.23 503.648 219.664C502.57 220.098 501.289 220.315 499.805 220.315ZM500.855 202.528V221.722H498.23V202.528H500.855Z"
      fill="#C295FE"/>
  </g>
  <path
    d="M507.203 43.896H506.275L509.619 33H512.467L508.611 45H505.139L501.363 34.376H502.547L498.771 45H495.299L491.443 33H494.323L497.635 43.896L496.739 43.88L500.515 33H503.411L507.203 43.896ZM513.986 35.8L515.314 36.056L516.658 35.8V45H513.986V35.8ZM515.314 34.856C514.834 34.856 514.439 34.7333 514.13 34.488C513.831 34.232 513.682 33.896 513.682 33.48C513.682 33.0533 513.831 32.7173 514.13 32.472C514.439 32.216 514.834 32.088 515.314 32.088C515.804 32.088 516.199 32.216 516.498 32.472C516.796 32.7173 516.946 33.0533 516.946 33.48C516.946 33.896 516.796 34.232 516.498 34.488C516.199 34.7333 515.804 34.856 515.314 34.856ZM518.065 37.912V36.728L519.969 36.104L521.105 33.496H522.641V35.896H526.673V37.912H522.641V41.224C522.641 41.928 522.785 42.424 523.073 42.712C523.372 42.9893 523.884 43.128 524.609 43.128C525.068 43.128 525.473 43.0853 525.825 43C526.177 42.9147 526.513 42.792 526.833 42.632V44.712C526.524 44.84 526.113 44.9573 525.601 45.064C525.089 45.1813 524.561 45.24 524.017 45.24C523.068 45.24 522.294 45.0907 521.697 44.792C521.11 44.4827 520.673 44.056 520.385 43.512C520.108 42.968 519.969 42.3333 519.969 41.608V37.912H518.065ZM528.579 32.68H531.251V45H528.579V32.68ZM534.723 35.656C535.587 35.656 536.323 35.832 536.931 36.184C537.539 36.5253 538.003 37.016 538.323 37.656C538.643 38.296 538.803 39.0587 538.803 39.944V45H536.131V40.344C536.131 39.5227 535.933 38.904 535.539 38.488C535.144 38.0613 534.573 37.848 533.827 37.848C533.304 37.848 532.845 37.9653 532.451 38.2C532.067 38.424 531.768 38.7387 531.555 39.144C531.352 39.5493 531.251 40.0347 531.251 40.6L530.371 40.136C530.488 39.176 530.744 38.3653 531.139 37.704C531.544 37.0427 532.056 36.536 532.675 36.184C533.293 35.832 533.976 35.656 534.723 35.656ZM418.43 53H421.15V65H418.43V53ZM428.03 53H430.75V65H428.03V53ZM419.918 57.736H429.23V60.12H419.918V57.736ZM435.883 67.88C435.286 67.88 434.747 67.8053 434.267 67.656C433.787 67.5067 433.334 67.288 432.907 67V65.08C433.355 65.368 433.782 65.576 434.187 65.704C434.593 65.832 435.041 65.896 435.531 65.896C435.969 65.896 436.358 65.7947 436.699 65.592C437.041 65.4 437.323 65.0533 437.547 64.552L441.339 55.896H444.171L439.627 65.416C439.35 66.0133 439.014 66.4933 438.619 66.856C438.225 67.2187 437.793 67.48 437.323 67.64C436.865 67.8 436.385 67.88 435.883 67.88ZM436.459 64.424L432.443 55.896H435.387L439.067 64.424H436.459ZM445.565 55.896H448.237V58.792L448.125 59.144V61.336L448.237 61.992V67.64H445.565V55.896ZM447.309 60.456C447.49 59.4853 447.805 58.6427 448.253 57.928C448.712 57.2027 449.282 56.6427 449.965 56.248C450.658 55.8533 451.426 55.656 452.269 55.656C453.165 55.656 453.949 55.8587 454.621 56.264C455.304 56.6587 455.837 57.2187 456.221 57.944C456.605 58.6587 456.797 59.496 456.797 60.456C456.797 61.4053 456.605 62.2427 456.221 62.968C455.837 63.6827 455.304 64.2427 454.621 64.648C453.949 65.0427 453.165 65.24 452.269 65.24C451.416 65.24 450.648 65.0427 449.965 64.648C449.293 64.2533 448.728 63.6987 448.269 62.984C447.81 62.2587 447.49 61.416 447.309 60.456ZM454.093 60.456C454.093 59.9227 453.981 59.4533 453.757 59.048C453.544 58.632 453.245 58.312 452.861 58.088C452.477 57.8533 452.034 57.736 451.533 57.736C451.032 57.736 450.557 57.8533 450.109 58.088C449.661 58.312 449.266 58.632 448.925 59.048C448.594 59.4533 448.333 59.9227 448.141 60.456C448.333 60.9893 448.594 61.4587 448.925 61.864C449.266 62.2693 449.661 62.5893 450.109 62.824C450.557 63.048 451.032 63.16 451.533 63.16C452.034 63.16 452.477 63.048 452.861 62.824C453.245 62.5893 453.544 62.2693 453.757 61.864C453.981 61.4587 454.093 60.9893 454.093 60.456ZM463.818 65.24C462.74 65.24 461.775 65.0427 460.922 64.648C460.079 64.2427 459.412 63.6773 458.922 62.952C458.442 62.2267 458.202 61.384 458.202 60.424C458.202 59.4747 458.431 58.6427 458.89 57.928C459.359 57.2133 459.999 56.6587 460.81 56.264C461.62 55.8587 462.543 55.656 463.578 55.656C464.634 55.656 465.54 55.8907 466.298 56.36C467.055 56.8187 467.636 57.4693 468.042 58.312C468.458 59.1547 468.666 60.1467 468.666 61.288H460.346V59.512H467.226L466.186 60.152C466.143 59.6187 466.01 59.1653 465.786 58.792C465.572 58.4187 465.279 58.1307 464.906 57.928C464.532 57.7253 464.095 57.624 463.594 57.624C463.05 57.624 462.575 57.736 462.17 57.96C461.775 58.1733 461.466 58.4773 461.242 58.872C461.028 59.256 460.922 59.7093 460.922 60.232C460.922 60.8613 461.06 61.4 461.338 61.848C461.615 62.296 462.02 62.6373 462.554 62.872C463.087 63.1067 463.732 63.224 464.49 63.224C465.172 63.224 465.86 63.128 466.554 62.936C467.247 62.7333 467.871 62.4507 468.426 62.088V63.88C467.828 64.3067 467.13 64.6427 466.33 64.888C465.54 65.1227 464.703 65.24 463.818 65.24ZM470.085 55.896H472.789L473.333 59.176V65H470.661V58.888L470.085 55.896ZM477.765 55.8V58.104C477.488 58.04 477.211 57.992 476.933 57.96C476.656 57.928 476.395 57.912 476.149 57.912C475.616 57.912 475.136 58.024 474.709 58.248C474.283 58.472 473.947 58.8187 473.701 59.288C473.456 59.7573 473.333 60.3493 473.333 61.064L472.773 60.392C472.837 59.7413 472.955 59.1333 473.125 58.568C473.296 57.992 473.531 57.4907 473.829 57.064C474.139 56.6267 474.517 56.2853 474.965 56.04C475.413 55.784 475.947 55.656 476.565 55.656C476.768 55.656 476.971 55.672 477.173 55.704C477.387 55.7253 477.584 55.7573 477.765 55.8ZM489.102 62.136C489.102 62.7867 488.91 63.3467 488.526 63.816C488.153 64.2853 487.593 64.6427 486.846 64.888C486.1 65.1227 485.188 65.24 484.11 65.24C483.001 65.24 482.036 65.1067 481.214 64.84C480.393 64.5627 479.753 64.1733 479.294 63.672C478.836 63.1707 478.59 62.5893 478.558 61.928H481.278C481.342 62.2267 481.502 62.488 481.758 62.712C482.014 62.9253 482.345 63.0907 482.75 63.208C483.166 63.3253 483.646 63.384 484.19 63.384C484.948 63.384 485.518 63.2987 485.902 63.128C486.297 62.9573 486.494 62.7013 486.494 62.36C486.494 62.1147 486.356 61.928 486.078 61.8C485.812 61.672 485.316 61.576 484.59 61.512L482.894 61.384C481.881 61.2987 481.076 61.128 480.478 60.872C479.881 60.616 479.454 60.296 479.198 59.912C478.953 59.5173 478.83 59.0853 478.83 58.616C478.83 57.9653 479.033 57.4213 479.438 56.984C479.844 56.5467 480.409 56.216 481.134 55.992C481.87 55.768 482.718 55.656 483.678 55.656C484.66 55.656 485.534 55.7893 486.302 56.056C487.07 56.3227 487.684 56.6907 488.142 57.16C488.612 57.6293 488.878 58.1733 488.942 58.792H486.222C486.18 58.568 486.057 58.36 485.854 58.168C485.662 57.9653 485.38 57.8 485.006 57.672C484.633 57.544 484.148 57.48 483.55 57.48C482.878 57.48 482.361 57.56 481.998 57.72C481.636 57.8693 481.454 58.0987 481.454 58.408C481.454 58.6213 481.566 58.7973 481.79 58.936C482.014 59.064 482.43 59.1547 483.038 59.208L485.246 59.384C486.228 59.4693 487.001 59.6347 487.566 59.88C488.132 60.1147 488.526 60.424 488.75 60.808C488.985 61.192 489.102 61.6347 489.102 62.136ZM490.954 55.896H493.626V58.792L493.514 59.144V61.336L493.626 61.992V67.64H490.954V55.896ZM492.698 60.456C492.88 59.4853 493.194 58.6427 493.642 57.928C494.101 57.2027 494.672 56.6427 495.354 56.248C496.048 55.8533 496.816 55.656 497.658 55.656C498.554 55.656 499.338 55.8587 500.01 56.264C500.693 56.6587 501.226 57.2187 501.61 57.944C501.994 58.6587 502.186 59.496 502.186 60.456C502.186 61.4053 501.994 62.2427 501.61 62.968C501.226 63.6827 500.693 64.2427 500.01 64.648C499.338 65.0427 498.554 65.24 497.658 65.24C496.805 65.24 496.037 65.0427 495.354 64.648C494.682 64.2533 494.117 63.6987 493.658 62.984C493.2 62.2587 492.88 61.416 492.698 60.456ZM499.482 60.456C499.482 59.9227 499.37 59.4533 499.146 59.048C498.933 58.632 498.634 58.312 498.25 58.088C497.866 57.8533 497.424 57.736 496.922 57.736C496.421 57.736 495.946 57.8533 495.498 58.088C495.05 58.312 494.656 58.632 494.314 59.048C493.984 59.4533 493.722 59.9227 493.53 60.456C493.722 60.9893 493.984 61.4587 494.314 61.864C494.656 62.2693 495.05 62.5893 495.498 62.824C495.946 63.048 496.421 63.16 496.922 63.16C497.424 63.16 497.866 63.048 498.25 62.824C498.634 62.5893 498.933 62.2693 499.146 61.864C499.37 61.4587 499.482 60.9893 499.482 60.456ZM512.407 65L512.023 61.672L512.455 60.456L512.023 59.256L512.407 55.896H515.175L514.647 60.456L515.175 65H512.407ZM513.111 60.456C512.94 61.416 512.626 62.2587 512.167 62.984C511.719 63.6987 511.148 64.2533 510.455 64.648C509.772 65.0427 509.004 65.24 508.151 65.24C507.266 65.24 506.482 65.0427 505.799 64.648C505.116 64.2427 504.583 63.6827 504.199 62.968C503.826 62.2427 503.639 61.4053 503.639 60.456C503.639 59.496 503.826 58.6587 504.199 57.944C504.583 57.2187 505.116 56.6587 505.799 56.264C506.482 55.8587 507.266 55.656 508.151 55.656C509.004 55.656 509.772 55.8533 510.455 56.248C511.148 56.6427 511.724 57.2027 512.183 57.928C512.642 58.6427 512.951 59.4853 513.111 60.456ZM506.343 60.456C506.343 60.9893 506.45 61.4587 506.663 61.864C506.887 62.2693 507.191 62.5893 507.575 62.824C507.959 63.048 508.402 63.16 508.903 63.16C509.404 63.16 509.874 63.048 510.311 62.824C510.759 62.5893 511.154 62.2693 511.495 61.864C511.836 61.4587 512.103 60.9893 512.295 60.456C512.103 59.9227 511.836 59.4533 511.495 59.048C511.154 58.632 510.759 58.312 510.311 58.088C509.874 57.8533 509.404 57.736 508.903 57.736C508.402 57.736 507.959 57.8533 507.575 58.088C507.191 58.312 506.887 58.632 506.663 59.048C506.45 59.4533 506.343 59.9227 506.343 60.456ZM527.699 61.288C527.592 62.0667 527.288 62.7547 526.787 63.352C526.296 63.9493 525.661 64.4133 524.883 64.744C524.104 65.0747 523.235 65.24 522.275 65.24C521.187 65.24 520.227 65.0427 519.395 64.648C518.573 64.2427 517.928 63.6773 517.459 62.952C517 62.2267 516.771 61.3947 516.771 60.456C516.771 59.5067 517 58.6747 517.459 57.96C517.928 57.2347 518.573 56.6693 519.395 56.264C520.227 55.8587 521.187 55.656 522.275 55.656C523.235 55.656 524.104 55.8267 524.883 56.168C525.661 56.4987 526.296 56.9627 526.787 57.56C527.288 58.1467 527.592 58.8347 527.699 59.624H525.027C524.888 59.0053 524.568 58.5307 524.067 58.2C523.576 57.8587 522.979 57.688 522.275 57.688C521.709 57.688 521.213 57.8 520.787 58.024C520.371 58.2373 520.051 58.552 519.827 58.968C519.603 59.3733 519.491 59.8693 519.491 60.456C519.491 61.032 519.603 61.528 519.827 61.944C520.051 62.3493 520.371 62.664 520.787 62.888C521.213 63.1013 521.709 63.208 522.275 63.208C522.989 63.208 523.592 63.032 524.083 62.68C524.584 62.328 524.899 61.864 525.027 61.288H527.699ZM534.597 65.24C533.52 65.24 532.554 65.0427 531.701 64.648C530.858 64.2427 530.192 63.6773 529.701 62.952C529.221 62.2267 528.981 61.384 528.981 60.424C528.981 59.4747 529.21 58.6427 529.669 57.928C530.138 57.2133 530.778 56.6587 531.589 56.264C532.4 55.8587 533.322 55.656 534.357 55.656C535.413 55.656 536.32 55.8907 537.077 56.36C537.834 56.8187 538.416 57.4693 538.821 58.312C539.237 59.1547 539.445 60.1467 539.445 61.288H531.125V59.512H538.005L536.965 60.152C536.922 59.6187 536.789 59.1653 536.565 58.792C536.352 58.4187 536.058 58.1307 535.685 57.928C535.312 57.7253 534.874 57.624 534.373 57.624C533.829 57.624 533.354 57.736 532.949 57.96C532.554 58.1733 532.245 58.4773 532.021 58.872C531.808 59.256 531.701 59.7093 531.701 60.232C531.701 60.8613 531.84 61.4 532.117 61.848C532.394 62.296 532.8 62.6373 533.333 62.872C533.866 63.1067 534.512 63.224 535.269 63.224C535.952 63.224 536.64 63.128 537.333 62.936C538.026 62.7333 538.65 62.4507 539.205 62.088V63.88C538.608 64.3067 537.909 64.6427 537.109 64.888C536.32 65.1227 535.482 65.24 534.597 65.24Z"
    fill="black"/>
  <g filter="url(#filter1_d_310_91874)">
    <rect x="71.0005" y="141" width="438" height="94" rx="24" fill="white" shape-rendering="crispEdges"/>
    <rect x="87.0005" y="152" width="72" height="72" rx="36" fill="black"/>
    <g clip-path="url(#clip1_310_91874)">
      <path
        d="M105.357 180.895V177.594H107.765V186.517H105.357V183.072H100.908V186.517H98.5005V177.594H100.908V180.895H105.357Z"
        fill="white"/>
      <path
        d="M116.53 177.594H119.193L115.132 182.9V186.517H112.725V182.93L108.646 177.594H111.309L113.92 181.008L116.53 177.594Z"
        fill="white"/>
      <path
        d="M124.969 177.594C125.693 177.594 126.319 177.721 126.849 177.974C127.379 178.228 127.785 178.587 128.067 179.051C128.35 179.515 128.491 180.054 128.491 180.669C128.491 181.284 128.35 181.823 128.067 182.287C127.785 182.751 127.379 183.11 126.849 183.364C126.319 183.618 125.693 183.745 124.969 183.745H122.492V186.517H120.085V177.594H124.969ZM124.83 181.77C125.217 181.77 125.519 181.672 125.735 181.478C125.952 181.284 126.06 181.014 126.06 180.669C126.06 180.324 125.952 180.054 125.735 179.86C125.519 179.666 125.217 179.569 124.83 179.569H122.492V181.77H124.83Z"
        fill="white"/>
      <path
        d="M132.064 182.953L131.821 184.518H137.332V186.517H129.239L129.901 182.055L129.239 177.594H137.274V179.592H131.821L132.064 181.157H136.937V182.953H132.064Z"
        fill="white"/>
      <path
        d="M144.71 186.517L142.378 183.304H141.119V186.517H138.712V177.594H143.881C144.538 177.594 145.116 177.713 145.615 177.951C146.118 178.189 146.507 178.526 146.781 178.962C147.06 179.394 147.199 179.894 147.199 180.461C147.199 180.909 147.11 181.318 146.932 181.686C146.754 182.051 146.499 182.361 146.166 182.614C145.838 182.868 145.449 183.053 145 183.168L147.501 186.517H144.71ZM141.119 179.426V181.496H143.55C143.929 181.496 144.227 181.405 144.443 181.222C144.66 181.04 144.768 180.786 144.768 180.461C144.768 180.136 144.66 179.882 144.443 179.7C144.231 179.517 143.933 179.426 143.55 179.426H141.119Z"
        fill="white"/>
      <path
        d="M100.992 195.091C101.047 195.468 101.271 195.765 101.665 195.983C102.058 196.197 102.578 196.304 103.223 196.304C103.829 196.304 104.302 196.225 104.64 196.066C104.983 195.908 105.154 195.682 105.154 195.388C105.154 195.23 105.111 195.099 105.024 194.996C104.937 194.889 104.79 194.801 104.581 194.734C104.377 194.667 104.091 194.615 103.725 194.579L102.084 194.425C100.876 194.314 99.9921 194.04 99.4333 193.604C98.8783 193.164 98.6008 192.553 98.6008 191.772C98.6008 191.165 98.778 190.647 99.1322 190.219C99.4864 189.787 99.9862 189.46 100.632 189.237C101.281 189.011 102.043 188.898 102.916 188.898C103.759 188.898 104.512 189.021 105.177 189.267C105.843 189.513 106.368 189.858 106.754 190.302C107.143 190.746 107.358 191.26 107.397 191.843H104.906C104.863 191.522 104.662 191.27 104.304 191.088C103.95 190.901 103.471 190.808 102.869 190.808C102.31 190.808 101.871 190.883 101.553 191.034C101.238 191.185 101.08 191.399 101.08 191.676C101.08 191.895 101.179 192.065 101.376 192.188C101.572 192.307 101.917 192.392 102.409 192.444L104.174 192.616C105.012 192.696 105.683 192.832 106.187 193.027C106.691 193.221 107.057 193.487 107.285 193.824C107.513 194.161 107.627 194.587 107.627 195.103C107.627 195.721 107.443 196.267 107.073 196.739C106.703 197.207 106.181 197.569 105.508 197.827C104.835 198.085 104.058 198.214 103.176 198.214C102.267 198.214 101.462 198.085 100.762 197.827C100.061 197.565 99.5139 197.199 99.1204 196.727C98.7268 196.255 98.5202 195.71 98.5005 195.091H100.992Z"
        fill="white"/>
      <path
        d="M113.818 189.094C114.553 189.094 115.191 189.221 115.73 189.474C116.27 189.728 116.683 190.087 116.97 190.551C117.257 191.015 117.401 191.554 117.401 192.169C117.401 192.784 117.257 193.323 116.97 193.787C116.683 194.251 116.27 194.61 115.73 194.864C115.191 195.118 114.553 195.245 113.818 195.245H111.297V198.017H108.847V189.094H113.818ZM113.676 193.27C114.069 193.27 114.376 193.173 114.597 192.978C114.817 192.784 114.927 192.514 114.927 192.169C114.927 191.824 114.817 191.554 114.597 191.36C114.376 191.166 114.069 191.069 113.676 191.069H111.297V193.27H113.676Z"
        fill="white"/>
      <path
        d="M127.916 198.017H125.306L124.568 196.297H119.993L119.255 198.017H116.64L120.672 189.094H123.889L127.916 198.017ZM122.278 190.974L120.843 194.317H123.718L122.278 190.974Z"
        fill="white"/>
      <path
        d="M138.06 194.282C137.973 195.063 137.705 195.751 137.257 196.346C136.808 196.937 136.216 197.397 135.48 197.726C134.744 198.051 133.911 198.214 132.982 198.214C131.963 198.214 131.064 198.02 130.284 197.631C129.505 197.242 128.901 196.697 128.472 195.995C128.047 195.289 127.834 194.476 127.834 193.556C127.834 192.636 128.047 191.825 128.472 191.123C128.901 190.417 129.505 189.87 130.284 189.481C131.064 189.093 131.963 188.898 132.982 188.898C133.911 188.898 134.744 189.063 135.48 189.392C136.216 189.717 136.808 190.177 137.257 190.772C137.705 191.363 137.973 192.049 138.06 192.83H135.598C135.48 192.267 135.194 191.827 134.742 191.51C134.289 191.193 133.701 191.034 132.977 191.034C132.429 191.034 131.955 191.137 131.554 191.343C131.156 191.546 130.849 191.837 130.633 192.218C130.42 192.594 130.314 193.041 130.314 193.556C130.314 194.072 130.42 194.52 130.633 194.901C130.849 195.277 131.156 195.569 131.554 195.775C131.955 195.977 132.429 196.078 132.977 196.078C133.709 196.078 134.299 195.926 134.748 195.62C135.2 195.311 135.484 194.865 135.598 194.282H138.06Z"
        fill="white"/>
      <path
        d="M141.805 194.453L141.557 196.018H147.165V198.017H138.93L139.603 193.555L138.93 189.094H147.106V191.092H141.557L141.805 192.657H146.764V194.453H141.805Z"
        fill="white"/>
    </g>
    <path
      d="M178.269 185.204C177.249 185.204 176.647 184.581 176.647 183.518V170.981C176.647 169.907 177.249 169.284 178.269 169.284C179.29 169.284 179.891 169.907 179.891 170.981V175.794H186.874V170.981C186.874 169.907 187.475 169.284 188.496 169.284C189.516 169.284 190.118 169.907 190.118 170.981V183.518C190.118 184.581 189.516 185.204 188.496 185.204C187.475 185.204 186.874 184.581 186.874 183.518V178.469H179.891V183.518C179.891 184.581 179.29 185.204 178.269 185.204ZM194.823 189.265C193.448 189.265 192.706 188.738 192.706 187.793C192.706 187.159 193.147 186.762 193.856 186.762C194.071 186.762 194.189 186.772 194.404 186.772C194.951 186.772 195.542 186.536 195.918 185.73L196.079 185.322L192.406 175.633C192.287 175.311 192.223 174.967 192.223 174.709C192.223 173.86 192.921 173.248 193.845 173.248C194.672 173.248 195.102 173.603 195.36 174.516L197.863 182.486H197.916L200.419 174.494C200.677 173.624 201.128 173.248 201.934 173.248C202.836 173.248 203.459 173.839 203.459 174.666C203.459 174.924 203.395 175.289 203.287 175.59L199.753 185.193C198.679 188.169 197.347 189.265 194.823 189.265ZM206.821 189.104C205.908 189.104 205.253 188.545 205.253 187.471V174.859C205.253 173.807 205.897 173.248 206.8 173.248C207.702 173.248 208.347 173.807 208.347 174.87V175.493H208.411C209.034 174.14 210.312 173.302 211.977 173.302C214.899 173.302 216.693 175.525 216.693 179.242C216.693 182.948 214.91 185.183 212.031 185.183C210.355 185.183 209.066 184.366 208.454 183.066H208.389V187.471C208.389 188.545 207.745 189.104 206.821 189.104ZM210.925 182.658C212.493 182.658 213.481 181.337 213.481 179.242C213.481 177.158 212.493 175.815 210.925 175.815C209.388 175.815 208.379 177.18 208.379 179.242C208.379 181.326 209.388 182.658 210.925 182.658ZM224.051 185.247C220.453 185.247 218.336 183.023 218.336 179.296C218.336 175.59 220.495 173.237 223.901 173.237C227.166 173.237 229.358 175.472 229.358 178.598C229.358 179.468 228.864 179.962 227.994 179.962H221.419V180.102C221.419 181.81 222.451 182.927 224.04 182.927C225.19 182.927 225.942 182.54 226.79 181.541C227.123 181.197 227.403 181.079 227.811 181.079C228.488 181.079 229.036 181.509 229.036 182.229C229.036 182.476 228.96 182.733 228.821 182.991C228.058 184.409 226.275 185.247 224.051 185.247ZM221.452 178.039H226.339C226.275 176.535 225.308 175.558 223.933 175.558C222.558 175.558 221.559 176.567 221.452 178.039ZM232.988 185.226C232.043 185.226 231.42 184.635 231.42 183.593V174.827C231.42 173.828 232.032 173.248 232.935 173.248C233.815 173.248 234.417 173.828 234.417 174.827V175.579H234.481C234.782 174.15 235.727 173.302 236.877 173.302C237.296 173.302 237.629 173.398 237.854 173.592C238.155 173.828 238.306 174.215 238.306 174.752C238.306 175.246 238.155 175.622 237.854 175.88C237.554 176.138 237.102 176.277 236.49 176.288C235.061 176.31 234.557 177.115 234.557 178.479V183.593C234.557 184.635 233.944 185.226 232.988 185.226ZM250.615 185.258C247.414 185.258 245.362 183.979 244.739 182.282C244.632 182.003 244.567 181.702 244.567 181.412C244.567 180.553 245.158 179.983 245.996 179.983C246.662 179.983 247.103 180.241 247.489 180.929C247.994 182.11 249.208 182.647 250.69 182.647C252.431 182.647 253.612 181.81 253.612 180.671C253.612 179.65 252.882 179.07 250.938 178.673L249.294 178.351C246.2 177.738 244.686 176.256 244.686 173.946C244.686 171.11 247.156 169.23 250.605 169.23C253.44 169.23 255.578 170.423 256.266 172.442C256.341 172.657 256.384 172.883 256.384 173.162C256.384 173.936 255.825 174.462 254.998 174.462C254.268 174.462 253.816 174.172 253.451 173.506C252.936 172.335 251.937 171.852 250.605 171.852C249.004 171.852 247.94 172.604 247.94 173.742C247.94 174.698 248.682 175.289 250.519 175.654L252.151 175.987C255.439 176.643 256.857 177.964 256.857 180.316C256.857 183.346 254.482 185.258 250.615 185.258ZM260.584 189.104C259.671 189.104 259.015 188.545 259.015 187.471V174.859C259.015 173.807 259.66 173.248 260.562 173.248C261.464 173.248 262.109 173.807 262.109 174.87V175.493H262.173C262.797 174.14 264.075 173.302 265.74 173.302C268.662 173.302 270.456 175.525 270.456 179.242C270.456 182.948 268.672 185.183 265.794 185.183C264.118 185.183 262.829 184.366 262.216 183.066H262.152V187.471C262.152 188.545 261.507 189.104 260.584 189.104ZM264.687 182.658C266.255 182.658 267.244 181.337 267.244 179.242C267.244 177.158 266.255 175.815 264.687 175.815C263.151 175.815 262.141 177.18 262.141 179.242C262.141 181.326 263.151 182.658 264.687 182.658ZM275.923 185.183C273.732 185.183 272.067 183.765 272.067 181.691C272.067 179.597 273.678 178.383 276.557 178.211L279.457 178.039V177.276C279.457 176.202 278.705 175.579 277.524 175.579C276.568 175.579 275.987 175.891 275.289 176.793C274.945 177.18 274.548 177.373 274.043 177.373C273.28 177.373 272.733 176.879 272.733 176.17C272.733 175.923 272.786 175.697 272.894 175.461C273.431 174.086 275.278 173.237 277.663 173.237C280.617 173.237 282.54 174.763 282.54 177.083V183.646C282.54 184.688 281.906 185.226 281.015 185.226C280.166 185.226 279.575 184.753 279.511 183.829V183.238H279.446C278.802 184.463 277.362 185.183 275.923 185.183ZM276.954 182.916C278.329 182.916 279.457 182.024 279.457 180.778V179.94L277.029 180.091C275.859 180.177 275.193 180.703 275.193 181.52C275.193 182.379 275.902 182.916 276.954 182.916ZM290.263 185.247C286.794 185.247 284.592 182.97 284.592 179.242C284.592 175.558 286.783 173.237 290.242 173.237C292.552 173.237 294.474 174.354 295.097 175.987C295.205 176.256 295.269 176.535 295.269 176.761C295.269 177.534 294.668 177.985 293.927 177.985C293.303 177.985 292.927 177.738 292.605 177.169C292.036 176.159 291.338 175.697 290.339 175.697C288.749 175.697 287.771 177.008 287.771 179.231C287.771 181.498 288.749 182.787 290.317 182.787C291.413 182.787 292.09 182.25 292.573 181.434C292.992 180.778 293.336 180.51 294.002 180.51C294.732 180.51 295.323 180.993 295.323 181.767C295.323 182.014 295.259 182.271 295.119 182.583C294.431 184.151 292.466 185.247 290.263 185.247ZM302.735 185.247C299.136 185.247 297.02 183.023 297.02 179.296C297.02 175.59 299.179 173.237 302.584 173.237C305.85 173.237 308.041 175.472 308.041 178.598C308.041 179.468 307.547 179.962 306.677 179.962H300.103V180.102C300.103 181.81 301.134 182.927 302.724 182.927C303.873 182.927 304.625 182.54 305.474 181.541C305.807 181.197 306.086 181.079 306.494 181.079C307.171 181.079 307.719 181.509 307.719 182.229C307.719 182.476 307.644 182.733 307.504 182.991C306.742 184.409 304.958 185.247 302.735 185.247ZM300.135 178.039H305.023C304.958 176.535 303.992 175.558 302.617 175.558C301.242 175.558 300.242 176.567 300.135 178.039Z"
      fill="black"/>
    <path
      d="M176.851 208.109C176.539 208.109 176.351 207.914 176.351 207.586V197.273C176.351 196.875 176.617 196.617 177.015 196.617C177.375 196.617 177.585 196.789 177.75 197.172L181.757 206.594H181.804L185.796 197.172C185.96 196.789 186.187 196.617 186.546 196.617C186.945 196.617 187.21 196.875 187.21 197.273V207.586C187.21 207.914 187.023 208.109 186.71 208.109C186.398 208.109 186.21 207.914 186.21 207.586V198.75H186.164L182.429 207.5C182.289 207.828 182.093 207.969 181.781 207.969C181.468 207.969 181.265 207.828 181.132 207.516L177.398 198.75H177.351V207.586C177.351 207.914 177.156 208.109 176.851 208.109ZM192.773 208.133C190.554 208.133 189.07 206.508 189.07 203.938C189.07 201.367 190.554 199.742 192.773 199.742C194.991 199.742 196.476 201.367 196.476 203.938C196.476 206.508 194.991 208.133 192.773 208.133ZM192.773 207.219C194.382 207.219 195.429 205.984 195.429 203.938C195.429 201.891 194.382 200.656 192.773 200.656C191.171 200.656 190.124 201.883 190.124 203.938C190.124 205.992 191.171 207.219 192.773 207.219ZM198.686 208.133C198.382 208.133 198.171 207.906 198.171 207.578V200.266C198.171 199.953 198.374 199.742 198.655 199.742C198.944 199.742 199.147 199.953 199.147 200.266V201.375H199.171C199.593 200.383 200.538 199.742 201.858 199.742C203.624 199.742 204.725 200.891 204.725 202.734V207.578C204.725 207.906 204.515 208.133 204.21 208.133C203.905 208.133 203.694 207.906 203.694 207.578V202.898C203.694 201.477 202.905 200.664 201.561 200.664C200.14 200.664 199.202 201.68 199.202 203.188V207.578C199.202 207.906 198.991 208.133 198.686 208.133ZM207.233 206.164V200.734H206.413C206.108 200.734 205.944 200.578 205.944 200.305C205.944 200.031 206.108 199.875 206.413 199.875H207.233V198.266C207.233 197.93 207.444 197.711 207.749 197.711C208.053 197.711 208.264 197.93 208.264 198.266V199.875H209.467C209.772 199.875 209.944 200.031 209.944 200.305C209.944 200.578 209.772 200.734 209.467 200.734H208.264V205.961C208.264 206.758 208.545 207.109 209.288 207.141L209.514 207.148C209.85 207.172 210.014 207.312 210.014 207.562C210.014 207.875 209.835 208.047 209.28 208.047H209.069C207.835 208.047 207.233 207.445 207.233 206.164ZM212.24 208.133C211.944 208.133 211.725 207.906 211.725 207.578V197.141C211.725 196.812 211.936 196.594 212.24 196.594C212.561 196.594 212.764 196.812 212.764 197.141V201.375H212.787C213.201 200.375 214.17 199.742 215.467 199.742C217.248 199.742 218.373 200.93 218.373 202.75V207.578C218.373 207.906 218.155 208.133 217.85 208.133C217.553 208.133 217.334 207.906 217.334 207.578V202.922C217.334 201.516 216.545 200.664 215.17 200.664C213.709 200.664 212.764 201.688 212.764 203.219V207.578C212.764 207.906 212.545 208.133 212.24 208.133ZM221.014 208.133C220.709 208.133 220.498 207.906 220.498 207.578V197.148C220.498 196.82 220.709 196.594 221.014 196.594C221.318 196.594 221.529 196.82 221.529 197.148V207.578C221.529 207.906 221.318 208.133 221.014 208.133ZM224.373 210.938C223.857 210.938 223.537 210.758 223.537 210.414C223.537 210.18 223.693 210.023 223.951 210.023C224.115 210.023 224.17 210.047 224.365 210.047C224.943 210.047 225.396 209.703 225.763 208.664L225.982 208.055L223.091 200.492C223.052 200.398 223.037 200.297 223.037 200.219C223.037 199.93 223.255 199.742 223.56 199.742C223.802 199.742 223.959 199.852 224.052 200.125L226.513 206.969H226.537L229.005 200.125C229.107 199.852 229.24 199.742 229.498 199.742C229.795 199.742 230.005 199.938 230.005 200.219C230.005 200.297 229.99 200.398 229.951 200.492L226.904 208.492C226.193 210.383 225.615 210.938 224.373 210.938ZM237.794 208.133C236.302 208.133 235.145 207.414 234.802 206.312C234.763 206.219 234.747 206.133 234.747 206.047C234.747 205.773 234.95 205.609 235.224 205.609C235.427 205.609 235.567 205.719 235.692 205.977C236.067 206.828 236.731 207.281 237.872 207.281C239.044 207.281 239.864 206.719 239.864 205.852C239.864 205.148 239.458 204.773 238.372 204.516L237.185 204.227C235.614 203.844 234.872 203.141 234.872 202.039C234.872 200.68 236.075 199.742 237.841 199.742C239.231 199.742 240.372 200.523 240.599 201.617C240.614 201.695 240.622 201.758 240.622 201.812C240.622 202.07 240.466 202.234 240.216 202.234C239.997 202.234 239.856 202.156 239.739 201.898C239.427 201.094 238.81 200.602 237.778 200.602C236.677 200.602 235.903 201.188 235.903 201.992C235.903 202.648 236.38 203.07 237.45 203.328L238.614 203.609C240.286 204.008 240.919 204.602 240.919 205.773C240.919 207.18 239.645 208.133 237.794 208.133ZM245.434 208.133C243.669 208.133 242.567 206.984 242.567 205.156V200.297C242.567 199.969 242.786 199.742 243.09 199.742C243.387 199.742 243.606 199.969 243.606 200.297V204.977C243.606 206.414 244.372 207.211 245.731 207.211C247.145 207.211 248.098 206.219 248.098 204.695V200.297C248.098 199.969 248.309 199.742 248.614 199.742C248.919 199.742 249.13 199.969 249.13 200.297V207.609C249.13 207.906 248.942 208.133 248.645 208.133C248.348 208.133 248.153 207.906 248.153 207.609V206.492H248.13C247.7 207.492 246.723 208.133 245.434 208.133ZM251.785 208.133C251.496 208.133 251.301 207.93 251.301 207.625V197.148C251.301 196.82 251.52 196.594 251.817 196.594C252.121 196.594 252.34 196.82 252.34 197.148V201.57H252.364C252.832 200.453 253.871 199.742 255.153 199.742C257.184 199.742 258.575 201.406 258.575 203.938C258.575 206.469 257.192 208.133 255.137 208.133C253.84 208.133 252.809 207.422 252.317 206.281H252.293V207.625C252.293 207.93 252.082 208.133 251.785 208.133ZM254.95 207.219C256.512 207.219 257.52 205.93 257.52 203.938C257.52 201.953 256.512 200.656 254.95 200.656C253.418 200.656 252.332 201.992 252.332 203.938C252.332 205.891 253.418 207.219 254.95 207.219ZM263.035 208.133C261.543 208.133 260.387 207.414 260.043 206.312C260.004 206.219 259.988 206.133 259.988 206.047C259.988 205.773 260.191 205.609 260.465 205.609C260.668 205.609 260.809 205.719 260.934 205.977C261.309 206.828 261.973 207.281 263.113 207.281C264.285 207.281 265.105 206.719 265.105 205.852C265.105 205.148 264.699 204.773 263.613 204.516L262.426 204.227C260.855 203.844 260.113 203.141 260.113 202.039C260.113 200.68 261.316 199.742 263.082 199.742C264.473 199.742 265.613 200.523 265.84 201.617C265.855 201.695 265.863 201.758 265.863 201.812C265.863 202.07 265.707 202.234 265.457 202.234C265.238 202.234 265.098 202.156 264.98 201.898C264.668 201.094 264.051 200.602 263.02 200.602C261.918 200.602 261.145 201.188 261.145 201.992C261.145 202.648 261.621 203.07 262.691 203.328L263.855 203.609C265.527 204.008 266.16 204.602 266.16 205.773C266.16 207.18 264.887 208.133 263.035 208.133ZM271.144 208.133C268.91 208.133 267.449 206.516 267.449 203.953C267.449 201.391 268.902 199.742 271.121 199.742C272.636 199.742 273.949 200.602 274.285 201.797C274.308 201.891 274.324 201.984 274.324 202.062C274.324 202.336 274.152 202.516 273.886 202.516C273.652 202.516 273.527 202.414 273.386 202.148C272.988 201.172 272.191 200.656 271.129 200.656C269.543 200.656 268.504 201.945 268.504 203.938C268.504 205.961 269.55 207.219 271.136 207.219C272.215 207.219 273.004 206.703 273.386 205.75C273.527 205.477 273.652 205.383 273.879 205.383C274.152 205.383 274.332 205.57 274.332 205.844C274.332 205.922 274.308 206.023 274.277 206.133C273.902 207.305 272.629 208.133 271.144 208.133ZM276.597 208.133C276.292 208.133 276.081 207.906 276.081 207.578V200.266C276.081 199.953 276.277 199.742 276.566 199.742C276.855 199.742 277.058 199.953 277.058 200.266V201.32H277.081C277.355 200.367 278.152 199.742 279.042 199.742C279.324 199.742 279.55 199.797 279.714 199.914C279.831 200 279.902 200.125 279.902 200.289C279.902 200.453 279.839 200.578 279.714 200.656C279.566 200.734 279.37 200.727 279.011 200.727C277.73 200.727 277.113 201.711 277.113 202.945V207.578C277.113 207.906 276.902 208.133 276.597 208.133ZM281.8 198.234C281.425 198.234 281.112 197.93 281.112 197.547C281.112 197.172 281.425 196.867 281.8 196.867C282.183 196.867 282.495 197.172 282.495 197.547C282.495 197.93 282.183 198.234 281.8 198.234ZM281.8 208.133C281.495 208.133 281.284 207.906 281.284 207.578V200.297C281.284 199.969 281.495 199.742 281.8 199.742C282.105 199.742 282.315 199.969 282.315 200.297V207.578C282.315 207.906 282.105 208.133 281.8 208.133ZM285.003 210.836C284.698 210.836 284.487 210.609 284.487 210.281V200.266C284.487 199.953 284.69 199.742 284.979 199.742C285.268 199.742 285.464 199.953 285.464 200.266V201.594H285.495C285.94 200.516 286.971 199.742 288.292 199.742C290.346 199.742 291.753 201.414 291.753 203.938C291.753 206.469 290.354 208.133 288.315 208.133C287.003 208.133 285.979 207.383 285.55 206.328H285.518V210.281C285.518 210.609 285.307 210.836 285.003 210.836ZM288.112 207.219C289.682 207.219 290.698 205.922 290.698 203.938C290.698 201.961 289.682 200.656 288.112 200.656C286.573 200.656 285.518 201.984 285.518 203.938C285.518 205.898 286.573 207.219 288.112 207.219ZM293.909 206.164V200.734H293.088C292.784 200.734 292.62 200.578 292.62 200.305C292.62 200.031 292.784 199.875 293.088 199.875H293.909V198.266C293.909 197.93 294.12 197.711 294.424 197.711C294.729 197.711 294.94 197.93 294.94 198.266V199.875H296.143C296.448 199.875 296.62 200.031 296.62 200.305C296.62 200.578 296.448 200.734 296.143 200.734H294.94V205.961C294.94 206.758 295.221 207.109 295.963 207.141L296.19 207.148C296.526 207.172 296.69 207.312 296.69 207.562C296.69 207.875 296.51 208.047 295.955 208.047H295.745C294.51 208.047 293.909 207.445 293.909 206.164ZM298.916 198.234C298.541 198.234 298.229 197.93 298.229 197.547C298.229 197.172 298.541 196.867 298.916 196.867C299.299 196.867 299.611 197.172 299.611 197.547C299.611 197.93 299.299 198.234 298.916 198.234ZM298.916 208.133C298.611 208.133 298.4 207.906 298.4 207.578V200.297C298.4 199.969 298.611 199.742 298.916 199.742C299.221 199.742 299.432 199.969 299.432 200.297V207.578C299.432 207.906 299.221 208.133 298.916 208.133ZM304.9 208.133C302.681 208.133 301.197 206.508 301.197 203.938C301.197 201.367 302.681 199.742 304.9 199.742C307.119 199.742 308.603 201.367 308.603 203.938C308.603 206.508 307.119 208.133 304.9 208.133ZM304.9 207.219C306.51 207.219 307.556 205.984 307.556 203.938C307.556 201.891 306.51 200.656 304.9 200.656C303.299 200.656 302.252 201.883 302.252 203.938C302.252 205.992 303.299 207.219 304.9 207.219ZM310.814 208.133C310.509 208.133 310.298 207.906 310.298 207.578V200.266C310.298 199.953 310.501 199.742 310.783 199.742C311.072 199.742 311.275 199.953 311.275 200.266V201.375H311.298C311.72 200.383 312.665 199.742 313.986 199.742C315.751 199.742 316.853 200.891 316.853 202.734V207.578C316.853 207.906 316.642 208.133 316.337 208.133C316.033 208.133 315.822 207.906 315.822 207.578V202.898C315.822 201.477 315.033 200.664 313.689 200.664C312.267 200.664 311.33 201.68 311.33 203.188V207.578C311.33 207.906 311.119 208.133 310.814 208.133Z"
      fill="black"/>
    <path
      d="M378.417 186.75H384.992V190.775H378.417V186.75ZM397.091 178.75V197.5H391.966V180.55L394.366 182.775L386.291 184.2V180.2L393.291 178.75H397.091ZM409.63 197.9C408.013 197.9 406.571 197.658 405.305 197.175C404.055 196.675 403.038 196 402.255 195.15C401.488 194.3 401.021 193.358 400.855 192.325H405.63C405.88 192.825 406.305 193.25 406.905 193.6C407.521 193.95 408.38 194.125 409.48 194.125C410.73 194.125 411.755 193.9 412.555 193.45C413.355 192.983 413.946 192.325 414.33 191.475C414.73 190.608 414.93 189.558 414.93 188.325C414.93 186.975 414.713 185.842 414.28 184.925C413.846 184.008 413.213 183.317 412.38 182.85C411.563 182.383 410.571 182.15 409.405 182.15C408.571 182.15 407.88 182.267 407.33 182.5C406.78 182.717 406.355 183.017 406.055 183.4C405.771 183.783 405.63 184.217 405.63 184.7C405.63 185.2 405.763 185.633 406.03 186C406.313 186.367 406.721 186.658 407.255 186.875C407.788 187.075 408.455 187.175 409.255 187.175C410.321 187.175 411.338 186.942 412.305 186.475C413.288 186.008 414.171 185.317 414.955 184.4L416.705 185.6C416.205 186.633 415.538 187.558 414.705 188.375C413.888 189.175 412.921 189.808 411.805 190.275C410.688 190.742 409.405 190.975 407.955 190.975C406.405 190.975 405.063 190.717 403.93 190.2C402.813 189.683 401.955 188.967 401.355 188.05C400.755 187.133 400.446 186.075 400.43 184.875C400.446 183.608 400.805 182.483 401.505 181.5C402.205 180.517 403.23 179.75 404.58 179.2C405.93 178.633 407.563 178.35 409.48 178.35C411.78 178.35 413.688 178.767 415.205 179.6C416.738 180.433 417.888 181.583 418.655 183.05C419.421 184.517 419.796 186.2 419.78 188.1C419.796 190 419.421 191.692 418.655 193.175C417.888 194.642 416.746 195.8 415.23 196.65C413.73 197.483 411.863 197.9 409.63 197.9ZM424.773 197.75C424.24 197.75 423.748 197.625 423.298 197.375C422.865 197.125 422.523 196.783 422.273 196.35C422.023 195.9 421.898 195.408 421.898 194.875C421.898 194.342 422.023 193.858 422.273 193.425C422.523 192.992 422.865 192.65 423.298 192.4C423.748 192.133 424.24 192 424.773 192C425.323 192 425.815 192.133 426.248 192.4C426.682 192.65 427.023 192.992 427.273 193.425C427.523 193.858 427.648 194.342 427.648 194.875C427.648 195.408 427.523 195.9 427.273 196.35C427.023 196.783 426.682 197.125 426.248 197.375C425.815 197.625 425.323 197.75 424.773 197.75ZM438.974 197.9C437.358 197.9 435.916 197.658 434.649 197.175C433.399 196.675 432.383 196 431.599 195.15C430.833 194.3 430.366 193.358 430.199 192.325H434.974C435.224 192.825 435.649 193.25 436.249 193.6C436.866 193.95 437.724 194.125 438.824 194.125C440.074 194.125 441.099 193.9 441.899 193.45C442.699 192.983 443.291 192.325 443.674 191.475C444.074 190.608 444.274 189.558 444.274 188.325C444.274 186.975 444.058 185.842 443.624 184.925C443.191 184.008 442.558 183.317 441.724 182.85C440.908 182.383 439.916 182.15 438.749 182.15C437.916 182.15 437.224 182.267 436.674 182.5C436.124 182.717 435.699 183.017 435.399 183.4C435.116 183.783 434.974 184.217 434.974 184.7C434.974 185.2 435.108 185.633 435.374 186C435.658 186.367 436.066 186.658 436.599 186.875C437.133 187.075 437.799 187.175 438.599 187.175C439.666 187.175 440.683 186.942 441.649 186.475C442.633 186.008 443.516 185.317 444.299 184.4L446.049 185.6C445.549 186.633 444.883 187.558 444.049 188.375C443.233 189.175 442.266 189.808 441.149 190.275C440.033 190.742 438.749 190.975 437.299 190.975C435.749 190.975 434.408 190.717 433.274 190.2C432.158 189.683 431.299 188.967 430.699 188.05C430.099 187.133 429.791 186.075 429.774 184.875C429.791 183.608 430.149 182.483 430.849 181.5C431.549 180.517 432.574 179.75 433.924 179.2C435.274 178.633 436.908 178.35 438.824 178.35C441.124 178.35 443.033 178.767 444.549 179.6C446.083 180.433 447.233 181.583 447.999 183.05C448.766 184.517 449.141 186.2 449.124 188.1C449.141 190 448.766 191.692 447.999 193.175C447.233 194.642 446.091 195.8 444.574 196.65C443.074 197.483 441.208 197.9 438.974 197.9ZM460.91 197.9C459.293 197.9 457.852 197.658 456.585 197.175C455.335 196.675 454.318 196 453.535 195.15C452.768 194.3 452.302 193.358 452.135 192.325H456.91C457.16 192.825 457.585 193.25 458.185 193.6C458.802 193.95 459.66 194.125 460.76 194.125C462.01 194.125 463.035 193.9 463.835 193.45C464.635 192.983 465.227 192.325 465.61 191.475C466.01 190.608 466.21 189.558 466.21 188.325C466.21 186.975 465.993 185.842 465.56 184.925C465.127 184.008 464.493 183.317 463.66 182.85C462.843 182.383 461.852 182.15 460.685 182.15C459.852 182.15 459.16 182.267 458.61 182.5C458.06 182.717 457.635 183.017 457.335 183.4C457.052 183.783 456.91 184.217 456.91 184.7C456.91 185.2 457.043 185.633 457.31 186C457.593 186.367 458.002 186.658 458.535 186.875C459.068 187.075 459.735 187.175 460.535 187.175C461.602 187.175 462.618 186.942 463.585 186.475C464.568 186.008 465.452 185.317 466.235 184.4L467.985 185.6C467.485 186.633 466.818 187.558 465.985 188.375C465.168 189.175 464.202 189.808 463.085 190.275C461.968 190.742 460.685 190.975 459.235 190.975C457.685 190.975 456.343 190.717 455.21 190.2C454.093 189.683 453.235 188.967 452.635 188.05C452.035 187.133 451.727 186.075 451.71 184.875C451.727 183.608 452.085 182.483 452.785 181.5C453.485 180.517 454.51 179.75 455.86 179.2C457.21 178.633 458.843 178.35 460.76 178.35C463.06 178.35 464.968 178.767 466.485 179.6C468.018 180.433 469.168 181.583 469.935 183.05C470.702 184.517 471.077 186.2 471.06 188.1C471.077 190 470.702 191.692 469.935 193.175C469.168 194.642 468.027 195.8 466.51 196.65C465.01 197.483 463.143 197.9 460.91 197.9ZM483.046 197.9C481.179 197.9 479.546 197.633 478.146 197.1C476.746 196.55 475.646 195.783 474.846 194.8C474.062 193.8 473.646 192.65 473.596 191.35H478.671C478.787 192.183 479.229 192.842 479.996 193.325C480.779 193.808 481.821 194.05 483.121 194.05C484.354 194.05 485.287 193.875 485.921 193.525C486.571 193.158 486.896 192.658 486.896 192.025C486.896 191.675 486.796 191.367 486.596 191.1C486.412 190.833 486.096 190.617 485.646 190.45C485.196 190.283 484.579 190.167 483.796 190.1L481.021 189.85C478.504 189.633 476.671 189.05 475.521 188.1C474.371 187.15 473.796 185.892 473.796 184.325C473.796 183.058 474.154 181.983 474.871 181.1C475.587 180.2 476.596 179.517 477.896 179.05C479.196 178.583 480.729 178.35 482.496 178.35C484.229 178.35 485.754 178.608 487.071 179.125C488.404 179.625 489.454 180.342 490.221 181.275C490.987 182.192 491.412 183.267 491.496 184.5H486.446C486.346 183.85 485.971 183.308 485.321 182.875C484.687 182.425 483.721 182.2 482.421 182.2C481.287 182.2 480.404 182.375 479.771 182.725C479.154 183.058 478.846 183.533 478.846 184.15C478.846 184.467 478.929 184.75 479.096 185C479.262 185.233 479.554 185.433 479.971 185.6C480.387 185.767 480.962 185.883 481.696 185.95L484.771 186.2C486.521 186.333 487.921 186.625 488.971 187.075C490.021 187.508 490.779 188.092 491.246 188.825C491.729 189.558 491.971 190.45 491.971 191.5C491.971 192.767 491.604 193.883 490.871 194.85C490.137 195.817 489.104 196.567 487.771 197.1C486.437 197.633 484.862 197.9 483.046 197.9ZM480.546 199.55V195.975H484.971V199.55H480.546ZM480.546 180.725V176.7H484.971V180.725H480.546Z"
      fill="url(#paint2_linear_310_91874)"/>
  </g>
  <path
    d="M451.405 124.558C452.443 123.166 454.02 123.16 455.44 123.894C459.985 126.248 463.319 130.557 469.05 128.829C472.353 127.833 475.3 124.542 478.303 123.526C479.999 122.953 481.646 124.029 482.056 125.738C482.316 126.818 481.864 127.484 481.373 128.381C478.978 132.769 475.003 136.073 476.666 141.599C477.664 144.916 480.927 147.843 481.959 150.848C482.877 153.518 480.065 155.487 477.498 154.16C472.953 151.807 469.619 147.497 463.888 149.225C460.57 150.226 457.64 153.491 454.635 154.526C451.964 155.445 449.997 152.635 451.326 150.067C453.679 145.526 457.99 142.164 456.271 136.453C455.283 133.169 452.21 130.371 451.026 127.336C450.666 126.414 450.806 125.358 451.402 124.555L451.405 124.558Z"
    fill="#DFF671"/>
  <path
    d="M18.0402 127.227C-8.49159 173.182 67.4041 266.671 187.558 336.042C307.712 405.413 426.624 424.396 453.156 378.441"
    stroke="url(#paint3_linear_310_91874)" stroke-width="4"/>
  <g clip-path="url(#clip2_310_91874)">
    <path
      d="M182.055 311.616C181.853 311.891 182.95 312.171 183.126 312.181C184.6 312.267 185.682 310.3 187.141 309.942C189.518 309.359 190.266 311.569 192.083 312.139C192.413 312.243 192.856 312.058 192.978 312.553C193.144 313.224 192.316 313.169 191.879 313.1C189.954 312.794 189.032 309.878 186.729 311.221C185.265 312.075 184.851 313.369 182.751 313.123C181.145 312.936 180.13 310.824 178.569 310.855C176.781 310.89 176.087 313.408 173.552 313.123C171.894 312.937 170.873 310.854 169.372 310.854C167.868 310.854 166.818 312.907 165.276 313.115C163.276 313.384 161.765 311.857 160.403 310.63C159.922 310.432 159.316 310.822 158.891 311.068C158.064 311.546 156.627 313.009 155.798 313.114C155.565 313.143 155.181 313.177 155.063 312.935C154.781 312.169 155.512 312.223 156.031 311.937C156.862 311.48 157.621 310.644 158.446 310.14C158.488 309.572 156.843 307.776 157.776 307.489L190.096 305.393C190.334 305.362 190.604 305.675 190.583 305.901C190.548 306.273 188.667 307.683 188.269 307.978C186.342 309.409 184.231 310.622 182.054 311.617L182.055 311.616ZM188.56 306.434L158.735 308.458L159.383 309.594C159.554 309.702 159.931 309.528 160.175 309.533C161.076 309.553 162.339 311.198 163.258 311.692C166.307 313.328 166.753 309.826 169.362 309.835C170.98 309.841 171.681 311.131 172.888 311.819C174.72 312.864 175.459 311.342 176.803 310.482C178.06 309.678 179.035 309.657 180.317 310.408C180.69 310.626 180.894 311.033 181.313 310.914C181.957 310.731 183.269 309.95 183.915 309.591C185.539 308.688 187.159 307.66 188.56 306.433V306.434Z"
      fill="white"/>
    <path
      d="M160.242 281.111C160.342 281.009 160.567 280.984 160.708 281.009C161.016 281.064 162.185 281.697 162.545 281.887C170.171 285.884 177.271 294.025 179.146 302.647C179.221 302.991 179.478 304.047 179.453 304.312C179.422 304.644 179.075 304.762 178.78 304.719C178.211 304.636 177.028 304.061 176.365 303.864C171.182 302.331 166.6 302.699 161.797 305.159C161.224 305.453 160.324 306.402 159.938 305.441L160.011 305.14C165.605 298.325 164.468 288.911 160.168 281.75C160.096 281.578 160.114 281.241 160.241 281.112L160.242 281.111ZM178.245 303.418C176.769 295.537 171.097 288.549 164.579 284.253C164.279 284.054 161.924 282.586 161.799 282.691C164.444 287.806 165.718 293.8 164.076 299.461C163.624 301.021 162.929 302.516 162.079 303.888C167.161 301.39 172.998 301.476 178.245 303.417V303.418Z"
      fill="white"/>
    <path
      d="M181.614 303.866C181.46 303.718 180.494 300.353 180.291 299.791C178.474 294.759 175.773 290.198 171.693 286.746C171.34 286.447 170.292 285.872 170.258 285.464C170.187 284.619 171.287 285.077 171.697 285.233C176.906 287.212 182.39 293.985 184.891 298.895C185.51 300.11 186.695 302.632 186.918 303.914C186.957 304.142 186.956 304.319 186.79 304.501C186.694 304.557 186.579 304.602 186.467 304.601C185.957 304.596 184.779 303.89 184.043 303.806C183.692 303.766 183.204 303.774 182.846 303.797C182.489 303.82 181.886 304.126 181.614 303.864V303.866ZM185.679 303.231C183.714 297.865 180.308 292.771 175.967 289.1C175.538 288.738 175.03 288.293 174.53 288.062C178.336 292.174 180.815 297.425 182.245 302.85C183.453 302.667 184.537 302.8 185.678 303.23L185.679 303.231Z"
      fill="white"/>
  </g>
  <g clip-path="url(#clip3_310_91874)">
    <path
      d="M232.021 316.592C232.025 315.671 232.109 314.739 232.249 313.83C233.611 305.036 241.03 297.957 249.964 296.942C250.62 296.867 251.268 296.844 251.927 296.818C251.954 296.817 252.012 296.835 251.998 296.788C245.846 296.676 239.926 293.66 236.209 288.853C233.472 285.314 232.203 281.531 232.021 277.074C232.02 277.047 232.038 276.99 231.99 277.004C231.873 283.352 228.552 289.5 223.308 293.107C219.903 295.448 216.223 296.611 212.074 296.777C212.047 296.778 211.989 296.76 212.003 296.808C215.772 296.859 219.387 297.973 222.542 299.97C228.091 303.481 231.668 309.547 231.981 316.095C231.988 316.242 231.962 316.422 231.98 316.562C231.984 316.591 231.996 316.625 232.021 316.592L232.021 316.592Z"
      fill="white"/>
  </g>
  <path
    d="M297.402 285.703C294.614 285.703 292.435 287.803 290.462 290.47C287.751 287.018 285.484 285.703 282.77 285.703C277.239 285.703 273 292.902 273 300.522C273 305.29 275.307 308.297 279.171 308.297C281.952 308.297 283.952 306.986 287.507 300.771C287.507 300.771 288.989 298.154 290.009 296.351C290.366 296.928 290.743 297.549 291.138 298.216L292.805 301.02C296.053 306.455 297.863 308.297 301.142 308.297C304.906 308.297 307 305.249 307 300.381C307 292.403 302.667 285.703 297.402 285.703ZM284.796 299.088C281.913 303.607 280.916 304.62 279.311 304.62C277.66 304.62 276.678 303.17 276.678 300.584C276.678 295.052 279.436 289.396 282.724 289.396C284.504 289.396 285.992 290.424 288.271 293.687C286.107 297.006 284.796 299.088 284.796 299.088ZM295.676 298.519L293.682 295.195C293.143 294.317 292.624 293.51 292.127 292.772C293.924 289.999 295.406 288.617 297.168 288.617C300.83 288.617 303.759 294.008 303.759 300.631C303.759 303.155 302.933 304.62 301.22 304.62C299.578 304.62 298.793 303.535 295.676 298.519Z"
    fill="white"/>
  <g clip-path="url(#clip4_310_91874)">
    <path
      d="M361.707 294.097C362.433 291.918 362.183 289.531 361.022 287.549C359.276 284.509 355.766 282.945 352.338 283.681C350.813 281.963 348.622 280.986 346.325 281C342.821 280.992 339.712 283.248 338.634 286.582C336.383 287.043 334.44 288.452 333.303 290.449C331.544 293.481 331.945 297.303 334.295 299.903C333.569 302.082 333.819 304.469 334.98 306.451C336.726 309.491 340.236 311.055 343.664 310.319C345.188 312.037 347.38 313.014 349.677 312.999C353.183 313.008 356.293 310.75 357.371 307.413C359.622 306.952 361.565 305.543 362.702 303.546C364.459 300.514 364.057 296.695 361.708 294.095L361.707 294.097ZM349.679 310.908C348.276 310.91 346.917 310.419 345.84 309.52C345.889 309.494 345.974 309.447 346.029 309.413L352.401 305.733C352.727 305.548 352.927 305.201 352.925 304.826V295.843L355.618 297.398C355.647 297.412 355.666 297.44 355.67 297.472V304.911C355.666 308.219 352.987 310.901 349.679 310.908ZM336.795 305.405C336.092 304.191 335.839 302.768 336.08 301.387C336.127 301.415 336.21 301.466 336.269 301.5L342.641 305.18C342.964 305.369 343.364 305.369 343.688 305.18L351.467 300.688V303.798C351.469 303.83 351.454 303.861 351.429 303.881L344.988 307.6C342.119 309.252 338.455 308.27 336.796 305.405H336.795ZM335.118 291.496C335.818 290.28 336.923 289.35 338.239 288.867C338.239 288.922 338.236 289.019 338.236 289.087V296.448C338.234 296.822 338.434 297.169 338.759 297.354L346.538 301.845L343.845 303.4C343.818 303.418 343.784 303.421 343.754 303.408L337.312 299.686C334.449 298.028 333.467 294.365 335.117 291.497L335.118 291.496ZM357.244 296.645L349.465 292.153L352.158 290.599C352.185 290.581 352.219 290.578 352.249 290.591L358.691 294.31C361.559 295.967 362.542 299.636 360.885 302.504C360.184 303.718 359.08 304.648 357.765 305.132V297.551C357.768 297.177 357.569 296.831 357.245 296.645H357.244ZM359.924 292.611C359.877 292.582 359.794 292.532 359.735 292.498L353.363 288.818C353.04 288.629 352.64 288.629 352.316 288.818L344.537 293.31V290.2C344.535 290.168 344.55 290.137 344.575 290.117L351.016 286.401C353.885 284.746 357.553 285.731 359.207 288.601C359.906 289.813 360.159 291.232 359.922 292.611H359.924ZM343.073 298.154L340.379 296.599C340.35 296.585 340.331 296.557 340.327 296.525V289.086C340.329 285.774 343.016 283.09 346.328 283.092C347.729 283.092 349.085 283.584 350.162 284.48C350.113 284.506 350.029 284.553 349.973 284.587L343.601 288.267C343.275 288.452 343.075 288.798 343.077 289.173L343.073 298.152V298.154ZM344.536 295L348.001 292.999L351.466 294.999V299L348.001 301L344.536 299V295Z"
      fill="white"/>
  </g>
  <path
    d="M403.236 298.015C402.805 298.319 402.375 298.622 401.944 298.926C401.563 299.193 401.183 299.46 400.802 299.725L399.3 300.775C398.232 301.521 397.159 302.266 396.097 303.025C395.626 303.361 395.127 303.681 394.731 304.102C394.274 304.582 393.873 305.167 394.253 305.888C394.439 306.24 394.665 306.563 395.165 306.601C395.908 306.658 396.44 306.353 396.979 305.875C397.752 305.183 398.6 304.579 399.418 303.939C400.018 303.47 400.617 302.999 401.222 302.538C401.743 302.141 402.27 301.755 402.799 301.368C402.834 301.342 402.893 301.349 402.942 301.341C402.942 301.455 402.984 301.589 402.937 301.68C402.447 302.585 401.932 303.478 401.436 304.38C400.947 305.268 400.48 306.17 399.982 307.053C399.623 307.689 399.213 308.296 398.86 308.934C398.735 309.181 398.657 309.449 398.629 309.725C398.573 310.081 398.561 310.442 398.595 310.801C398.664 311.369 399.008 311.694 399.557 311.894C399.809 311.989 400.079 312.021 400.346 311.987C400.613 311.953 400.867 311.854 401.088 311.699C401.414 311.483 401.609 311.036 401.798 310.659C402.142 309.967 402.442 309.251 402.753 308.546C402.998 307.991 403.211 307.423 403.471 306.876C403.784 306.214 404.138 305.573 404.459 304.916C404.786 304.239 405.117 303.559 405.416 302.869C405.65 302.331 405.836 301.772 406.052 301.227C406.081 301.154 406.16 301.101 406.215 301.038C406.245 301.106 406.267 301.178 406.282 301.251C406.334 301.936 406.378 302.622 406.43 303.307C406.472 303.853 406.519 304.399 406.569 304.945C406.697 306.286 406.785 307.635 406.977 308.967C407.082 309.683 407.332 310.39 407.597 311.068C407.852 311.723 408.732 311.627 409.295 311.01C409.803 310.453 409.572 309.88 409.494 309.3C409.376 308.426 409.233 307.555 409.096 306.683C409.014 306.175 408.933 305.666 408.841 305.16C408.669 304.221 408.493 303.285 408.311 302.35C408.29 302.248 408.214 302.157 408.184 302.055C408.175 301.984 408.177 301.913 408.19 301.843C408.277 301.854 408.406 301.832 408.446 301.882C408.889 302.446 409.316 303.02 409.75 303.589C410.113 304.063 410.484 304.533 410.849 305.004C411.303 305.584 411.723 306.204 412.221 306.743C412.873 307.458 413.55 308.162 414.291 308.777C414.699 309.116 415.168 308.916 415.632 308.612C416.184 308.248 416.462 307.317 416.276 306.873C416.027 306.306 415.719 305.768 415.358 305.267C414.918 304.628 414.401 304.044 413.955 303.409C413.367 302.571 412.814 301.709 412.248 300.853C411.929 300.366 411.622 299.87 411.249 299.28C411.575 299.329 411.831 299.358 412.081 299.407C412.292 299.448 412.497 299.523 412.707 299.565C413.448 299.712 414.188 299.855 414.93 299.993C415.654 300.126 416.378 300.261 417.105 300.373C417.763 300.474 418.425 300.597 419.087 300.604C419.348 300.604 419.786 300.363 419.837 300.155C419.918 299.809 419.785 299.393 419.69 299.021C419.568 298.545 419.096 298.643 418.77 298.545C418.094 298.343 417.398 298.202 416.71 298.037C416.48 297.982 416.252 297.919 416.02 297.879C415.44 297.78 414.852 297.721 414.279 297.591C413.706 297.461 413.173 297.26 412.615 297.106C412.331 297.029 412.033 297.003 411.744 296.94C411.352 296.857 410.962 296.763 410.572 296.672C410.557 296.672 410.548 296.644 410.506 296.593C410.571 296.576 410.636 296.564 410.703 296.556C412.229 296.497 413.757 296.456 415.282 296.378C416.342 296.323 417.402 296.237 418.461 296.122C418.659 296.1 418.832 295.873 419.02 295.747C419.277 295.575 419.57 295.442 419.784 295.226C419.857 295.146 419.914 295.051 419.951 294.949C419.988 294.846 420.004 294.737 420 294.627C419.952 294.229 419.937 293.77 419.412 293.634C419.156 293.568 418.911 293.412 418.655 293.397C418.349 293.379 418.034 293.455 417.728 293.516C417.397 293.581 417.075 293.676 416.749 293.759C416.087 293.93 415.425 294.109 414.76 294.271C414.125 294.426 413.483 294.552 412.849 294.712C412.097 294.901 411.351 295.116 410.601 295.315C410.543 295.316 410.486 295.306 410.432 295.286C410.445 295.224 410.432 295.141 410.473 295.106C411.109 294.483 411.748 293.864 412.392 293.248C413.207 292.464 414.018 291.675 414.838 290.897C415.507 290.26 416.209 289.655 416.845 288.988C417.013 288.81 417.089 288.42 417.028 288.174C416.978 287.975 416.67 287.734 416.457 287.714C416.267 287.697 416.042 287.943 415.848 288.092C415.338 288.482 414.829 288.87 414.335 289.28C413.776 289.744 413.234 290.23 412.684 290.707C412.088 291.225 411.492 291.745 410.891 292.259C410.738 292.394 410.553 292.487 410.354 292.53C410.428 292.335 410.514 292.146 410.612 291.963C410.923 291.455 411.243 290.954 411.572 290.459C411.875 290.003 412.202 289.563 412.507 289.109C412.869 288.571 413.333 288.065 413.54 287.469C413.719 286.956 413.621 286.335 413.593 285.764C413.586 285.655 413.32 285.539 413.157 285.464C412.722 285.265 411.934 285.519 411.678 285.922C411.055 286.886 410.421 287.842 409.807 288.811C409.313 289.593 408.831 290.384 408.363 291.184C408.076 291.673 407.826 292.184 407.552 292.681C407.525 292.731 407.451 292.755 407.399 292.792C407.345 292.686 407.256 292.582 407.245 292.472C407.213 292.113 407.215 291.751 407.194 291.39C407.151 290.671 407.112 289.951 407.052 289.232C406.97 288.294 406.873 287.36 406.78 286.423C406.702 285.646 406.661 284.862 406.527 284.096C406.458 283.702 406.09 283.516 405.731 283.321C405.161 283.016 404.93 283.494 404.636 283.741C404.288 284.031 404.273 285.099 404.433 285.547C404.576 285.945 404.591 286.39 404.671 286.812C404.82 287.598 404.982 288.386 405.123 289.17C405.236 289.803 405.31 290.445 405.432 291.074C405.59 291.891 405.783 292.703 405.95 293.519C405.963 293.581 405.899 293.659 405.854 293.773C405.505 293.264 405.192 292.796 404.866 292.337C404.588 291.947 404.286 291.575 404.009 291.184C403.608 290.617 403.236 290.025 402.824 289.469C402.301 288.758 401.775 288.047 401.208 287.372C400.672 286.722 400.098 286.106 399.487 285.528C399.304 285.357 398.859 285.267 398.655 285.376C398.307 285.561 397.996 285.924 398.302 286.402C398.709 287.04 399.124 287.678 399.565 288.294C400.08 289.008 400.631 289.696 401.161 290.399C401.691 291.103 402.186 291.804 402.716 292.491C403.226 293.153 403.76 293.795 404.28 294.449C404.318 294.498 404.325 294.573 404.39 294.768C403.905 294.437 403.53 294.175 403.149 293.923C402.606 293.562 402.053 293.217 401.512 292.852C400.488 292.16 399.474 291.458 398.451 290.762L396.896 289.702C396.41 289.371 395.323 289.552 394.999 290.016C394.823 290.264 395.081 291.207 395.347 291.374C395.841 291.687 396.315 292.036 396.809 292.349C397.437 292.747 398.076 293.125 398.711 293.509C399.282 293.854 399.841 294.21 400.417 294.541C401.137 294.955 401.87 295.352 402.597 295.758C402.758 295.835 402.909 295.932 403.045 296.049C403.105 296.109 403.108 296.272 403.078 296.369C403.059 296.432 402.933 296.498 402.854 296.499C401.957 296.524 401.061 296.531 400.17 296.555C398.628 296.597 397.087 296.645 395.545 296.698C394.703 296.728 393.851 296.713 393.026 296.85C392.686 296.906 392.315 297.25 392.118 297.567C392.018 297.726 391.98 297.918 392.012 298.105C392.044 298.292 392.143 298.46 392.291 298.575C392.361 298.63 392.447 298.659 392.536 298.658C393.656 298.603 394.776 298.543 395.895 298.478C396.35 298.451 396.804 298.401 397.259 298.37C397.946 298.324 398.635 298.3 399.322 298.24C400.239 298.157 401.154 298.054 402.071 297.958C402.438 297.919 402.804 297.875 403.174 297.829L403.236 298.015Z"
    fill="white"/>
  <path
    d="M460.653 282.5V294.5H456.973V283.828L458.653 285.38L453.421 286.292V283.444L457.933 282.5H460.653ZM469.567 294.772C468.18 294.772 466.97 294.511 465.935 293.988C464.911 293.465 464.116 292.735 463.551 291.796C462.986 290.857 462.703 289.759 462.703 288.5C462.703 287.241 462.986 286.143 463.551 285.204C464.116 284.265 464.911 283.535 465.935 283.012C466.97 282.489 468.18 282.228 469.567 282.228C470.943 282.228 472.143 282.489 473.167 283.012C474.202 283.535 475.002 284.265 475.567 285.204C476.143 286.143 476.431 287.241 476.431 288.5C476.431 289.759 476.143 290.857 475.567 291.796C475.002 292.735 474.202 293.465 473.167 293.988C472.143 294.511 470.943 294.772 469.567 294.772ZM469.567 291.764C470.57 291.764 471.343 291.481 471.887 290.916C472.442 290.34 472.719 289.535 472.719 288.5C472.719 287.455 472.442 286.649 471.887 286.084C471.343 285.519 470.57 285.236 469.567 285.236C468.575 285.236 467.796 285.519 467.231 286.084C466.676 286.649 466.399 287.455 466.399 288.5C466.399 289.535 466.676 290.34 467.231 290.916C467.796 291.481 468.575 291.764 469.567 291.764ZM484.84 294.772C483.453 294.772 482.243 294.511 481.208 293.988C480.184 293.465 479.389 292.735 478.824 291.796C478.259 290.857 477.976 289.759 477.976 288.5C477.976 287.241 478.259 286.143 478.824 285.204C479.389 284.265 480.184 283.535 481.208 283.012C482.243 282.489 483.453 282.228 484.84 282.228C486.216 282.228 487.416 282.489 488.44 283.012C489.475 283.535 490.275 284.265 490.84 285.204C491.416 286.143 491.704 287.241 491.704 288.5C491.704 289.759 491.416 290.857 490.84 291.796C490.275 292.735 489.475 293.465 488.44 293.988C487.416 294.511 486.216 294.772 484.84 294.772ZM484.84 291.764C485.843 291.764 486.616 291.481 487.16 290.916C487.715 290.34 487.992 289.535 487.992 288.5C487.992 287.455 487.715 286.649 487.16 286.084C486.616 285.519 485.843 285.236 484.84 285.236C483.848 285.236 483.069 285.519 482.504 286.084C481.949 286.649 481.672 287.455 481.672 288.5C481.672 289.535 481.949 290.34 482.504 290.916C483.069 291.481 483.848 291.764 484.84 291.764ZM500.113 294.772C498.727 294.772 497.516 294.511 496.481 293.988C495.457 293.465 494.663 292.735 494.097 291.796C493.532 290.857 493.249 289.759 493.249 288.5C493.249 287.241 493.532 286.143 494.097 285.204C494.663 284.265 495.457 283.535 496.481 283.012C497.516 282.489 498.727 282.228 500.113 282.228C501.489 282.228 502.689 282.489 503.713 283.012C504.748 283.535 505.548 284.265 506.113 285.204C506.689 286.143 506.977 287.241 506.977 288.5C506.977 289.759 506.689 290.857 506.113 291.796C505.548 292.735 504.748 293.465 503.713 293.988C502.689 294.511 501.489 294.772 500.113 294.772ZM500.113 291.764C501.116 291.764 501.889 291.481 502.433 290.916C502.988 290.34 503.265 289.535 503.265 288.5C503.265 287.455 502.988 286.649 502.433 286.084C501.889 285.519 501.116 285.236 500.113 285.236C499.121 285.236 498.343 285.519 497.777 286.084C497.223 286.649 496.945 287.455 496.945 288.5C496.945 289.535 497.223 290.34 497.777 290.916C498.343 291.481 499.121 291.764 500.113 291.764ZM511.546 293.316V284.356H514.17V293.316H511.546ZM508.378 290.148V287.524H517.338V290.148H508.378Z"
    fill="white"/>
  <path
    d="M445.683 311.637C445.17 311.637 444.835 311.309 444.835 310.741V304.979C444.835 304.425 445.17 304.11 445.648 304.11C446.127 304.11 446.469 304.425 446.469 304.979V305.512H446.503C446.817 304.671 447.583 304.117 448.567 304.117C449.593 304.117 450.324 304.644 450.591 305.573H450.632C450.98 304.678 451.842 304.117 452.888 304.117C454.316 304.117 455.253 305.081 455.253 306.53V310.741C455.253 311.309 454.911 311.637 454.405 311.637C453.892 311.637 453.551 311.309 453.551 310.741V306.947C453.551 306.059 453.086 305.553 452.252 305.553C451.432 305.553 450.871 306.154 450.871 307.022V310.741C450.871 311.309 450.55 311.637 450.044 311.637C449.531 311.637 449.217 311.309 449.217 310.741V306.858C449.217 306.052 448.725 305.553 447.932 305.553C447.111 305.553 446.537 306.188 446.537 307.063V310.741C446.537 311.309 446.188 311.637 445.683 311.637ZM460.106 311.644C457.98 311.644 456.599 310.229 456.599 307.877C456.599 305.539 457.994 304.104 460.106 304.104C462.218 304.104 463.613 305.532 463.613 307.877C463.613 310.229 462.232 311.644 460.106 311.644ZM460.106 310.297C461.186 310.297 461.883 309.422 461.883 307.877C461.883 306.339 461.186 305.457 460.106 305.457C459.033 305.457 458.329 306.339 458.329 307.877C458.329 309.422 459.026 310.297 460.106 310.297ZM465.834 311.637C465.322 311.637 464.987 311.302 464.987 310.741V304.972C464.987 304.438 465.315 304.11 465.8 304.11C466.272 304.11 466.607 304.438 466.607 304.972V305.525H466.641C466.839 304.678 467.468 304.131 468.193 304.131C468.459 304.131 468.664 304.199 468.794 304.315C468.952 304.445 469.034 304.65 469.034 304.931C469.034 305.197 468.952 305.396 468.781 305.532C468.617 305.676 468.364 305.751 468.029 305.758C467.058 305.765 466.689 306.373 466.689 307.255V310.741C466.689 311.302 466.347 311.637 465.834 311.637ZM473.025 311.644C470.811 311.644 469.505 310.256 469.505 307.904C469.505 305.594 470.838 304.104 472.93 304.104C474.912 304.104 476.266 305.512 476.266 307.48C476.266 307.986 475.979 308.287 475.473 308.287H471.2V308.342C471.2 309.552 471.904 310.331 473.012 310.331C473.777 310.331 474.276 310.064 474.823 309.367C475.001 309.169 475.158 309.094 475.398 309.094C475.78 309.094 476.081 309.34 476.081 309.75C476.081 309.88 476.04 310.03 475.965 310.181C475.486 311.104 474.406 311.644 473.025 311.644ZM471.214 307.166H474.598C474.564 306.113 473.894 305.423 472.937 305.423C471.98 305.423 471.282 306.127 471.214 307.166ZM481.577 311.637C481.064 311.637 480.729 311.309 480.729 310.741V304.979C480.729 304.425 481.064 304.11 481.542 304.11C482.021 304.11 482.363 304.425 482.363 304.979V305.512H482.397C482.711 304.671 483.477 304.117 484.461 304.117C485.487 304.117 486.218 304.644 486.485 305.573H486.526C486.875 304.678 487.736 304.117 488.782 304.117C490.21 304.117 491.147 305.081 491.147 306.53V310.741C491.147 311.309 490.805 311.637 490.299 311.637C489.787 311.637 489.445 311.309 489.445 310.741V306.947C489.445 306.059 488.98 305.553 488.146 305.553C487.326 305.553 486.765 306.154 486.765 307.022V310.741C486.765 311.309 486.444 311.637 485.938 311.637C485.425 311.637 485.111 311.309 485.111 310.741V306.858C485.111 306.052 484.619 305.553 483.826 305.553C483.005 305.553 482.431 306.188 482.431 307.063V310.741C482.431 311.309 482.083 311.637 481.577 311.637ZM496 311.644C493.874 311.644 492.493 310.229 492.493 307.877C492.493 305.539 493.888 304.104 496 304.104C498.113 304.104 499.507 305.532 499.507 307.877C499.507 310.229 498.126 311.644 496 311.644ZM496 310.297C497.08 310.297 497.778 309.422 497.778 307.877C497.778 306.339 497.08 305.457 496 305.457C494.927 305.457 494.223 306.339 494.223 307.877C494.223 309.422 494.92 310.297 496 310.297ZM503.588 311.616C501.763 311.616 500.58 310.174 500.58 307.87C500.58 305.58 501.763 304.131 503.588 304.131C504.627 304.131 505.447 304.671 505.83 305.471H505.871V302.395C505.871 301.82 506.22 301.499 506.719 301.499C507.218 301.499 507.573 301.82 507.573 302.395V310.782C507.573 311.329 507.225 311.637 506.732 311.637C506.24 311.637 505.871 311.336 505.871 310.782V310.215H505.837C505.488 311.049 504.709 311.616 503.588 311.616ZM504.101 310.222C505.174 310.222 505.878 309.312 505.878 307.877C505.878 306.455 505.174 305.532 504.101 305.532C503.007 305.532 502.323 306.441 502.323 307.877C502.323 309.319 503 310.222 504.101 310.222ZM512.502 311.644C510.287 311.644 508.981 310.256 508.981 307.904C508.981 305.594 510.314 304.104 512.406 304.104C514.388 304.104 515.742 305.512 515.742 307.48C515.742 307.986 515.455 308.287 514.949 308.287H510.676V308.342C510.676 309.552 511.381 310.331 512.488 310.331C513.254 310.331 513.753 310.064 514.299 309.367C514.477 309.169 514.634 309.094 514.874 309.094C515.257 309.094 515.557 309.34 515.557 309.75C515.557 309.88 515.516 310.03 515.441 310.181C514.963 311.104 513.882 311.644 512.502 311.644ZM510.69 307.166H514.074C514.04 306.113 513.37 305.423 512.413 305.423C511.456 305.423 510.758 306.127 510.69 307.166ZM518.025 311.637C517.526 311.637 517.17 311.315 517.17 310.741V302.395C517.17 301.82 517.526 301.499 518.025 301.499C518.524 301.499 518.872 301.82 518.872 302.395V310.741C518.872 311.315 518.524 311.637 518.025 311.637ZM523.398 311.644C521.866 311.644 520.793 311.056 520.444 310.188C520.397 310.064 520.376 309.955 520.376 309.853C520.376 309.442 520.677 309.183 521.087 309.183C521.367 309.183 521.607 309.312 521.825 309.6C522.208 310.153 522.646 310.399 523.459 310.399C524.252 310.399 524.778 310.064 524.778 309.518C524.778 309.08 524.505 308.841 523.76 308.67L522.584 308.403C521.169 308.082 520.472 307.385 520.472 306.332C520.472 304.985 521.634 304.104 523.425 304.104C524.819 304.104 525.9 304.787 526.125 305.621C526.146 305.71 526.159 305.792 526.159 305.874C526.159 306.229 525.934 306.482 525.503 306.482C525.257 306.482 525.011 306.394 524.854 306.168C524.519 305.669 524.102 305.354 523.384 305.354C522.639 305.354 522.126 305.717 522.126 306.236C522.126 306.66 522.441 306.947 523.192 307.118L524.348 307.371C525.879 307.72 526.487 308.273 526.487 309.347C526.487 310.734 525.243 311.644 523.398 311.644Z"
    fill="white"/>
  <defs>
    <filter id="filter0_d_310_91874" x="73.0005" y="139" width="487" height="154" filterUnits="userSpaceOnUse"
            color-interpolation-filters="sRGB">
      <feFlood flood-opacity="0" result="BackgroundImageFix"/>
      <feColorMatrix in="SourceAlpha" type="matrix" values="0 0 0 0 0 0 0 0 0 0 0 0 0 0 0 0 0 0 127 0"
                     result="hardAlpha"/>
      <feOffset dy="4"/>
      <feGaussianBlur stdDeviation="18"/>
      <feComposite in2="hardAlpha" operator="out"/>
      <feColorMatrix type="matrix" values="0 0 0 0 0 0 0 0 0 0 0 0 0 0 0 0 0 0 0.08 0"/>
      <feBlend mode="normal" in2="BackgroundImageFix" result="effect1_dropShadow_310_91874"/>
      <feBlend mode="normal" in="SourceGraphic" in2="effect1_dropShadow_310_91874" result="shape"/>
    </filter>
    <filter id="filter1_d_310_91874" x="35.0005" y="109" width="510" height="166" filterUnits="userSpaceOnUse"
            color-interpolation-filters="sRGB">
      <feFlood flood-opacity="0" result="BackgroundImageFix"/>
      <feColorMatrix in="SourceAlpha" type="matrix" values="0 0 0 0 0 0 0 0 0 0 0 0 0 0 0 0 0 0 127 0"
                     result="hardAlpha"/>
      <feOffset dy="4"/>
      <feGaussianBlur stdDeviation="18"/>
      <feComposite in2="hardAlpha" operator="out"/>
      <feColorMatrix type="matrix" values="0 0 0 0 0 0 0 0 0 0 0 0 0 0 0 0 0 0 0.08 0"/>
      <feBlend mode="normal" in2="BackgroundImageFix" result="effect1_dropShadow_310_91874"/>
      <feBlend mode="normal" in="SourceGraphic" in2="effect1_dropShadow_310_91874" result="shape"/>
    </filter>
    <linearGradient id="paint0_linear_310_91874" x1="286" y1="-4.96969e-08" x2="284.737" y2="433.996"
                    gradientUnits="userSpaceOnUse">
      <stop stop-color="#F0E6F9"/>
      <stop offset="1" stop-color="#B67FFF"/>
    </linearGradient>
    <linearGradient id="paint1_linear_310_91874" x1="-90.3964" y1="640.3" x2="209.671" y2="194.512"
                    gradientUnits="userSpaceOnUse">
      <stop stop-color="#DFF671"/>
      <stop offset="1" stop-color="#8D57BF"/>
    </linearGradient>
    <linearGradient id="paint2_linear_310_91874" x1="493" y1="203.5" x2="493" y2="172.5" gradientUnits="userSpaceOnUse">
      <stop stop-color="#6910E0"/>
      <stop offset="1" stop-color="#B47CFF"/>
    </linearGradient>
    <linearGradient id="paint3_linear_310_91874" x1="187.558" y1="336.042" x2="235.598" y2="252.834"
                    gradientUnits="userSpaceOnUse">
      <stop stop-color="#DFF671"/>
      <stop offset="1" stop-color="#8D57BF"/>
    </linearGradient>
    <clipPath id="clip0_310_91874">
      <rect width="49" height="20.8142" fill="white" transform="translate(128.5 201.594)"/>
    </clipPath>
    <clipPath id="clip1_310_91874">
      <rect width="49" height="20.8142" fill="white" transform="translate(98.5005 177.594)"/>
    </clipPath>
    <clipPath id="clip2_310_91874">
      <rect width="38" height="32.1538" fill="white" transform="translate(155 281)"/>
    </clipPath>
    <clipPath id="clip3_310_91874">
      <rect width="40" height="40" fill="white" transform="matrix(1 0 0 -1 212 317)"/>
    </clipPath>
    <clipPath id="clip4_310_91874">
      <rect width="32" height="32" fill="white" transform="translate(332 281)"/>
    </clipPath>
  </defs>
</svg>
